<?xml version="1.0" encoding="UTF-8"?><svg id="Layer_1" xmlns="http://www.w3.org/2000/svg" viewBox="0 0 166.71 166.71"><defs><style>.cls-1{opacity:.12;}.cls-2{fill:#f05728;}</style></defs><g class="cls-1"><g><g><path class="cls-2" d="M44,79.78c-5.77,0-10.3-6.89-10.3-15.69s4.52-15.69,10.3-15.69,10.3,6.89,10.3,15.69-4.52,15.69-10.3,15.69Zm0-26.53c-2.57,0-5.44,4.64-5.44,10.84s2.87,10.84,5.44,10.84,5.44-4.64,5.44-10.84-2.87-10.84-5.44-10.84Z"/><path class="cls-2" d="M122.71,79.78c-5.77,0-10.3-6.89-10.3-15.69s4.52-15.69,10.3-15.69,10.3,6.89,10.3,15.69-4.52,15.69-10.3,15.69Zm0-26.53c-2.57,0-5.44,4.64-5.44,10.84s2.87,10.84,5.44,10.84,5.44-4.64,5.44-10.84-2.87-10.84-5.44-10.84Z"/></g><path class="cls-2" d="M83.72,130.91c-16.14,0-30.82-8.55-37.4-21.77-1.87-3.76-1.67-8.14,.54-11.7,2.2-3.56,6.02-5.68,10.2-5.68h53.31c4.19,0,8,2.12,10.2,5.68,2.21,3.57,2.41,7.94,.54,11.7-6.58,13.22-21.26,21.77-37.4,21.77Zm-26.65-34.3c-2.49,0-4.76,1.26-6.08,3.38-1.32,2.13-1.44,4.74-.32,6.99,5.76,11.59,18.74,19.08,33.05,19.08s27.29-7.49,33.05-19.08c1.12-2.25,1-4.86-.32-6.99-1.31-2.12-3.58-3.38-6.08-3.38H57.07Z"/></g><path class="cls-2" d="M83.35,166.71C37.39,166.71,0,129.31,0,83.35S37.39,0,83.35,0s83.35,37.39,83.35,83.35-37.39,83.35-83.35,83.35Zm0-161.85C40.07,4.85,4.85,40.07,4.85,83.35s35.21,78.5,78.5,78.5,78.5-35.21,78.5-78.5S126.64,4.85,83.35,4.85Z"/></g></svg>