<?xml version="1.0" encoding="UTF-8"?><svg id="Layer_1" xmlns="http://www.w3.org/2000/svg" xmlns:xlink="http://www.w3.org/1999/xlink" viewBox="0 0 268.63 168.08"><defs><style>.cls-1{fill:none;}.cls-2{clip-path:url(#clippath);}.cls-3{opacity:.12;}.cls-4{fill:#f05728;}</style><clipPath id="clippath"><rect class="cls-1" width="268.63" height="168.08"/></clipPath></defs><g class="cls-2"><g class="cls-3"><path class="cls-4" d="M182.9-18.91c-6.86,0-12.23,8.31-12.23,18.91s5.37,18.91,12.23,18.91S195.13,10.6,195.13,0s-5.37-18.91-12.23-18.91Zm0,32.83c-3.43,0-7.25-5.72-7.25-13.92s3.82-13.92,7.25-13.92S190.15-8.21,190.15,0s-3.82,13.92-7.25,13.92Z"/><path class="cls-4" d="M134.2-98.37C61.26-98.37,1.92-39.03,1.92,33.91S61.26,166.2,134.2,166.2s132.28-59.34,132.28-132.28S207.15-98.37,134.2-98.37Zm0,259.58C64.01,161.21,6.9,104.11,6.9,33.91s57.11-127.3,127.3-127.3,127.3,57.11,127.3,127.3-57.11,127.3-127.3,127.3Z"/><path class="cls-4" d="M183.6,75.95c-3.18-22.34-24.56-39.19-49.74-39.19s-46.54,16.84-49.73,39.17c-.3,2.07,.49,4.09,2.12,5.4,1.6,1.29,3.71,1.64,5.64,.92l22.86-8.45c6.12-2.26,12.55-3.39,18.97-3.39s12.74,1.11,18.81,3.33l23.32,8.53c1.92,.71,4.05,.35,5.63-.93,1.62-1.31,2.41-3.33,2.11-5.4Zm-29.35-6.88c-6.59-2.41-13.49-3.63-20.52-3.63s-14.06,1.24-20.7,3.7l-24.22,8.95,.41-2.39c3.3-19.35,22.49-33.95,44.65-33.95s41.37,14.61,44.65,33.97l.4,2.38-24.67-9.03Z"/><path class="cls-4" d="M85.5-18.91C78.64-18.91,73.27-10.6,73.27,0s5.37,18.91,12.23,18.91S97.74,10.6,97.74,0s-5.37-18.91-12.23-18.91Zm0,32.83c-3.43,0-7.25-5.72-7.25-13.92s3.82-13.92,7.25-13.92S92.75-8.21,92.75,0s-3.82,13.92-7.25,13.92Z"/></g></g></svg>