<?xml version="1.0" encoding="UTF-8"?><svg id="Layer_1" xmlns="http://www.w3.org/2000/svg" xmlns:xlink="http://www.w3.org/1999/xlink" viewBox="0 0 143.49 186.9"><defs><style>.cls-1{fill:none;}.cls-2{clip-path:url(#clippath);}.cls-3{opacity:.12;}.cls-4{fill:#f05728;}</style><clipPath id="clippath"><rect class="cls-1" width="143.49" height="186.9"/></clipPath></defs><g class="cls-2"><g class="cls-3"><g><g><path class="cls-4" d="M35.37,65.41c-11.61,0-21.05-10.41-21.05-23.21s9.44-23.21,21.05-23.21,21.05,10.41,21.05,23.21-9.44,23.21-21.05,23.21Zm0-41.07c-8.93,0-16.19,8.01-16.19,17.86s7.26,17.86,16.19,17.86,16.19-8.01,16.19-17.86-7.26-17.86-16.19-17.86Z"/><path class="cls-4" d="M92.13,53.82c-5.81,0-10.53-5.21-10.53-11.62s4.73-11.62,10.53-11.62,10.53,5.21,10.53,11.62-4.73,11.62-10.53,11.62Zm0-17.88c-3.13,0-5.68,2.81-5.68,6.27s2.55,6.27,5.68,6.27,5.68-2.81,5.68-6.27-2.55-6.27-5.68-6.27Z"/></g><path class="cls-4" d="M68.53,164.96c-10.67,0-19.03-19.32-19.03-43.98s8.36-43.98,19.03-43.98,19.03,19.32,19.03,43.98-8.36,43.98-19.03,43.98Zm0-82.61c-8.35,0-14.17,20.36-14.17,38.63s5.82,38.63,14.17,38.63,14.17-20.36,14.17-38.63-5.82-38.63-14.17-38.63Z"/></g><path class="cls-4" d="M58.5,185.66c-45.96,0-83.35-41.24-83.35-91.94S12.53,1.79,58.5,1.79s83.35,41.24,83.35,91.94-37.39,91.94-83.35,91.94Zm0-178.52C15.21,7.15-20,45.99-20,93.73S15.21,180.31,58.5,180.31s78.5-38.84,78.5-86.58S101.78,7.15,58.5,7.15Z"/></g></g></svg>