<?xml version="1.0" encoding="UTF-8"?><svg id="Layer_1" xmlns="http://www.w3.org/2000/svg" xmlns:xlink="http://www.w3.org/1999/xlink" viewBox="0 0 181.41 386.52"><defs><style>.cls-1{fill:none;}.cls-2{clip-path:url(#clippath);}.cls-3{opacity:.12;}.cls-4{fill:#f05728;}</style><clipPath id="clippath"><rect class="cls-1" width="181.41" height="386.52"/></clipPath></defs><g class="cls-2"><g class="cls-3"><path class="cls-4" d="M194.05,1.6C88.38,1.6,2.41,87.57,2.41,193.24s85.97,191.64,191.64,191.64,191.64-85.97,191.64-191.64S299.72,1.6,194.05,1.6Zm0,377.95c-102.73,0-186.31-83.58-186.31-186.31S91.32,6.94,194.05,6.94s186.31,83.58,186.31,186.31-83.58,186.31-186.31,186.31Z"/><path class="cls-4" d="M76.97,161.38c.99-.85,10.01-8.4,22.95-12.09,4-1.14,8.67-1.98,13.75-1.98,10.08,0,21.79,3.29,33.19,14,1.04,.98,2.79,.92,3.77-.12,1.01-1.07,.95-2.76-.12-3.77-15.14-14.22-32.55-18.66-51.75-13.17-14.88,4.25-25.19,13.02-25.29,13.11-1.1,.96-1.22,2.64-.26,3.75,.96,1.11,2.65,1.23,3.76,.27Z"/><path class="cls-4" d="M48.86,218.22c-1.43,.15-2.5,1.47-2.35,2.93,2.32,21.95,12.93,40.4,31.53,54.83,18.43,14.3,44.83,24.48,76.32,29.46,13.8,2.18,28.73,3.33,43.17,3.33,12.19,0,23.75-.79,34.37-2.35,53.89-7.93,94.85-40.62,109.56-87.45,.21-.68,.15-1.4-.18-2.03-.33-.63-.89-1.1-1.57-1.31-.68-.22-1.4-.16-2.03,.17-.63,.33-1.1,.89-1.32,1.57-14.09,44.83-53.43,76.14-105.25,83.77-37.83,5.56-108.94,2.33-149.81-29.38-17.41-13.5-27.33-30.72-29.49-51.17-.14-1.36-1.33-2.38-2.7-2.38-.09,0-.18,0-.27,.01Z"/></g></g></svg>