<?xml version="1.0" encoding="UTF-8"?><svg id="Layer_1" xmlns="http://www.w3.org/2000/svg" xmlns:xlink="http://www.w3.org/1999/xlink" viewBox="0 0 149.04 189.98"><defs><style>.cls-1{fill:none;}.cls-2{clip-path:url(#clippath);}.cls-3{opacity:.12;}.cls-4{fill:#f05728;}</style><clipPath id="clippath"><rect class="cls-1" width="149.04" height="189.98"/></clipPath></defs><g class="cls-2"><g class="cls-3"><g><path class="cls-4" d="M64.04,145.28c-13.84,0-26.43-8.09-32.08-20.61-1.64-3.65-1.47-7.89,.48-11.35,1.94-3.45,5.29-5.51,8.97-5.51h45.25c3.68,0,7.04,2.06,8.97,5.51,1.94,3.46,2.12,7.7,.48,11.35-5.64,12.52-18.24,20.61-32.08,20.61Zm-22.63-32.12c-1.99,0-3.8,1.11-4.85,2.98-1.05,1.87-1.15,4.17-.26,6.15,4.83,10.72,15.72,17.64,27.73,17.64s22.9-6.92,27.73-17.64c.89-1.98,.79-4.27-.26-6.15-1.05-1.86-2.86-2.98-4.85-2.98H41.41Z"/><g><path class="cls-4" d="M34.25,95.53c-1.75,0-3.82-.48-6.27-1.7-4.61-2.29-8.64-4.99-11.96-8.01h0c-1.05-.96-2.04-1.96-2.96-2.98-3.65-4.08-9.41-12.13-7.05-20.18,1.87-6.36,8.27-8.19,13.2-7.83,2.44,.18,4.93,.93,7.4,2.24l.19,.1c.25,.13,.52,.27,.8,.43,.64-4.97,2.74-8.72,6.03-10.68,4.42-2.64,9.71-1.43,13.48,3.07,4.29,5.13,5.21,12.58,2.66,21.54-1.31,4.61-3,9.14-5.02,13.45-.23,.49-.45,.98-.67,1.48-.88,1.97-1.78,4.01-3.21,5.81-1.34,1.68-3.44,3.26-6.61,3.26ZM17.95,60.14c-3,0-6.41,1.07-7.32,4.17-1.68,5.71,4.09,12.75,5.89,14.77,.8,.89,1.67,1.77,2.59,2.61h0c2.99,2.73,6.65,5.17,10.86,7.26,5.06,2.51,6.7,.45,7.24-.22,1-1.25,1.73-2.89,2.49-4.62,.24-.54,.47-1.07,.72-1.59,1.89-4.04,3.47-8.28,4.7-12.6,2.03-7.12,1.49-12.61-1.6-16.3-1.76-2.1-4.68-3.73-7.6-1.99-2.95,1.76-3.57,6-3.67,8.37-.06,1.42-.81,2.71-1.96,3.36-1.14,.65-2.52,.58-3.61-.19-.61-.43-1.34-.82-1.99-1.16l-.19-.1c-1.91-1.01-3.8-1.59-5.63-1.72-.3-.02-.62-.03-.93-.03Z"/><path class="cls-4" d="M93.83,95.53c-3.17,0-5.27-1.59-6.61-3.26-1.43-1.79-2.33-3.83-3.21-5.8-.22-.5-.44-1-.67-1.48-2.02-4.32-3.71-8.84-5.02-13.45-2.55-8.96-1.63-16.4,2.66-21.54,3.76-4.5,9.05-5.71,13.48-3.07,3.28,1.96,5.38,5.71,6.03,10.68,.28-.15,.55-.29,.8-.42l.19-.1c2.46-1.3,4.95-2.05,7.4-2.24,4.93-.37,11.33,1.46,13.2,7.83,2.36,8.04-3.4,16.1-7.05,20.18-.91,1.02-1.91,2.02-2.96,2.98-3.32,3.03-7.35,5.72-11.96,8.01-2.45,1.22-4.52,1.7-6.27,1.7Zm-4.25-44.64c-1.98,0-3.8,1.25-5.03,2.73-3.09,3.7-3.62,9.18-1.6,16.31,1.23,4.31,2.81,8.55,4.7,12.6,.24,.52,.48,1.05,.72,1.59,.77,1.73,1.5,3.37,2.49,4.62,.54,.68,2.18,2.74,7.24,.22,4.22-2.09,7.87-4.54,10.86-7.26h0c.92-.84,1.79-1.72,2.59-2.61,1.81-2.02,7.57-9.06,5.89-14.77-1.08-3.67-5.71-4.33-8.26-4.13-1.83,.14-3.72,.72-5.63,1.72l-.2,.1c-.64,.34-1.38,.72-1.99,1.16-1.08,.77-2.46,.84-3.61,.19-1.15-.65-1.9-1.94-1.96-3.36-.11-2.37-.72-6.61-3.67-8.37-.86-.52-1.73-.74-2.56-.74Z"/></g></g><path class="cls-4" d="M64.04,187.34c-45.96,0-83.35-41.24-83.35-91.94S18.08,3.47,64.04,3.47s83.35,41.24,83.35,91.93-37.39,91.94-83.35,91.94Zm0-178.52C20.75,8.83-14.46,47.67-14.46,95.41s35.21,86.58,78.5,86.58,78.5-38.84,78.5-86.58S107.32,8.83,64.04,8.83Z"/></g></g></svg>