<?xml version="1.0" encoding="UTF-8"?><svg id="Layer_1" xmlns="http://www.w3.org/2000/svg" viewBox="0 0 87.85 96.9"><defs><style>.cls-1{opacity:.12;}.cls-2{fill:#f05728;}</style></defs><g class="cls-1"><path class="cls-2" d="M43.93,0C19.71,0,0,21.74,0,48.45s19.71,48.45,43.93,48.45,43.93-21.73,43.93-48.45S68.15,0,43.93,0Zm0,91.61c-21.58,0-39.14-19.36-39.14-43.16S22.35,5.28,43.93,5.28s39.13,19.36,39.13,43.17-17.56,43.16-39.13,43.16Z"/><path class="cls-2" d="M23.94,54.93c1.82-.05,3.5-1.22,4.61-3.21,.92-1.66,1.4-3.8,1.35-6.01-.12-5.06-2.81-8.87-6.26-8.87h-.13c-1.82,.06-3.5,1.23-4.6,3.22-.92,1.66-1.4,3.8-1.35,6.01,.12,5.06,2.81,8.87,6.26,8.87h.13Zm-1.6-9.01c-.03-1.17,.21-2.33,.65-3.11,.28-.5,.55-.69,.62-.69h.03c.36,0,1.41,1.28,1.47,3.72,.03,1.17-.21,2.33-.65,3.11-.26,.47-.54,.69-.62,.69h0c-.36,0-1.44-1.28-1.49-3.72Z"/><path class="cls-2" d="M61.42,35.73h-.13c-1.82,.05-3.5,1.23-4.61,3.22-.92,1.66-1.4,3.8-1.35,6.01,.12,5.06,2.81,8.87,6.26,8.87h.13c1.82-.05,3.5-1.23,4.61-3.22,.92-1.66,1.4-3.8,1.35-6.01-.12-5.06-2.81-8.87-6.26-8.87Zm.82,12.12c-.26,.47-.54,.69-.65,.69-.36-.02-1.42-1.33-1.47-3.72-.03-1.17,.21-2.34,.64-3.11,.28-.5,.55-.69,.62-.69h.03c.36,0,1.41,1.28,1.47,3.72,.03,1.17-.21,2.33-.65,3.11Z"/><path class="cls-2" d="M43.24,53.65c-8.4,.24-15.83,5.05-18.94,12.23-.93,2.16-.78,4.55,.4,6.57,1.24,2.11,3.5,3.43,5.88,3.43l26.16-.76c2.46-.07,4.72-1.52,5.9-3.77,1.09-2.09,1.12-4.49,.09-6.58-3.45-7.01-11.11-11.39-19.5-11.11Zm15.26,15.06c-.35,.67-1.07,1.11-1.87,1.13l-25.98,.76c-.78,.03-1.53-.37-1.92-1.02-.27-.46-.31-.94-.1-1.42,2.34-5.41,8.12-9.03,14.74-9.22,.18,0,.37,0,.55,0,6.37,0,12.11,3.28,14.61,8.36,.23,.47,.22,.94-.03,1.42Z"/><path class="cls-2" d="M33.01,30.1c.52-.42,.86-1.03,.95-1.73,.1-.7-.05-1.39-.43-1.96-.38-.57-.93-.95-1.57-1.05-.63-.11-1.26,.06-1.78,.48-2.34,1.89-5,4.02-7.83,5.34-2.01,.93-5.02,1.86-7.97,.94-1.27-.39-2.6,.43-2.95,1.83-.17,.68-.1,1.39,.22,2.01,.31,.62,.82,1.06,1.44,1.25,1.23,.38,2.53,.58,3.86,.58,2.35,0,4.8-.58,7.27-1.74,3.34-1.56,6.24-3.89,8.79-5.94Z"/><path class="cls-2" d="M76.42,33.94c-.36-1.4-1.69-2.23-2.96-1.83-2.95,.92-5.96,0-7.97-.94-2.83-1.32-5.49-3.46-7.83-5.34-.52-.42-1.15-.58-1.78-.48-.63,.11-1.19,.48-1.57,1.05-.38,.57-.53,1.27-.43,1.96,.1,.7,.44,1.31,.95,1.73,2.55,2.06,5.45,4.39,8.79,5.94,2.47,1.15,4.92,1.74,7.27,1.74,1.33,0,2.63-.19,3.86-.58,.62-.19,1.13-.64,1.44-1.25,.31-.62,.39-1.33,.22-2.01Z"/></g></svg>