<?xml version="1.0" encoding="UTF-8"?><svg id="Layer_1" xmlns="http://www.w3.org/2000/svg" xmlns:xlink="http://www.w3.org/1999/xlink" viewBox="0 0 203.59 133.15"><defs><style>.cls-1{fill:none;}.cls-2{clip-path:url(#clippath);}.cls-3{opacity:.12;}.cls-4{fill:#f05728;}</style><clipPath id="clippath"><rect class="cls-1" width="203.59" height="133.15"/></clipPath></defs><g class="cls-2"><g class="cls-3"><path class="cls-4" d="M70.89,263.51C-.86,263.51-59.24,205.14-59.24,133.38S-.86,3.24,70.89,3.24,201.03,61.62,201.03,133.38s-58.38,130.14-130.14,130.14Zm0-252.7C3.31,10.82-51.67,65.8-51.67,133.38S3.31,255.94,70.89,255.94s122.56-54.98,122.56-122.56S138.47,10.82,70.89,10.82Z"/><g><g><path class="cls-4" d="M9.7,147.75c-8.43,0-15.23-9.17-15.54-21.06-.14-5.45,1.13-10.65,3.6-14.67,2.74-4.46,6.79-7.08,11.12-7.2,.1,0,.2,0,.31,0,8.43,0,15.23,9.17,15.54,21.06,.14,5.45-1.13,10.65-3.6,14.67-2.74,4.46-6.79,7.08-11.12,7.2-.1,0-.2,0-.31,0Zm-.53-35.35s-.06,0-.09,0c-2.35,.06-4.05,2.27-4.86,3.58-1.68,2.74-2.58,6.57-2.48,10.5,.22,8.18,4.4,13.71,8.07,13.68,2.35-.06,4.05-2.27,4.86-3.58,1.68-2.74,2.58-6.57,2.48-10.5-.21-8.11-4.36-13.68-7.98-13.68Z"/><path class="cls-4" d="M124.63,144.72c-8.43,0-15.23-9.17-15.54-21.06-.14-5.45,1.13-10.65,3.6-14.67,2.74-4.46,6.79-7.08,11.12-7.2,.1,0,.2,0,.31,0,8.43,0,15.23,9.17,15.54,21.06,.14,5.45-1.13,10.65-3.59,14.67-2.74,4.46-6.79,7.08-11.12,7.2-.1,0-.2,0-.31,0Zm-.53-35.35s-.06,0-.09,0c-2.35,.06-4.05,2.27-4.86,3.58-1.68,2.74-2.58,6.57-2.48,10.5,.22,8.18,4.5,13.78,8.07,13.68,2.35-.06,4.06-2.27,4.86-3.58,1.68-2.74,2.58-6.57,2.48-10.5-.21-8.11-4.36-13.68-7.98-13.68Z"/></g><g><path class="cls-4" d="M-11.19,100.44c-3.5,0-7.13-.42-10.79-1.46-2.01-.57-3.19-2.66-2.62-4.68,.57-2.01,2.65-3.18,4.68-2.62,9.93,2.8,19.92,.06,26.55-2.74,8.98-3.79,17.24-9.81,24.52-15.13,1.69-1.23,4.06-.86,5.29,.83,1.23,1.69,.86,4.06-.83,5.29-7.62,5.56-16.26,11.86-26.04,15.99-5.39,2.27-12.73,4.51-20.76,4.51Z"/><path class="cls-4" d="M152.98,100.44c-8.03,0-15.37-2.23-20.76-4.51-9.79-4.13-18.42-10.43-26.04-15.99-1.69-1.23-2.06-3.6-.83-5.29,1.23-1.69,3.61-2.06,5.29-.83,7.29,5.32,15.54,11.34,24.52,15.13,6.63,2.8,16.62,5.54,26.55,2.74,2.01-.56,4.11,.6,4.68,2.62,.57,2.01-.6,4.11-2.62,4.68-3.66,1.03-7.29,1.46-10.79,1.46Z"/></g></g></g></g></svg>