<?xml version="1.0" encoding="UTF-8"?><svg id="Layer_1" xmlns="http://www.w3.org/2000/svg" xmlns:xlink="http://www.w3.org/1999/xlink" viewBox="0 0 106.87 106.87"><defs><style>.cls-1{fill:none;}.cls-2{clip-path:url(#clippath);}.cls-3{opacity:.12;}.cls-4{fill:#f05728;}</style><clipPath id="clippath"><rect class="cls-1" x="58.97" y="-269.26" width="273.19" height="216.55"/></clipPath></defs><g class="cls-3"><path class="cls-4" d="M53.44,54.82c-10.61,0-19.62,7.15-20.98,16.64-.19,1.33,.32,2.62,1.36,3.46,1.03,.83,2.39,1.05,3.63,.59l8.99-3.32c4.46-1.65,9.38-1.66,13.85-.02l9.17,3.35c.42,.15,.85,.23,1.29,.23,.84,0,1.67-.3,2.34-.83,1.04-.84,1.54-2.13,1.35-3.45-1.35-9.49-10.37-16.65-20.98-16.65Zm15.75,15.43l-7.24-2.65c-2.75-1.01-5.63-1.52-8.56-1.52s-5.87,.52-8.64,1.54l-7.05,2.6c1.88-6.12,8.35-10.56,15.74-10.56s13.87,4.45,15.75,10.57Z"/><path class="cls-4" d="M53.44,0C23.97,0,0,23.97,0,53.44s23.97,53.44,53.44,53.44,53.44-23.97,53.44-53.44S82.9,0,53.44,0Zm48.58,53.44c0,26.79-21.79,48.58-48.58,48.58S4.86,80.22,4.86,53.44,26.65,4.86,53.44,4.86s48.58,21.79,48.58,48.58Z"/><path class="cls-4" d="M39.26,43.62c0,1.34,1.09,2.43,2.43,2.43s2.43-1.09,2.43-2.43v-5.29c.98-.31,1.7-1.23,1.7-2.32,0-1.34-1.09-2.43-2.43-2.43H23.34c-1.34,0-2.43,1.09-2.43,2.43s1.09,2.43,2.43,2.43h15.93v5.17Z"/><path class="cls-4" d="M83.54,33.59h-20.05c-1.34,0-2.43,1.09-2.43,2.43s1.09,2.43,2.43,2.43h15.93v5.17c0,1.34,1.09,2.43,2.43,2.43s2.43-1.09,2.43-2.43v-5.29c.98-.31,1.7-1.23,1.7-2.32,0-1.34-1.09-2.43-2.43-2.43Z"/></g><g class="cls-2"><g class="cls-3"><path class="cls-4" d="M228.58-266.12c-92.09,0-167.02,74.92-167.02,167.02S136.49,67.91,228.58,67.91,395.6-7.01,395.6-99.1s-74.92-167.02-167.01-167.02Zm0,329.16c-89.41,0-162.15-72.74-162.15-162.15s72.74-162.14,162.15-162.14,162.14,72.74,162.14,162.14S317.99,63.04,228.58,63.04Z"/></g></g></svg>