<?xml version="1.0" encoding="UTF-8"?><svg id="Layer_1" xmlns="http://www.w3.org/2000/svg" xmlns:xlink="http://www.w3.org/1999/xlink" viewBox="0 0 273.19 216.55"><defs><style>.cls-1{fill:none;}.cls-2{clip-path:url(#clippath);}.cls-3{opacity:.12;}.cls-4{fill:#f05728;}</style><clipPath id="clippath"><rect class="cls-1" width="273.19" height="216.55"/></clipPath></defs><g class="cls-2"><g class="cls-3"><path class="cls-4" d="M104.86,199.41c-4.49,0-8.65,2.03-11.42,5.56-2.79,3.56-3.76,8.12-2.68,12.52,8.1,32.77,41.26,56.55,78.85,56.55s70.75-23.78,78.85-56.55c1.09-4.4,.11-8.96-2.67-12.52-2.77-3.53-6.93-5.56-11.42-5.56H104.86Zm137.09,8.57c1.86,2.37,2.5,5.41,1.78,8.34-7.57,30.62-38.74,52.85-74.12,52.85s-66.56-22.23-74.12-52.85c-.72-2.94-.07-5.98,1.78-8.35,1.84-2.35,4.6-3.69,7.59-3.69H234.36c2.98,0,5.75,1.35,7.59,3.7Z"/><path class="cls-4" d="M169.61,3.14C77.52,3.14,2.59,78.07,2.59,170.16s74.92,167.02,167.02,167.02,167.01-74.92,167.01-167.02S261.7,3.14,169.61,3.14Zm0,329.16c-89.41,0-162.15-72.74-162.15-162.15S80.2,8.01,169.61,8.01s162.14,72.74,162.14,162.14-72.74,162.15-162.14,162.15Z"/><path class="cls-4" d="M59.61,181.32l44.69-30.53c2.8-1.91,6.29-4.29,8.47-7.75,2.67-4.22,2.71-9.33,.08-12.71-1.42-1.83-3.42-2.92-5.02-3.8l-53.43-29.16c-.37-.2-.76-.3-1.17-.3-.23,0-.46,.03-.69,.1-.62,.18-1.14,.6-1.45,1.17-.64,1.18-.21,2.66,.97,3.3l53.43,29.16c1.35,.74,2.72,1.49,3.51,2.51,1.5,1.93,.96,5.05-.35,7.12-1.64,2.6-4.42,4.49-7.1,6.33l-44.69,30.53c-1.11,.76-1.39,2.28-.64,3.39,.73,1.07,2.31,1.37,3.38,.64Z"/><path class="cls-4" d="M286.66,97.17c-.23-.07-.46-.1-.69-.1-.4,0-.8,.1-1.16,.3l-53.44,29.16c-1.61,.88-3.6,1.97-5.02,3.8-2.62,3.38-2.59,8.49,.08,12.71,2.18,3.45,5.67,5.83,8.47,7.75l44.69,30.53c1.08,.74,2.66,.43,3.38-.64,.76-1.11,.47-2.63-.64-3.39l-44.69-30.53c-2.68-1.83-5.46-3.73-7.1-6.33-1.31-2.07-1.86-5.19-.35-7.12,.79-1.02,2.16-1.77,3.48-2.49l53.45-29.18c1.18-.64,1.61-2.13,.97-3.3-.31-.57-.83-.99-1.46-1.17Z"/></g></g></svg>