<?xml version="1.0" encoding="UTF-8"?><svg id="Layer_1" xmlns="http://www.w3.org/2000/svg" viewBox="0 0 1409.96 38.62"><defs><style>.cls-1{fill:#f68e1e;}.cls-2{fill:none;stroke:#f79421;stroke-linecap:round;stroke-width:2px;}</style></defs><line id="Line_1" class="cls-2" x1="1" y1="19.31" x2="606.97" y2="19.31"/><line id="Line_1-2" class="cls-2" x1="810.09" y1="19.31" x2="1408.96" y2="19.31"/><g><g><path class="cls-1" d="M740.9,33.73l-18.38-14.42,18.38-14.41,18.38,14.41-18.38,14.42Zm-14.21-14.42l14.21,11.14,14.21-11.14-14.21-11.14-14.21,11.14Z"/><path class="cls-1" d="M774.69,33.73l-18.38-14.42,18.38-14.41,18.38,14.41-18.38,14.42Zm-14.21-14.42l14.21,11.14,14.21-11.14-14.21-11.14-14.21,11.14Z"/><path class="cls-1" d="M634.16,33.73l-18.38-14.42,18.38-14.41,18.38,14.41-18.38,14.42Zm-14.21-14.42l14.21,11.14,14.21-11.14-14.21-11.14-14.21,11.14Z"/><path class="cls-1" d="M667.96,33.73l-18.38-14.42,18.38-14.41,18.38,14.41-18.38,14.42Zm-14.21-14.42l14.21,11.14,14.21-11.14-14.21-11.14-14.21,11.14Z"/><g><path class="cls-1" d="M704.53,38.62c-10.65,0-19.31-8.66-19.31-19.31s8.66-19.31,19.31-19.31,19.31,8.66,19.31,19.31-8.66,19.31-19.31,19.31Zm0-37.33c-9.94,0-18.02,8.09-18.02,18.02s8.09,18.02,18.02,18.02,18.02-8.09,18.02-18.02-8.09-18.02-18.02-18.02Z"/><path class="cls-1" d="M704.53,35.63c-9,0-16.32-7.32-16.32-16.32s7.32-16.32,16.32-16.32,16.32,7.32,16.32,16.32-7.32,16.32-16.32,16.32Zm0-30c-7.54,0-13.67,6.13-13.67,13.67s6.13,13.67,13.67,13.67,13.67-6.13,13.67-13.67-6.13-13.67-13.67-13.67Z"/><path class="cls-1" d="M714.36,19.31c0,5.43-4.4,9.83-9.83,9.83s-9.83-4.4-9.83-9.83,4.4-9.83,9.83-9.83,9.83,4.4,9.83,9.83Z"/></g></g><path class="cls-1" d="M595.31,19.16s7.96,5.4,6.51,11.23c0,0,3.76-3.38,.96-6.9-2.46-3.09,1.94,3.44,6.98-4.33-5.04-7.77-8.98-.93-6.98-4.34,2.51-4.26-.96-6.89-.96-6.89,.47,6.86-6.51,11.23-6.51,11.23Z"/><path class="cls-1" d="M813.55,19.16s-7.96-5.4-6.51-11.23c0,0-3.76,3.38-.96,6.9,2.46,3.09-1.94-3.44-6.98,4.33,5.04,7.77,8.98,.93,6.98,4.33-2.51,4.26,.96,6.89,.96,6.89-.47-6.86,6.51-11.23,6.51-11.23Z"/></g></svg>