<?xml version="1.0" encoding="UTF-8" standalone="no"?>
<!-- Created with Inkscape (http://www.inkscape.org/) -->

<svg
   version="1.1"
   id="svg1754"
   width="195.46986"
   height="195.44049"
   viewBox="0 0 195.46986 195.44049"
   xmlns="http://www.w3.org/2000/svg"
   xmlns:svg="http://www.w3.org/2000/svg">
 
  <g
     id="g1762"
     transform="matrix(1.3333333,0,0,-1.3333333,-559.25092,1249.9438)">
    <g
       id="g8907">
      <g
         id="g2712"
         transform="translate(545.1227,854.4885)"
         clip-path="url(#clipPath7707)">
        <path
           d="m 0,0 c 6.37,-0.222 12.784,-6.593 12.948,-12.861 0.174,-6.712 -5.837,-13.132 -12.864,-13.74 l -0.762,-0.066 0.404,2.931 c 0.344,2.513 0.669,4.887 1.04,7.31 l 0.018,0.081 c 0.163,0.551 0.583,0.998 1.121,1.197 l 0.092,0.025 c 0.772,0.154 1.563,0.261 2.352,0.32 0.839,0.051 1.503,0.743 1.519,1.577 -0.019,0.425 -0.199,0.811 -0.507,1.092 -0.308,0.282 -0.706,0.424 -1.124,0.409 H 4.229 c -0.578,0 -1.131,-0.06 -1.716,-0.123 -0.277,-0.029 -0.555,-0.059 -0.835,-0.083 L 1.11,-11.979 -0.737,0.026 Z m -4.935,-1.003 c -4.825,0.348 -9.612,1.267 -14.225,2.734 -12.203,3.553 -23.58,10.018 -32.887,18.694 -1.099,1.05 -1.695,1.027 -2.905,-0.107 -9.949,-9.389 -22.206,-16.179 -35.445,-19.633 -2.035,-0.539 -4.106,-0.913 -6.299,-1.309 -1.02,-0.183 -2.066,-0.372 -3.149,-0.585 l -0.984,-0.194 0.28,0.963 c 1.711,5.894 4.58,11.266 8.525,15.966 7.996,9.809 19.316,16.134 31.869,17.8 16.381,2.376 28.646,-2.851 36.051,-7.655 9.623,-6.244 16.84,-15.683 19.8,-25.895 l 0.244,-0.842 z m -100.917,-10.962 -0.571,0.051 c -0.226,0.02 -0.461,0.045 -0.702,0.071 -0.518,0.054 -1.053,0.111 -1.582,0.127 l -0.073,0.007 c -0.029,0.004 -0.058,0.007 -0.088,0.01 -0.43,0.039 -0.847,-0.095 -1.175,-0.372 -0.329,-0.276 -0.53,-0.665 -0.566,-1.092 v -0.044 c 0.006,-0.891 0.729,-1.608 1.614,-1.608 h 0.01 l 0.068,-0.004 c 2.908,-0.306 3.142,-0.528 3.575,-3.393 l 0.014,-0.096 c 0.265,-1.75 0.561,-3.465 0.875,-5.281 0.106,-0.616 0.214,-1.236 0.32,-1.863 l 0.088,-0.009 v -0.552 l -0.617,-0.055 -0.055,-0.552 c -6.852,0.694 -12.797,6.592 -12.982,12.88 -0.174,6.64 5.364,12.593 12.882,13.849 l 0.832,0.139 z m 91.284,-36.736 c 0.083,0.072 0.16,0.15 0.237,0.227 l 0.154,0.153 c 4.892,4.716 8.695,10.29 11.305,16.565 0.31,1.009 1.221,1.717 2.278,1.766 3.532,0.445 6.96,1.816 9.865,3.961 3.903,2.873 6.299,6.883 6.747,11.291 0.427,4.2 -0.985,8.34 -3.976,11.657 -3.117,3.469 -7.379,5.723 -12.001,6.348 -1.477,0.099 -2.796,1.145 -3.24,2.6 -2.572,6.143 -6.393,11.595 -11.337,16.147 -14.508,13.308 -31.54,17.833 -50.623,13.447 -16.643,-3.422 -30.399,-14.848 -36.813,-30.567 -0.546,-1.246 -1.48,-1.377 -2.231,-1.483 -3.103,-0.439 -6.004,-1.5 -8.642,-3.157 -4.121,-2.559 -6.862,-6.374 -7.719,-10.744 -0.792,-4.033 0.143,-8.144 2.632,-11.576 3.324,-4.442 8.399,-7.342 13.923,-7.953 0.908,-0.02 1.699,-0.578 2.022,-1.43 7.104,-16.159 19.724,-26.526 37.497,-30.783 1.819,-0.435 3.719,-0.71 5.555,-0.976 0.858,-0.124 1.716,-0.248 2.571,-0.388 l 7.961,-0.015 c 0.096,0.024 0.192,0.05 0.288,0.077 0.208,0.057 0.416,0.114 0.627,0.155 4.029,0.573 8.03,1.395 11.924,2.448 4.087,1.512 8.165,3.336 12.066,5.406 l 0.062,0.028 c 0.299,0.118 0.548,0.325 0.719,0.598 0.441,0.702 0.229,1.633 -0.473,2.074 -0.696,0.393 -1.6,0.299 -2.223,-0.248 l -0.086,-0.062 c -6.735,-4.095 -14.452,-6.56 -22.317,-7.128 -18.256,-1.258 -33.182,4.949 -44.37,18.443 -8.465,9.985 -11.991,23.107 -9.669,35.997 0.17,1.154 0.703,1.643 1.896,1.726 1.749,0.109 3.504,0.327 5.222,0.649 14.723,2.868 28.468,9.615 39.745,19.514 0.242,0.207 0.483,0.401 0.728,0.599 0.157,0.126 0.315,0.254 0.475,0.385 l 0.408,0.338 0.392,-0.357 c 4.942,-4.502 10.452,-8.354 16.377,-11.447 9.202,-5.016 19.129,-8.223 29.517,-9.536 0.194,-0.022 0.408,-0.042 0.628,-0.061 1.216,-0.11 2.595,-0.235 3.227,-1.069 l 0.069,-0.116 c 0.588,-1.297 0.842,-2.73 0.737,-4.149 1.062,-11.813 -2.512,-23.351 -10.068,-32.495 -0.863,-1.068 -1.826,-2.08 -2.757,-3.058 -0.517,-0.544 -1.035,-1.089 -1.539,-1.644 l -0.056,-0.055 c -0.029,-0.025 -0.058,-0.052 -0.085,-0.078 -0.588,-0.582 -0.593,-1.534 -0.012,-2.122 0.029,-0.028 0.055,-0.053 0.081,-0.076 0.653,-0.587 1.661,-0.532 2.247,0.12 z"
           style="fill:#ffffff;fill-opacity:1;fill-rule:nonzero;stroke:none"
           id="path2714" />
      </g>
      <g
         id="g2716"
         transform="translate(462.4172,916.8212)"
         clip-path="url(#clipPath7701)">
        <path
           d="M 0,0 C -0.786,2.055 -1.877,1.703 -2.235,1.584 -2.627,1.456 -2.89,1.249 -3.038,0.951 -3.261,0.5 -3.228,-0.172 -2.942,-0.993 c 2.083,-5.285 -0.492,-11.406 -5.749,-13.622 -0.99,-0.34 -1.586,-1.266 -1.488,-2.266 0.041,-2.085 0.033,-4.152 0.025,-6.152 -0.004,-0.841 -0.007,-1.681 -0.007,-2.522 0.161,-1.237 -0.516,-2.448 -1.657,-2.959 -1.195,-0.479 -2.533,-0.104 -3.293,0.899 -1.149,1.193 -2.359,2.382 -3.427,3.432 -1.181,1.173 -1.459,1.212 -2.969,0.427 -5.035,-2.768 -11.245,-1.707 -15.089,2.582 -3.879,4.151 -4.349,10.569 -1.109,15.252 0.531,0.82 0.65,1.878 0.31,2.813 -0.536,1.864 -0.706,3.745 -0.519,5.631 0.676,4.355 4.013,7.807 8.309,8.626 4.311,0.983 8.791,-0.891 11.127,-4.673 0.464,-0.945 1.5,-1.377 2.438,-1.057 1.988,0.58 4.069,0.6 6.041,0.064 0.094,-0.031 0.146,-0.046 0.2,-0.058 0.403,-0.093 0.819,-0.024 1.17,0.195 0.35,0.219 0.594,0.562 0.688,0.965 0.029,0.109 0.045,0.196 0.053,0.282 0.035,0.392 -0.083,0.773 -0.334,1.074 -0.252,0.301 -0.605,0.486 -0.995,0.521 -1.062,0.162 -2.135,0.216 -3.172,0.268 -0.786,0.04 -1.6,0.081 -2.402,0.167 -0.749,0.024 -1.523,0.317 -2.137,0.82 l -0.071,0.068 c -4.252,4.828 -11.196,6.104 -16.886,3.101 -5.713,-3.018 -8.599,-9.727 -6.861,-15.951 0.163,-0.47 0.194,-1.011 0.081,-1.532 l -0.02,-0.071 c -0.551,-1.586 -1.149,-3.182 -1.728,-4.725 l -0.559,-1.497 -0.007,-3.845 c 0.025,-0.088 0.051,-0.176 0.077,-0.263 0.079,-0.266 0.157,-0.53 0.211,-0.8 0.051,-0.271 0.109,-0.535 0.173,-0.798 0.978,-3.985 3.451,-7.352 6.962,-9.479 3.496,-2.118 7.605,-2.752 11.576,-1.793 0.703,0.302 1.441,0.446 2.171,0.446 1.778,0 3.506,-0.858 4.565,-2.397 1.501,-1.989 4.254,-2.668 6.531,-1.595 2.384,0.92 3.874,3.297 3.664,5.799 -0.002,0.686 0.003,1.322 0.007,1.958 0.01,1.498 0.02,3.048 -0.028,4.564 -0.107,1.06 0.484,2.117 1.475,2.602 C -0.036,-13.048 2.317,-6.118 0,0"
           style="fill:#ffffff;fill-opacity:1;fill-rule:nonzero;stroke:none"
           id="path2718" />
      </g>
      <g
         id="g2720"
         transform="translate(525.3689,913.0988)"
         clip-path="url(#clipPath7695)">
        <path
           d="m 0,0 c 0.391,4.467 3.598,8.169 7.979,9.196 1.854,0.308 3.691,0.291 5.499,-0.042 l 0.063,-0.015 c 0.999,-0.298 2.079,0.119 2.625,1.007 2.912,4.635 8.99,6.286 13.843,3.766 4.937,-2.493 7.133,-8.261 5.102,-13.413 -0.392,-0.92 -0.259,-1.967 0.339,-2.748 3.232,-4.749 2.767,-10.974 -1.11,-15.165 -3.812,-4.298 -10.016,-5.387 -15.076,-2.642 -1.571,0.812 -1.831,0.775 -3.076,-0.462 l -0.676,-0.668 c -0.876,-0.866 -1.782,-1.761 -2.648,-2.661 -0.546,-0.736 -1.411,-1.151 -2.3,-1.151 -0.313,0 -0.629,0.052 -0.935,0.159 -1.254,0.528 -1.959,1.789 -1.763,3.093 0.006,0.976 0.004,1.953 0.002,2.929 l -0.003,1.486 c -0.002,0.326 -0.007,0.653 -0.012,0.98 -0.016,0.966 -0.032,1.966 0.038,2.951 0.154,1.173 -0.533,2.24 -1.629,2.575 L 6.194,-10.8 C 1.964,-8.933 -0.526,-4.593 0,0 m 4.835,-20.113 c -0.024,-0.998 -0.049,-2.03 0.048,-3.013 0.165,-2.157 1.595,-3.965 3.642,-4.62 2.024,-0.838 4.301,-0.416 5.848,1.062 0.86,0.751 1.661,1.544 2.399,2.376 0.67,0.932 1.952,1.219 2.956,0.666 6.041,-2.311 12.908,-0.557 17.1,4.373 4.238,4.817 5.054,11.845 2.036,17.496 -0.4,0.853 -0.5,1.794 -0.295,2.679 1.537,6.177 -1.289,12.607 -6.87,15.647 C 26.145,19.567 19.288,18.415 15.025,13.751 14.347,12.844 13.176,12.39 12.007,12.61 6.059,13.26 0.405,9.993 -2.005,4.461 -4.508,-1.266 -3.042,-7.881 1.48,-11.284 c 2.599,-1.534 3.95,-4.535 3.377,-7.496 -0.001,-0.444 -0.012,-0.888 -0.022,-1.333"
           style="fill:#ffffff;fill-opacity:1;fill-rule:nonzero;stroke:none"
           id="path2722" />
      </g>
      <g
         id="g2724"
         transform="translate(508.3256,919.6861)"
         clip-path="url(#clipPath7689)">
        <path
           d="m 0,0 c -0.987,-4.4 -5.375,-7.243 -9.785,-6.356 -2.104,0.426 -2.247,0.351 -3.061,-1.589 -1.038,-2.48 -2.081,-4.958 -3.131,-7.435 -0.107,-0.225 -0.256,-0.321 -0.414,-0.422 -0.075,-0.048 -0.182,-0.116 -0.332,-0.223 l -0.33,0.466 -0.555,-0.266 -0.261,0.477 0.045,0.032 -1.597,3.849 c -0.198,0.483 -0.401,0.963 -0.604,1.443 -0.304,0.717 -0.607,1.434 -0.895,2.157 -0.303,0.927 -1.235,1.435 -2.139,1.193 -1.391,-0.236 -2.746,-0.25 -4.084,-0.053 -3.71,0.786 -6.321,3.951 -6.389,7.704 -0.174,3.784 2.262,7.154 5.926,8.178 1.126,0.285 2.135,0.932 2.854,1.824 0.243,0.279 0.487,0.531 0.739,0.768 4.349,4.084 11.21,3.87 15.295,-0.48 0.67,-0.682 1.523,-1.183 2.458,-1.439 C -1.836,8.791 0.923,4.472 0,0 m -4.949,12.684 c -0.774,0.258 -1.475,0.681 -2.047,1.231 -5.512,5.265 -14.342,5.122 -19.683,-0.322 -0.703,-0.699 -1.523,-1.228 -2.442,-1.577 -4.256,-1.585 -7.212,-5.532 -7.533,-10.059 -0.024,-0.359 -0.03,-0.726 -0.018,-1.086 0.192,-6.123 5.234,-10.973 11.316,-10.973 0.107,0 0.214,0.002 0.321,0.005 1.063,0.162 2.065,-0.509 2.318,-1.553 0.363,-1.016 0.8,-2.033 1.223,-3.017 0.226,-0.527 0.452,-1.054 0.67,-1.584 0.556,-1.727 2.178,-2.883 3.934,-2.826 1.798,-0.062 3.407,1.1 3.948,2.782 0.618,1.516 1.233,2.982 1.852,4.456 l 0.936,2.235 h 0.406 c 0.52,0.003 0.996,0 1.438,0.009 0.067,-10e-4 0.133,-0.002 0.2,-0.002 5.59,0 10.283,3.95 11.223,9.46 0.937,5.686 -2.529,11.199 -8.062,12.821"
           style="fill:#ffffff;fill-opacity:1;fill-rule:nonzero;stroke:none"
           id="path2726" />
      </g>
      <g
         id="g2728"
         transform="translate(474.2759,842.7566)"
         clip-path="url(#clipPath7683)">
        <path
           d="M 0,0 C 0.021,0.066 0.041,0.147 0.053,0.229 0.117,0.642 0.017,1.054 -0.23,1.391 -0.477,1.728 -0.84,1.949 -1.252,2.013 l -0.069,0.015 c -2.98,0.819 -6.014,1.624 -9.018,2.393 l -0.069,0.022 c -0.064,0.025 -0.129,0.046 -0.196,0.062 -0.118,0.029 -0.236,0.043 -0.353,0.043 -0.674,0 -1.289,-0.461 -1.456,-1.145 -0.017,-0.063 -0.028,-0.115 -0.036,-0.168 -0.133,-0.837 0.44,-1.627 1.277,-1.76 l 0.083,-0.019 c 0.777,-0.237 1.562,-0.452 2.22,-0.632 l 1.17,-0.325 V 0.036 c 0,-0.636 -0.004,-1.253 -0.008,-1.858 -0.008,-1.179 -0.015,-2.292 0.008,-3.409 0.017,-0.712 0.243,-1.91 1.563,-1.91 1.241,0 1.52,1.037 1.534,1.907 0.013,0.877 0.009,1.755 0.004,2.664 -0.002,0.47 -0.004,0.947 -0.004,1.436 v 0.779 l 2.549,-0.64 c 0.404,-0.14 0.842,-0.115 1.231,0.072 C -0.434,-0.735 -0.142,-0.407 0,0"
           style="fill:#ffffff;fill-opacity:1;fill-rule:nonzero;stroke:none"
           id="path2730" />
      </g>
      <g
         id="g2732"
         transform="translate(519.347,843.397)"
         clip-path="url(#clipPath7677)">
        <path
           d="M 0,0 C 0.275,0.076 0.576,0.154 0.894,0.237 1.633,0.428 2.469,0.645 3.275,0.915 L 3.367,0.943 C 4.126,1.196 4.539,2.019 4.286,2.778 L 4.266,2.854 C 4.259,2.888 4.252,2.921 4.242,2.954 4.148,3.298 3.925,3.584 3.616,3.76 3.306,3.936 2.946,3.981 2.602,3.887 -0.409,3.153 -3.58,2.307 -7.107,1.297 L -7.192,1.273 c -0.76,-0.244 -1.179,-1.059 -0.936,-1.817 0.225,-0.833 1.029,-1.312 1.843,-1.117 0.438,0.081 0.855,0.193 1.297,0.313 0.227,0.061 0.463,0.124 0.711,0.186 l 0.759,0.192 v -0.784 c 0,-0.49 -0.003,-0.966 -0.006,-1.432 -0.008,-1.044 -0.015,-2.03 0.018,-3.011 v -0.011 l -0.001,-0.069 c -0.013,-0.814 0.632,-1.478 1.437,-1.491 l 0.12,-0.006 c 0.382,-0.021 0.753,0.13 1.03,0.395 0.278,0.264 0.436,0.621 0.445,1.003 0.07,1.283 0.056,2.565 0.041,3.923 -0.007,0.603 -0.014,1.223 -0.014,1.864 v 0.465 z"
           style="fill:#ffffff;fill-opacity:1;fill-rule:nonzero;stroke:none"
           id="path2734" />
      </g>
      <g
         id="g2736"
         transform="translate(485.3092,832.822)"
         clip-path="url(#clipPath7671)">
        <path
           d="m 0,0 c 0.325,-0.259 0.733,-0.376 1.147,-0.33 0.415,0.047 0.787,0.252 1.047,0.578 L 2.26,0.319 c 1.679,1.528 3.414,2.292 5.157,2.292 1.758,0 3.524,-0.777 5.25,-2.33 L 12.73,0.216 c 0.034,-0.041 0.069,-0.081 0.108,-0.118 0.294,-0.291 0.697,-0.473 1.092,-0.445 0.41,0.002 0.796,0.165 1.084,0.457 0.049,0.049 0.089,0.092 0.125,0.137 0.533,0.655 0.433,1.622 -0.223,2.154 l -0.065,0.062 c -1.896,2.071 -4.6,3.242 -7.402,3.221 H 7.438 C 4.657,5.731 1.984,4.559 0.095,2.523 L 0.02,2.455 C -0.048,2.403 -0.111,2.347 -0.169,2.285 -0.454,1.981 -0.604,1.586 -0.591,1.172 -0.578,0.757 -0.404,0.373 -0.102,0.088 -0.068,0.057 -0.035,0.027 0,0"
           style="fill:#ffffff;fill-opacity:1;fill-rule:nonzero;stroke:none"
           id="path2738" />
      </g>
      <g
         id="g2740"
         transform="translate(439.6546,870.1612)"
         clip-path="url(#clipPath7665)">
        <path
           d="M 0,0 C 0.078,0.072 0.138,0.138 0.192,0.209 0.708,0.884 0.579,1.855 -0.097,2.373 L -0.162,2.43 c -2.68,2.723 -5.412,5.448 -8.119,8.1 -0.418,0.314 -0.864,0.593 -1.331,0.833 -0.492,-0.324 -0.938,-0.711 -1.33,-1.155 -0.311,-0.613 -0.15,-1.353 0.396,-1.78 L -10.492,8.38 C -9.525,7.416 -8.561,6.45 -7.596,5.483 -5.849,3.733 -4.101,1.982 -2.34,0.246 L -2.28,0.177 C -2.241,0.125 -2.198,0.075 -2.153,0.028 -1.568,-0.573 -0.602,-0.586 0,0"
           style="fill:#ffffff;fill-opacity:1;fill-rule:nonzero;stroke:none"
           id="path2742" />
      </g>
      <g
         id="g2744"
         transform="translate(547.0987,869.7431)"
         clip-path="url(#clipPath7659)">
        <path
           d="m 0,0 c 0.4,0.052 0.755,0.257 1.001,0.577 l 0.057,0.064 c 2.706,2.65 5.432,5.378 8.1,8.11 0.326,0.448 0.61,0.925 0.848,1.425 C 9.908,10.302 9.814,10.43 9.723,10.556 9.49,10.875 9.171,11.313 8.977,11.357 8.326,11.487 7.625,11.336 7.071,10.938 4.502,8.532 1.985,5.973 -0.449,3.498 L -1.213,2.725 C -1.266,2.682 -1.316,2.636 -1.362,2.586 -1.637,2.292 -1.781,1.908 -1.768,1.506 -1.754,1.104 -1.585,0.732 -1.291,0.457 -1.224,0.389 -1.172,0.344 -1.117,0.301 -0.796,0.054 -0.399,-0.054 0,0"
           style="fill:#ffffff;fill-opacity:1;fill-rule:nonzero;stroke:none"
           id="path2746" />
      </g>
      <g
         id="g2748"
         transform="translate(515.556,905.5962)"
         clip-path="url(#clipPath7653)">
        <path
           d="M 0,0 -0.001,0.016 0.001,0.074 C 0.022,0.847 -0.587,1.49 -1.356,1.511 l -0.101,0.011 c -0.052,0.011 -0.105,0.018 -0.158,0.021 -0.028,0.002 -0.055,0.002 -0.083,0.002 -0.676,0 -1.244,-0.525 -1.288,-1.206 -0.15,-2.025 -0.15,-4.072 0,-6.091 0.004,-0.055 0.01,-0.106 0.019,-0.157 0.13,-0.704 0.806,-1.174 1.515,-1.041 l 0.086,0.009 c 0.413,0.019 0.756,0.181 1.007,0.456 0.251,0.276 0.38,0.633 0.362,1.006 0.015,0.612 0.01,1.181 0.004,1.749 -0.002,0.291 -0.005,0.581 -0.005,0.871 0,0.308 0.003,0.618 0.006,0.929 C 0.014,-1.288 0.02,-0.642 0,0"
           style="fill:#ffffff;fill-opacity:1;fill-rule:nonzero;stroke:none"
           id="path2750" />
      </g>
      <g
         id="g2752"
         transform="translate(472.9424,897.9623)"
         clip-path="url(#clipPath7647)">
        <path
           d="m 0,0 -0.113,0.019 0.033,0.547 c 0.038,0.638 0.033,1.285 -0.016,1.923 -0.055,0.75 -0.688,1.295 -1.411,1.242 L -1.569,3.726 -1.712,3.741 c -0.02,0 -0.041,10e-4 -0.061,10e-4 -0.31,0 -0.608,-0.114 -0.843,-0.327 -0.249,-0.226 -0.395,-0.536 -0.411,-0.872 -0.119,-1.37 -0.113,-2.734 0.017,-4.078 0.075,-0.698 0.682,-1.193 1.355,-1.116 l 0.061,0.007 0.06,-0.006 c 0.366,-0.028 0.708,0.08 0.976,0.309 0.269,0.228 0.433,0.547 0.462,0.898 C -0.045,-0.959 -0.013,-0.478 0,0"
           style="fill:#ffffff;fill-opacity:1;fill-rule:nonzero;stroke:none"
           id="path2754" />
      </g>
    </g>
  </g>
</svg>
