<?xml version="1.0" encoding="UTF-8" standalone="no"?>
<!-- Created with Inkscape (http://www.inkscape.org/) -->

<svg
   version="1.1"
   id="svg2"
   width="1630.7448"
   height="1691.5515"
   viewBox="0 0 1630.7448 1691.5515"
   sodipodi:docname="Happiness Hack interactive_5Oct_v2.ai"
   xmlns:inkscape="http://www.inkscape.org/namespaces/inkscape"
   xmlns:sodipodi="http://sodipodi.sourceforge.net/DTD/sodipodi-0.dtd"
   xmlns="http://www.w3.org/2000/svg"
   xmlns:svg="http://www.w3.org/2000/svg">
  
  <sodipodi:namedview
     id="namedview4"
     pagecolor="#ffffff"
     bordercolor="#000000"
     borderopacity="0.25"
     inkscape:showpageshadow="2"
     inkscape:pageopacity="0.0"
     inkscape:pagecheckerboard="0"
     inkscape:deskcolor="#d1d1d1"
     showgrid="false" />
  <g
     id="g10"
     inkscape:groupmode="layer"
     inkscape:label="Page 1"
     transform="matrix(1.3333333,0,0,-1.3333333,-470.91319,1964.738)">
    <g
       id="g63985">
      <g
         id="g10990">
        <text
           xml:space="preserve"
           transform="matrix(1,0,0,-1,760.7593,923.7344)"
           style="font-variant:normal;font-weight:600;font-stretch:normal;font-size:67.171px;font-family:'Museo Sans Rounded 700';-inkscape-font-specification:MuseoSansRounded-700;writing-mode:lr-tb;fill:#f68e1e;fill-opacity:1;fill-rule:nonzero;stroke:none"
           id="text714"><tspan
             x="0 49.437855 91.016708 145.42522 162.21797 197.48274 221.59712 258.27249 275.06525 309.32245 351.10281 391.00238"
             y="0"
             sodipodi:role="line"
             id="tspan710">How are you </tspan><tspan
             x="-12.695319 9.3367691 46.012135 82.6875 101.42821 118.3553 158.59073 198.55748 215.35022 239.46461 281.24496 321.74908 356.74518 389.05444"
             y="82.553162"
             sodipodi:role="line"
             id="tspan712">feeling today?</tspan></text>
        <text
           xml:space="preserve"
           transform="matrix(1,0,0,-1,755.7227,758.4609)"
           style="font-variant:normal;font-weight:300;font-stretch:normal;font-size:45.0197px;font-family:'Museo Sans Rounded 300';-inkscape-font-specification:MuseoSansRounded-300;writing-mode:lr-tb;fill:#ffffff;fill-opacity:1;fill-rule:nonzero;stroke:none"
           id="text720"><tspan
             x="0 23.680363 48.171078 59.155888 83.646599 107.59708 122.00339 133.25832 155.18741 182.87453 208.98595 224.20261 235.45753 259.94824 300.73608 328.19812 342.60443 352.6438 380.33093 406.62244"
             y="0"
             sodipodi:role="line"
             id="tspan716">Select your emotion </tspan><tspan
             x="34.755207 47.94598 75.633095 90.849754 102.10468 124.97469 136.22961 162.38606 172.42545 196.37593 217.62073 236.66406 277.4519 301.94263 320.98596 347.09738 373.25385"
             y="57.805294"
             sodipodi:role="line"
             id="tspan718">for a pick-me-up.</tspan></text>
      </g>
      <g
         id="g10878">
        <text
           xml:space="preserve"
           transform="scale(1,-1)"
           style="font-variant:normal;font-weight:normal;font-stretch:normal;font-size:34.7935px;font-family:'Museo Sans Rounded 500';-inkscape-font-specification:MuseoSansRounded-500;writing-mode:lr-tb;fill:#ffffff;fill-opacity:1;fill-rule:nonzero;stroke:none"
           id="text918-6"
           x="892.11469"
           y="-1149.1348"><tspan
             x="892.11469"
             y="-1149.1348"
             sodipodi:role="line"
             id="tspan916-9">Stressed</tspan></text>
        <g
           id="g10563">
          <path
             d="m 1096.03,1333.9995 c 0,-75.969 -61.585,-137.555 -137.555,-137.555 -75.969,0 -137.554,61.586 -137.554,137.555 0,75.969 61.585,137.554 137.554,137.554 75.97,0 137.555,-61.585 137.555,-137.554 z"
             style="fill:none;stroke:#f68e1e;stroke-width:4;stroke-linecap:butt;stroke-linejoin:miter;stroke-miterlimit:10;stroke-dasharray:none;stroke-opacity:1"
             id="path854"
             clip-path="url(#clipPath10531)" />
          <g
             id="g9653">
            <g
               id="g880"
               transform="translate(964.5157,1323.6171)"
               clip-path="url(#clipPath4390)">
              <path
                 d="m 0,0 c 0.625,0.707 0.558,1.789 -0.148,2.413 -0.036,0.032 -0.07,0.059 -0.105,0.086 L -0.31,2.548 c -1.515,1.469 -3.596,2.29 -5.705,2.237 h -0.072 c -0.035,10e-4 -0.07,10e-4 -0.104,10e-4 -2.093,0 -4.061,-0.796 -5.562,-2.249 l -0.059,-0.05 c -0.363,-0.274 -0.599,-0.673 -0.662,-1.123 -0.064,-0.45 0.052,-0.899 0.325,-1.262 0.026,-0.033 0.053,-0.068 0.083,-0.101 0.315,-0.362 0.743,-0.575 1.211,-0.608 0.465,-0.034 0.921,0.119 1.276,0.428 l 0.067,0.06 c 0.955,0.838 2.178,1.349 3.444,1.438 l 0.045,0.004 0.044,-0.004 c 1.269,-0.091 2.495,-0.603 3.451,-1.441 0.356,-0.331 0.79,-0.493 1.27,-0.48 0.467,0.017 0.899,0.215 1.218,0.557 z"
                 style="fill:#ffffff;fill-opacity:1;fill-rule:nonzero;stroke:none"
                 id="path882" />
            </g>
            <path
               d="m 0,0 c -0.454,-0.788 -0.22,-1.729 0.511,-2.186 1.084,-0.651 2.258,-1.17 3.477,-1.536 0.439,-0.135 0.917,-0.051 1.283,0.222 0.465,0.395 0.758,0.986 0.798,1.624 -0.014,0.022 -0.029,0.045 -0.043,0.068 l -0.05,0.079 C 5.721,-1.264 5.411,-0.883 5.036,-0.564 4.124,0.007 3.14,0.456 2.107,0.77 L 2.004,0.806 C 1.815,0.874 1.625,0.907 1.432,0.908 0.828,0.904 0.264,0.548 0,0"
               style="fill:#ffffff;fill-opacity:1;fill-rule:nonzero;stroke:none"
               id="path886"
               transform="translate(965.3602,1340.3929)" />
            <g
               id="g888"
               transform="translate(949.6903,1341.2245)"
               clip-path="url(#clipPath4378)">
              <path
                 d="m 0,0 -0.003,-0.001 c -1.142,-0.403 -2.261,-0.899 -3.326,-1.476 -0.662,-0.361 -0.97,-1.142 -0.734,-1.859 0.239,-0.771 0.872,-1.348 1.641,-1.521 0.241,0.12 0.485,0.238 0.727,0.356 l 0.377,0.183 c 1.086,0.489 2.124,1.053 3.103,1.687 0.488,0.499 0.539,1.281 0.114,1.84 l -0.046,0.07 C 1.574,-0.232 1.052,0.078 0.489,0.089 0.331,0.088 0.162,0.058 0,0"
                 style="fill:#ffffff;fill-opacity:1;fill-rule:nonzero;stroke:none"
                 id="path890" />
            </g>
            <g
               id="g9630">
              <g
                 id="g876"
                 transform="translate(1017.8453,1305.4562)"
                 clip-path="url(#clipPath4396)">
                <path
                   d="m 0,0 c -0.471,-0.01 -0.903,-0.198 -1.225,-0.53 -0.35,-0.34 -0.542,-0.796 -0.541,-1.265 0.032,-0.926 0.798,-1.666 1.744,-1.666 h 0.004 0.016 0.021 c 0.914,0 1.656,0.731 1.667,1.639 l 0.627,0.059 -0.627,0.005 C 1.694,-0.803 0.953,-0.032 0,0"
                   style="fill:#ffffff;fill-opacity:1;fill-rule:nonzero;stroke:none"
                   id="path878" />
              </g>
              <g
                 id="g872"
                 transform="translate(1033.062,1378.0874)"
                 clip-path="url(#clipPath4402)">
                <g
                   id="g4461">
                  <g
                     id="g4440"
                     transform="translate(-1033.062,-1378.0874)">
                    <g
                       id="g856"
                       transform="translate(913.6719,1262.7651)"
                       clip-path="url(#clipPath4426)">
                      <path
                         d="m 0,0 1.219,1.882 c 3.409,5.79 6.103,12.021 7.994,18.498 0.964,2.867 2.049,6.09 3.256,9.115 0.994,2.494 2.219,4.087 5.251,4.325 1.535,0.154 3.09,0.407 4.61,0.751 1.03,0.211 2.183,0.447 3.31,0.611 l 0.053,0.008 0.054,-10e-4 c 0.942,-0.025 1.819,-0.411 2.474,-1.087 9.073,-7.686 22.524,-8.045 31.993,-0.85 1.664,1.54 4.107,2.094 6.33,1.407 1.704,-0.432 3.485,-0.743 5.262,-0.917 l 0.157,-0.019 c 0.566,-0.071 1.133,-0.142 1.695,-0.22 1.327,-0.086 2.495,-1.038 2.863,-2.362 1.535,-4.303 3.156,-8.709 4.725,-12.97 l 2.532,-6.943 c 0.94,-3.404 2.649,-6.562 4.956,-9.175 L 90.775,0 Z m -8.471,0.43 -0.79,-0.212 v 0.034 c -0.937,-0.191 -1.893,-0.289 -2.85,-0.29 -3.458,0.014 -6.784,1.284 -9.369,3.574 -5.194,4.626 -6.356,12.305 -2.765,18.26 2.822,4.973 5.719,10.028 8.534,14.94 l 0.547,0.953 c 1.164,2.029 2.327,4.059 3.488,6.089 4.834,8.444 9.669,16.887 14.505,25.329 l 0.09,0.151 c 0.141,0.234 0.282,0.47 0.423,0.719 l 0.856,1.421 17.046,-7.972 -3.14,-8.592 C 16.473,50.382 14.837,45.932 13.193,41.483 L 13.162,41.399 C 9.38,31.14 5.469,20.531 1.749,10.056 0.175,5.329 -3.648,1.726 -8.471,0.43 m 18.495,96.566 v 0.006 l 0.156,0.184 c 1.595,1.812 3.326,3.537 5.147,5.128 1.859,1.491 4.399,1.583 6.34,0.245 2.006,-1.291 2.888,-3.795 2.127,-6.079 -0.909,-2.673 -1.911,-5.524 -3.088,-8.277 -0.698,-1.715 -0.922,-3.6 -0.643,-5.442 l 0.007,-0.094 c 0.675,-3.91 0.617,-7.912 -0.185,-11.846 -0.071,-0.276 -0.15,-0.515 -0.244,-0.795 l -0.564,-1.722 -1.251,0.581 c -0.674,0.313 -1.338,0.62 -1.991,0.922 -1.737,0.794 -3.588,1.65 -5.431,2.585 -0.893,0.499 -1.49,1.342 -1.657,2.327 -0.44,4.428 -0.929,9.516 -1.243,14.427 -0.21,2.823 0.706,5.672 2.52,7.85 m 6.77,11.421 c 0.935,7.608 14.144,17.385 24.803,18.357 6.781,0.499 13.467,-1.032 19.343,-4.433 5.563,-2.903 9.816,-7.775 11.95,-13.705 l 0.498,-1.605 h -1.652 c -3.163,0.199 -6.13,-1.193 -7.964,-3.733 -1.837,-2.532 -2.233,-5.899 -1.035,-8.788 l 0.683,-1.945 -2.004,0.3 c -0.181,0.027 -0.348,0.049 -0.502,0.068 -0.316,0.033 -0.651,0.089 -0.98,0.165 -7.723,1.884 -14.958,5.642 -20.935,10.871 l -0.054,0.054 c -0.921,1.029 -2.394,1.356 -3.665,0.815 -1.714,-0.665 -3.415,-1.308 -5.127,-1.954 l -3.053,-1.155 -0.556,0.683 c -2.995,3.698 -4.045,4.26 -8.647,4.636 l -1.277,0.105 z m 58.327,-6.841 0.603,-0.553 -0.431,-0.455 0.445,0.442 c 1,-0.945 2.035,-1.923 3.001,-2.962 2.491,-2.625 3.704,-6.201 3.323,-9.807 -0.138,-1.703 -0.289,-3.421 -0.44,-5.14 -0.224,-2.555 -0.451,-5.136 -0.639,-7.672 0.033,-1.542 -0.922,-2.91 -2.383,-3.411 -1.599,-0.658 -3.207,-1.428 -4.763,-2.173 l -0.609,-0.29 C 72.742,69.323 72.255,69.091 71.762,68.86 l -1.251,-0.582 -0.427,1.311 c -0.943,3.061 -1.244,6.217 -0.898,9.39 0.035,0.417 0.084,0.852 0.132,1.278 l 0.04,0.363 c 0.144,0.996 0.219,1.985 0.226,2.963 0.01,1.392 -0.181,2.776 -0.569,4.113 -0.562,1.777 -1.256,3.559 -1.926,5.283 l -0.351,0.912 c -0.23,0.596 -0.461,1.193 -0.682,1.792 -1.129,2.392 -0.359,5.286 1.851,6.834 2.301,1.515 5.396,1.105 7.214,-0.941 M 29.988,46.426 29.912,45.729 C 29.501,42.028 26.783,38.995 23.149,38.18 21.914,37.908 20.677,37.721 19.369,37.524 L 19.054,37.476 C 18.491,37.391 17.912,37.304 17.31,37.205 l -2.069,-0.354 6.288,17.137 2.83,-2.208 c 1.567,-1.218 3.188,-2.478 4.808,-3.806 l 0.065,-0.062 c 0.383,-0.418 0.619,-0.937 0.685,-1.486 z m 29.494,-9.113 -0.655,-0.62 C 55.018,33.339 50.168,31.51 45.122,31.51 c -0.116,0 -0.233,10e-4 -0.35,0.003 -5.1,-0.046 -10.062,1.761 -13.959,5.072 l -0.713,0.62 4.049,8.236 1.008,-0.331 c 6.227,-2.105 13.078,-2.1 19.298,0.01 l 1.01,0.354 z m -14.689,9.733 h -0.87 l 0.007,0.02 c -0.182,0.006 -0.363,0.014 -0.544,0.025 -7.312,0.388 -14.142,3.877 -18.745,9.574 -1.132,1.075 -1.385,2.824 -0.596,4.177 0.166,0.322 0.31,0.69 0.415,1.067 0.076,0.242 0.148,0.463 0.227,0.678 0.841,2.308 0.778,2.487 -1.349,3.845 l -0.708,0.453 0.17,0.822 c 0.096,0.47 0.211,0.942 0.324,1.403 l 0.025,0.1 c 0.284,1.011 0.467,2.032 0.548,3.056 0.181,3.171 0.159,6.402 -0.067,9.588 -0.225,2.324 0.13,4.709 1.026,6.882 0.648,1.613 1.239,3.362 1.715,4.768 0.356,1.068 0.724,2.125 1.093,3.14 0.279,0.703 0.789,1.268 1.444,1.608 1.97,0.964 3.891,1.888 5.867,2.68 1.02,0.301 2.073,0.11 2.875,-0.49 7.431,-6.03 16.324,-10.052 25.735,-11.647 l 0.088,-0.022 c 1.793,-0.579 2.925,-2.35 2.702,-4.218 -0.03,-1.033 -0.148,-2.057 -0.263,-3.048 l -0.015,-0.132 c -0.672,-4.497 -0.323,-9.151 1.006,-13.48 L 67.2,66.998 66.388,66.489 c -2.442,-1.526 -2.417,-1.79 -1.436,-3.718 1.888,-3.717 0.306,-6.073 -1.682,-8.065 -4.934,-4.939 -11.496,-7.659 -18.477,-7.66 m 29.352,-9.558 -1.785,0.034 c -6.757,0.136 -11.222,1.486 -12.602,7.792 -0.351,1.165 0.15,2.454 1.229,3.104 1.333,0.983 2.624,2.03 3.989,3.138 0.597,0.485 1.177,0.955 1.772,1.431 l 1.324,1.06 z m 30.282,-40.8 c 4.947,0.774 9.359,3.619 12.106,7.804 2.736,4.147 3.596,9.284 2.362,14.093 -1.16,3.784 -2.927,7.363 -5.243,10.609 l -0.036,0.055 c -0.572,0.9 -1.163,1.829 -1.722,2.757 -0.263,0.402 -0.753,0.617 -1.252,0.529 -0.629,-0.055 -1.128,-0.426 -1.336,-0.959 -0.156,-0.726 -0.06,-1.49 0.272,-2.156 0.701,-1.375 1.499,-2.76 2.323,-4.175 l 0.235,-0.408 c 0.79,-1.369 1.607,-2.785 2.329,-4.234 2.208,-4.404 1.948,-9.731 -0.68,-13.899 -2.571,-4.171 -7.213,-6.763 -12.118,-6.763 h -0.031 -0.089 C 95.227,0.029 89.734,4.139 87.872,10.17 84.322,19.843 80.766,29.549 77.215,39.256 l -8.849,24.165 17.078,7.973 0.928,-1.563 c 0.234,-0.388 0.439,-0.734 0.638,-1.083 0.751,-1.313 1.501,-2.63 2.248,-3.951 l 0.123,-0.214 c 2.059,-3.615 4.187,-7.351 6.341,-10.983 0.392,-0.61 0.974,-1.087 1.671,-1.36 0.545,-0.166 1.183,0.099 1.469,0.646 l 0.041,0.066 c 0.446,0.642 0.43,1.493 -0.041,2.117 l -0.043,0.065 -1.69,2.946 c -2.785,4.85 -5.665,9.865 -8.467,14.814 l -0.116,0.203 c -0.965,1.713 -1.483,2.41 -2.738,2.41 h -1.372 l 0.119,1.336 c 0.07,0.785 0.128,1.562 0.185,2.328 l 0.019,0.248 c 0.131,1.792 0.267,3.647 0.54,5.478 1.099,7.362 -0.798,13.054 -5.8,17.4 -0.652,0.647 -1.073,1.428 -1.248,2.286 -3.921,15.074 -17.566,25.712 -33.174,25.836 H 44.566 C 29.28,130.32 16.091,120.402 11.753,105.739 11.245,103.947 10.26,102.312 8.907,101.019 5.294,97.581 3.503,92.575 4.117,87.625 4.361,85.143 4.562,82.623 4.757,80.186 4.849,79.044 4.941,77.908 5.036,76.767 l 0.112,-1.33 H 3.812 3.781 C 2.737,75.437 2.149,74.992 1.37,73.626 -3.642,64.84 -8.662,56.059 -13.69,47.283 c -3.443,-6.015 -6.884,-12.03 -10.323,-18.046 -0.322,-0.564 -0.651,-1.125 -0.981,-1.686 l -0.17,-0.289 c -2.235,-3.315 -3.804,-6.936 -4.687,-10.793 v -4.188 c 0.055,-0.226 0.105,-0.451 0.156,-0.677 l 0.086,-0.379 c 0.164,-0.818 0.374,-1.615 0.631,-2.387 2.024,-6.42 7.401,-11.072 14.036,-12.148 0.298,-0.064 0.568,-0.138 0.831,-0.226 l 0.114,-0.035 h 117.574 l 0.052,0.019 c 0.227,0.096 0.494,0.178 0.767,0.235 z"
                         style="fill:#ffffff;fill-opacity:1;fill-rule:nonzero;stroke:none"
                         id="path858" />
                    </g>
                  </g>
                  <g
                     id="g860"
                     transform="translate(-142.7717,-13.521091)"
                     clip-path="url(#clipPath4420)">
                    <path
                       d="m 0,0 0.036,-0.02 c 5.149,-2.987 10.478,-6 14.76,-8.422 0.535,-0.336 1.162,-0.443 1.749,-0.306 0.372,0.113 0.72,0.404 0.915,0.787 0.477,0.863 0.171,1.93 -0.673,2.397 -0.053,0.029 -0.109,0.056 -0.165,0.08 l -0.078,0.039 c -2.056,1.206 -4.19,2.42 -6.074,3.492 L 7.449,-0.237 C 7.248,-0.123 7.052,-0.001 6.844,0.127 l -2.47,1.529 1.767,1.022 c 0.458,0.266 0.897,0.526 1.326,0.781 0.967,0.573 1.88,1.114 2.836,1.627 l 0.082,0.036 c 0.786,0.286 1.322,1.04 1.334,1.876 -0.015,0.667 -0.293,1.221 -1.626,1.848 -2.607,1.223 -5.248,2.487 -7.81,3.712 l -0.349,0.168 c -1.684,0.801 -3.371,1.606 -5.059,2.416 -1.818,0.871 -2.269,0.805 -3.33,-0.677 v -0.84 c 0.153,-0.138 0.304,-0.278 0.453,-0.416 0.523,-0.533 1.088,-0.977 1.702,-1.343 1.883,-0.991 3.83,-1.906 5.892,-2.875 L 1.81,8.889 C 2.575,8.53 3.35,8.166 4.135,7.784 L 6.209,6.793 4.22,5.632 C 3.732,5.347 3.264,5.075 2.81,4.813 L 2.683,4.74 C 1.783,4.219 0.933,3.727 0.106,3.217 -0.571,2.864 -0.993,2.22 -1.042,1.506 -0.978,0.862 -0.581,0.288 0,0"
                       style="fill:#ffffff;fill-opacity:1;fill-rule:nonzero;stroke:none"
                       id="path862" />
                  </g>
                  <g
                     id="g864"
                     transform="translate(-127.40908,13.965135)"
                     clip-path="url(#clipPath4414)">
                    <path
                       d="m 0,0 c 2.429,-3.085 4.912,-6.209 7.322,-9.24 l 0.311,-0.393 c 0.259,-0.324 0.518,-0.652 0.773,-0.981 l 0.104,-0.133 c 0.719,-0.919 1.463,-1.869 2.249,-2.727 0.573,-0.674 1.565,-0.759 2.227,-0.208 0.767,0.568 0.933,1.585 0.407,2.337 l -0.008,0.012 c -0.324,0.485 -0.678,0.957 -1.052,1.4 l -0.408,0.506 c -1.118,1.414 -2.235,2.824 -3.376,4.265 l -4.23,5.337 3.953,0.563 c 1.01,0.145 1.96,0.281 2.913,0.411 1.445,0.196 1.874,0.648 2.096,1.315 0.213,0.635 0.146,1.205 -0.823,2.242 C 11.477,5.757 10.503,6.814 9.534,7.876 8.366,9.15 7.041,10.596 5.725,11.988 4.554,13.227 3.315,14.473 2.258,15.529 1.853,15.934 1.45,16.34 1.047,16.747 H 0.141 c -0.755,-0.514 -1.195,-1.021 -1.278,-1.475 0.026,-0.796 0.389,-1.541 1.001,-2.052 l 0.06,-0.057 C 1.383,11.58 2.844,9.995 4.358,8.341 L 8.07,4.297 5.801,3.946 C 5.239,3.863 4.71,3.789 4.198,3.718 3.163,3.574 2.185,3.437 1.232,3.267 L 1.164,3.258 C 0.416,3.208 -0.261,2.771 -0.618,2.114 -0.792,1.378 -0.575,0.593 -0.044,0.051 Z"
                       style="fill:#ffffff;fill-opacity:1;fill-rule:nonzero;stroke:none"
                       id="path866" />
                  </g>
                  <g
                     id="g868"
                     transform="translate(-34.819925,0.36928446)"
                     clip-path="url(#clipPath4408)">
                    <path
                       d="m 0,0 c 0.354,-0.298 0.806,-0.445 1.276,-0.404 0.467,0.039 0.891,0.258 1.194,0.617 0.06,0.07 0.113,0.144 0.16,0.222 l 0.063,0.087 c 0.109,0.126 0.211,0.255 0.314,0.385 l 2.841,3.579 c 2.348,2.952 4.693,5.907 7.035,8.867 l 0.056,0.062 c 0.622,0.602 0.9,1.489 0.739,2.336 -0.465,0.725 -1.276,1.178 -2.141,1.188 l -0.082,0.006 -6.467,0.928 4.796,5.224 c 1.139,1.242 2.25,2.454 3.362,3.656 l 0.058,0.055 c 0.601,0.503 0.962,1.233 0.999,2.014 -0.204,0.65 -0.648,1.196 -1.242,1.526 h -1.012 l -0.17,-0.139 C 11.44,29.952 11.134,29.683 10.854,29.397 8.92,27.313 6.98,25.211 5.046,23.104 3.505,21.429 1.963,19.756 0.419,18.084 L 0.361,18.029 c -0.576,-0.482 -0.8,-1.255 -0.571,-1.97 0.225,-0.695 0.868,-1.185 1.6,-1.216 0.658,-0.09 1.255,-0.179 1.86,-0.27 0.558,-0.084 1.123,-0.169 1.702,-0.251 L 8.611,13.766 7.033,11.644 C 6.802,11.329 6.606,11.063 6.4,10.803 5.667,9.878 4.931,8.951 4.194,8.026 2.802,6.278 1.365,4.47 -0.031,2.681 L -0.087,2.619 C -0.787,1.933 -0.799,0.806 -0.113,0.106 -0.078,0.07 -0.04,0.034 0,0"
                       style="fill:#ffffff;fill-opacity:1;fill-rule:nonzero;stroke:none"
                       id="path870" />
                  </g>
                  <path
                     d="m 0,0 c 0.121,0.394 0.078,0.825 -0.119,1.187 -0.27,0.597 -0.818,0.951 -1.423,0.951 -0.01,0 -0.02,0 -0.03,0 -0.423,-0.01 -0.849,-0.116 -1.23,-0.305 -2.518,-1.191 -5.023,-2.38 -7.524,-3.578 l -6.563,-3.117 c -0.708,-0.246 -1.185,-0.888 -1.216,-1.636 -0.027,-0.744 0.397,-1.422 1.079,-1.726 1.062,-0.593 2.056,-1.173 3.106,-1.788 l 3.202,-1.863 -2.299,-1.39 c -0.325,-0.199 -0.608,-0.37 -0.893,-0.535 l -3.661,-2.099 c -1.754,-1.002 -3.551,-2.03 -5.315,-3.052 -0.576,-0.291 -0.995,-0.779 -1.183,-1.357 -0.085,-0.369 -0.009,-0.816 0.222,-1.178 0.482,-0.849 1.527,-1.137 2.347,-0.674 0.063,0.036 0.124,0.076 0.183,0.12 l 0.067,0.044 c 4.425,2.496 9.579,5.411 14.758,8.42 0.662,0.316 1.08,0.913 1.144,1.589 -0.064,0.735 -0.509,1.393 -1.169,1.725 -0.887,0.537 -1.753,1.039 -2.678,1.572 l -3.411,1.987 4.925,2.347 c 2.172,1.03 4.222,2.007 6.287,3.011 C -0.751,-1.083 -0.257,-0.599 0,0"
                     style="fill:#ffffff;fill-opacity:1;fill-rule:nonzero;stroke:none"
                     id="path874" />
                </g>
              </g>
            </g>
          </g>
        </g>
      </g>
      <g
         id="g11040">
        <text
           xml:space="preserve"
           transform="scale(1,-1)"
           style="font-variant:normal;font-weight:normal;font-stretch:normal;font-size:34.7935px;font-family:'Museo Sans Rounded 500';-inkscape-font-specification:MuseoSansRounded-500;writing-mode:lr-tb;fill:#ffffff;fill-opacity:1;fill-rule:nonzero;stroke:none"
           id="text918"
           x="595.02588"
           y="-1022.7822"><tspan
             x="595.02588 621.15582 641.57959 649.82568 658.80237 670.70178"
             y="-1022.7822"
             sodipodi:role="line"
             id="tspan916">Guilty</tspan></text>
        <g
           id="g11016">
          <g
             id="g9680">
            <g
               id="g936"
               transform="translate(616.8261,1202.2074)"
               clip-path="url(#clipPath4923)">
              <path
                 d="m 0,0 c 0.216,-1.688 0.881,-3.315 1.92,-4.688 3.286,-4.336 9.487,-5.19 13.824,-1.906 2.858,2.142 4.388,5.673 3.997,9.218 l -0.004,0.069 c 0,0.343 0.003,0.661 0.006,0.962 0.007,0.586 0.012,1.091 -0.009,1.596 l -0.001,0.037 0.002,0.037 c 0.004,0.05 0.006,0.101 0.005,0.152 -0.015,0.871 -0.73,1.57 -1.599,1.57 -0.009,0 -0.018,0 -0.028,0 C 18.073,7.046 18.026,7.043 17.979,7.037 17.55,6.989 17.17,6.778 16.904,6.444 16.638,6.11 16.518,5.693 16.566,5.268 L 16.571,5.228 16.57,5.188 C 16.562,4.667 16.565,4.142 16.569,3.617 16.574,2.871 16.579,2.1 16.549,1.336 16.627,-2.221 13.766,-5.24 10.172,-5.356 10.119,-5.363 10.026,-5.369 9.933,-5.374 8.198,-5.463 6.54,-4.876 5.252,-3.716 3.964,-2.557 3.205,-0.964 3.114,0.766 3.009,1.688 3.014,2.656 3.018,3.593 3.02,4.128 3.023,4.665 3.004,5.198 2.986,5.754 2.797,7.045 1.455,7.045 H 1.44 C 1.38,7.045 1.323,7.042 1.267,7.037 0.401,6.95 -0.234,6.172 -0.147,5.303 L -0.143,5.259 -0.145,5.214 C -0.218,3.481 -0.169,1.726 0,0"
                 style="fill:#ffffff;fill-opacity:1;fill-rule:nonzero;stroke:none"
                 id="path938" />
            </g>
            <g
               id="g940"
               transform="translate(648.3266,1209.2554)"
               clip-path="url(#clipPath4917)">
              <path
                 d="m 0,0 h -0.007 l -0.072,-0.001 c -0.418,-0.012 -0.81,-0.188 -1.1,-0.496 -0.29,-0.307 -0.443,-0.709 -0.43,-1.131 -0.001,-0.017 -0.002,-0.033 -0.003,-0.049 v -2.169 c 0,-0.236 -0.004,-0.47 -0.008,-0.705 -0.008,-0.458 -0.016,-0.892 0.007,-1.325 0.038,-5.02 3.812,-9.156 8.781,-9.647 5.023,-0.742 9.714,2.556 10.713,7.502 0.333,2.104 0.451,4.278 0.344,6.436 0.002,0.108 10e-4,0.164 -0.004,0.219 -0.064,0.822 -0.788,1.438 -1.604,1.375 L 16.536,0.003 C 16.118,-0.034 15.74,-0.231 15.471,-0.552 15.201,-0.873 15.073,-1.28 15.11,-1.698 l 0.003,-0.038 -10e-4,-0.039 c -0.019,-0.548 -0.015,-1.097 -0.01,-1.645 0.007,-0.873 0.014,-1.775 -0.073,-2.669 -10e-4,-0.121 -0.012,-0.29 -0.028,-0.458 -0.175,-1.737 -1.016,-3.302 -2.367,-4.406 -1.352,-1.104 -3.052,-1.617 -4.788,-1.442 -1.77,0.087 -3.393,0.856 -4.579,2.165 -1.185,1.309 -1.789,3.001 -1.702,4.765 -0.009,0.498 -0.006,1.036 -0.003,1.576 0.004,0.723 0.009,1.471 -0.018,2.199 l 0.003,0.153 C 1.543,-0.689 0.85,0 0,0"
                 style="fill:#ffffff;fill-opacity:1;fill-rule:nonzero;stroke:none"
                 id="path942" />
            </g>
            <g
               id="g944"
               transform="translate(651.0835,1179.8337)"
               clip-path="url(#clipPath4911)">
              <path
                 d="M 0,0 C 0.264,0.357 0.372,0.794 0.307,1.232 0.241,1.669 0.009,2.055 -0.347,2.319 l -0.064,0.054 c -2.394,2.328 -5.684,3.633 -9.02,3.555 h -0.026 c -0.086,0.002 -0.171,0.003 -0.257,0.003 -3.251,0 -6.434,-1.288 -8.769,-3.556 l -0.07,-0.058 c -0.049,-0.035 -0.096,-0.073 -0.14,-0.114 -0.67,-0.611 -0.718,-1.654 -0.107,-2.324 l 0.056,-0.052 c 0.664,-0.603 1.698,-0.553 2.303,0.113 l 0.061,0.058 c 4.49,3.769 9.274,3.779 13.835,0.028 l 0.071,-0.067 c 0.045,-0.052 0.094,-0.1 0.146,-0.146 0.33,-0.287 0.75,-0.426 1.187,-0.399 0.435,0.03 0.833,0.228 1.12,0.557 z"
                 style="fill:#ffffff;fill-opacity:1;fill-rule:nonzero;stroke:none"
                 id="path946" />
            </g>
            <g
               id="g948"
               transform="translate(637.5479,1221.6847)"
               clip-path="url(#clipPath4905)">
              <path
                 d="m 0,0 c -0.291,0.373 -0.727,0.568 -1.168,0.568 -0.319,0 -0.641,-0.102 -0.911,-0.313 -2.336,-1.621 -5.034,-2.605 -7.831,-2.866 -0.104,-0.004 -0.16,-0.007 -0.215,-0.014 -0.81,-0.098 -1.389,-0.837 -1.291,-1.648 0.077,-0.884 0.811,-1.523 1.677,-1.471 h 0.001 c 3.428,0.189 6.694,1.376 9.444,3.43 0.726,0.511 0.892,1.458 0.411,2.143 C 0.067,-0.092 0.035,-0.045 0,0"
                 style="fill:#ffffff;fill-opacity:1;fill-rule:nonzero;stroke:none"
                 id="path950" />
            </g>
            <g
               id="g952"
               transform="translate(646.7379,1221.5438)"
               clip-path="url(#clipPath4899)">
              <path
                 d="M 0,0 C -0.056,-0.081 -0.092,-0.139 -0.123,-0.201 -0.514,-0.956 -0.218,-1.89 0.539,-2.283 L 0.616,-2.33 C 3.335,-4.283 6.538,-5.416 9.88,-5.605 l 0.07,-0.004 c 0.386,-0.011 0.766,0.124 1.056,0.393 0.29,0.268 0.458,0.633 0.474,1.028 0.085,1.064 -0.444,1.622 -1.617,1.735 -2.695,0.267 -5.297,1.218 -7.528,2.751 L 2.28,0.34 C 2.223,0.389 2.162,0.435 2.097,0.476 1.847,0.634 1.566,0.709 1.289,0.709 0.784,0.709 0.289,0.458 0,0"
                 style="fill:#ffffff;fill-opacity:1;fill-rule:nonzero;stroke:none"
                 id="path954" />
            </g>
            <g
               id="g5698">
              <g
                 id="g928"
                 transform="translate(659.3901,1167.1262)"
                 clip-path="url(#clipPath4935)">
                <path
                   d="m 0,0 c -5.406,-3.04 -11.511,-4.593 -17.657,-4.593 -3.693,-0.001 -7.4,0.56 -10.983,1.695 -9.236,2.926 -16.85,9.465 -20.89,17.94 -2.472,5.227 -3.764,11.043 -3.738,16.824 -0.013,5.077 -0.008,10.159 -0.004,15.241 l 0.004,7.622 c 0,4.039 0.343,4.524 4.074,5.769 4.758,1.435 8.526,5.092 10.097,9.788 0.26,0.73 0.479,1.482 0.71,2.278 0.118,0.409 0.241,0.831 0.376,1.274 l 0.296,0.973 0.734,-0.704 c 5.863,-5.617 13.199,-5.763 19.601,-5.166 4.319,0.609 8.667,-0.745 11.899,-3.718 2.984,-2.74 5.988,-5.261 9.918,-6.003 2.993,-0.515 6.061,-0.821 9.108,-0.908 3.172,-0.14 4.404,-1.346 4.404,-4.301 0.003,-2.206 0.021,-4.413 0.04,-6.62 0.043,-5.138 0.088,-10.451 -0.079,-15.675 -0.099,-3.078 -0.443,-5.983 -1.033,-8.709 h 3.563 c 0.288,4.349 0.563,8.503 0.838,12.751 l 0.036,0.561 0.562,0.023 c 3,0.13 5.831,-1.517 7.225,-4.17 1.414,-2.543 1.035,-5.704 -0.95,-7.853 -1.681,-2.165 -4.548,-3.181 -7.27,-2.544 l -4.066,0.949 C 14.562,12.642 8.93,5.022 0,0 m -9.722,-17.049 c -1.522,-3.06 -4.66,-4.942 -7.991,-4.942 -0.554,0 -1.114,0.052 -1.672,0.159 -3.917,0.762 -6.863,4.071 -7.165,8.048 -0.106,1.358 -0.081,2.709 -0.054,4.139 0.012,0.654 0.025,1.325 0.025,2.016 v 0.625 l 0.755,-0.013 c 5.398,-1.138 10.87,-1.137 16.268,0.003 l 0.797,0.169 -0.044,-0.814 c -0.049,-0.91 -0.017,-1.839 0.014,-2.738 0.076,-2.193 0.155,-4.46 -0.933,-6.652 M -56.297,21.89 c -0.621,-0.176 -1.252,-0.262 -1.875,-0.262 -2.04,0 -4.008,0.913 -5.331,2.557 -1.98,2.263 -2.342,5.584 -0.883,8.243 1.347,2.631 4.244,4.182 7.194,3.832 l 0.519,-0.061 0.032,-0.522 c 0.263,-4.323 0.525,-8.654 0.797,-13.148 l 0.03,-0.502 z m 87.222,-52.787 c 2.406,-0.014 4.894,-0.029 7.335,0.028 1.122,-0.033 2.192,0.116 3.226,0.443 5.045,1.598 7.849,7.003 6.251,12.048 -0.515,1.713 -1.168,3.385 -1.944,4.981 -1.52,3.236 -1.586,6.969 -0.184,10.248 0.197,0.486 0.403,0.98 0.609,1.474 0.303,0.728 0.606,1.455 0.896,2.189 2.342,5.304 3.171,11.118 2.406,16.838 -0.89,4.762 -2.749,9.227 -5.522,13.239 -4.65,7.183 -6.721,15.808 -5.84,24.302 1.026,13.608 -3.578,25.928 -13.686,36.599 -0.516,0.545 -1.031,0.835 -1.489,0.84 -0.384,0.014 -0.727,-0.176 -1.077,-0.53 -0.251,-0.257 -1.02,-1.041 0.304,-2.54 0.322,-0.365 0.648,-0.726 0.974,-1.088 0.92,-1.018 1.871,-2.072 2.715,-3.195 6.911,-8.747 10.14,-19.691 9.083,-30.804 -0.915,-8.577 1.172,-17.274 5.875,-24.496 1.192,-1.893 2.286,-3.864 3.257,-5.865 2.43,-4.525 3.191,-9.812 2.13,-14.863 -0.84,-3.474 -1.955,-6.887 -3.319,-10.165 -2.022,-4.505 -1.937,-9.614 0.228,-14.034 0.608,-1.198 1.13,-2.464 1.547,-3.753 0.21,-0.532 0.349,-1.128 0.401,-1.737 0.291,-3.452 -2.28,-6.497 -5.732,-6.788 -3.234,-0.222 -6.53,-0.17 -9.718,-0.12 -1.41,0.022 -2.825,0.044 -4.246,0.044 h -0.537 l -0.08,0.532 C 23.099,-15.844 17.179,-5.893 8.119,0.95 L 7.58,1.358 8.029,1.864 c 0.081,0.09 0.147,0.169 0.205,0.237 0.123,0.145 0.218,0.254 0.323,0.351 4.465,4.087 7.923,9.247 10.002,14.925 0.529,1.435 1.591,1.295 2.293,1.205 l 0.084,-0.011 c 5.729,-0.767 11.003,3.088 12.012,8.774 0.833,5.641 -2.908,10.939 -8.521,12.045 -0.57,0.117 -1.164,0.166 -1.793,0.216 -0.311,0.026 -0.627,0.051 -0.948,0.086 l -0.559,0.059 v 0.562 c 0,1.587 0.003,3.161 0.005,4.726 0.005,3.103 0.009,6.172 -0.005,9.24 0.019,0.349 0.015,0.665 -0.011,0.977 -0.149,1.814 -0.996,3.462 -2.384,4.639 -1.389,1.177 -3.151,1.745 -4.967,1.594 -2.078,-0.035 -4.136,0.073 -6.157,0.322 -3.968,0.527 -7.678,2.401 -10.451,5.278 -3.65,3.844 -8.964,5.722 -14.215,5.034 -2.252,-0.224 -4.518,-0.267 -6.753,-0.129 -6.201,0.337 -10.244,2.558 -12.717,6.99 -0.512,0.954 -1.672,1.344 -2.648,0.894 -1.026,-0.457 -1.65,-1.471 -1.597,-2.585 l 0.002,-0.048 -0.005,-0.048 c -0.841,-8.017 -4.28,-12.515 -10.821,-14.155 -0.123,-0.037 -0.27,-0.097 -0.411,-0.17 l -0.07,-0.031 c -2.764,-1.023 -4.53,-3.689 -4.393,-6.634 0.046,-3.356 0.035,-6.747 0.025,-10.026 -0.005,-1.439 -0.009,-2.878 -0.009,-4.317 v -2.19 l -1.072,-0.072 c -0.231,-0.017 -0.413,-0.031 -0.595,-0.038 l -0.146,-0.007 c -2.86,-0.14 -5.493,-1.387 -7.415,-3.51 -1.923,-2.122 -2.903,-4.865 -2.762,-7.725 0.015,-0.186 0.036,-0.389 0.064,-0.591 0.383,-2.826 1.845,-5.335 4.116,-7.064 2.27,-1.728 5.078,-2.471 7.906,-2.084 1.328,0.186 2.057,-0.235 2.51,-1.455 2.013,-5.383 5.285,-10.314 9.464,-14.258 0.251,-0.24 0.463,-0.494 0.603,-0.662 l 0.49,-0.551 -0.408,-0.419 c -0.772,-0.794 -1.539,-1.573 -2.299,-2.345 -1.763,-1.792 -3.428,-3.484 -5.07,-5.252 -0.521,-0.562 -0.776,-1.11 -0.737,-1.586 0.03,-0.386 0.254,-0.743 0.664,-1.063 0.733,-0.575 1.308,-0.619 2.58,0.675 1.519,1.543 3.113,3.06 4.654,4.525 0.782,0.745 1.564,1.488 2.34,2.238 0.917,0.885 1.76,0.612 2.533,0.185 2.368,-1.3 4.958,-2.621 7.918,-4.039 0.873,-0.279 1.432,-1.131 1.336,-2.047 -0.037,-1.853 -0.063,-3.899 0.014,-5.962 0.191,-6.466 5.585,-11.695 12.041,-11.695 h 0.125 c 6.497,0 11.858,5.267 11.965,11.763 0.027,0.898 0.024,1.808 0.021,2.688 -0.004,1.058 -0.008,2.152 0.04,3.231 0.063,0.743 0.436,1.389 1.025,1.802 l 0.074,0.044 c 2.3,1.173 4.603,2.279 7.04,3.45 l 2.622,1.263 0.301,-0.215 c 7.092,-5.065 12.377,-12.452 14.88,-20.801 1.507,-5.667 2.074,-11.489 1.691,-17.322 -0.134,-0.969 0.303,-1.887 1.092,-2.371 l 1.091,0.009 c 0.751,0.555 1.148,1.487 1.02,2.42 l -0.005,0.069 c -0.045,1.761 -0.036,3.489 -0.027,5.318 0.004,0.749 0.008,1.505 0.008,2.27 v 0.625 h 2.41 c 1.093,0 2.185,-0.006 3.278,-0.012"
                   style="fill:#ffffff;fill-opacity:1;fill-rule:nonzero;stroke:none"
                   id="path930" />
              </g>
              <g
                 id="g932"
                 transform="translate(673.7056,1264.8228)"
                 clip-path="url(#clipPath4929)">
                <path
                   d="m 0,0 c 0.008,0.014 0.027,0.049 0.045,0.085 0.402,0.795 0.082,1.768 -0.713,2.17 -0.709,0.447 -1.424,0.857 -2.179,1.251 -14.606,7.723 -32,9.254 -47.728,4.202 -9.722,-2.754 -18.462,-8.125 -25.294,-15.541 -8.877,-9.542 -13.296,-22.457 -12.128,-35.436 0.734,-6.545 -0.379,-13.162 -3.22,-19.121 -1.283,-2.466 -2.692,-4.839 -3.904,-6.837 -5.437,-8.404 -6.074,-19.186 -1.671,-28.155 2.79,-6.091 2.796,-11.321 0.025,-16.477 -0.899,-1.818 -1.311,-3.869 -1.182,-5.915 0.276,-5.021 4.47,-8.724 9.973,-8.809 2.436,-0.036 4.919,-0.026 7.319,-0.018 1.099,0.004 2.198,0.009 3.297,0.009 h 2.271 v -0.625 c 0,-0.804 0.004,-1.589 0.008,-2.361 0.009,-1.852 0.018,-3.6 -0.027,-5.367 -0.098,-0.95 0.29,-1.819 1.015,-2.349 l 1.371,-0.003 c 0.679,0.577 1.045,1.463 0.962,2.357 -0.039,6.857 0.153,14.077 2.86,20.989 0.095,0.592 -0.069,1.193 -0.453,1.654 -0.166,0.168 -0.419,0.312 -0.698,0.379 -0.816,0.201 -1.646,-0.303 -1.846,-1.123 -0.768,-2.291 -1.431,-4.513 -2.133,-6.865 -0.29,-0.975 -0.583,-1.955 -0.883,-2.941 l -0.135,-0.442 H -89.27 c -0.229,0.012 -0.42,0.044 -0.605,0.097 -3.37,0.732 -5.554,4.111 -4.832,7.523 0.434,1.63 1.019,3.193 1.747,4.677 1.744,3.574 2.095,7.648 0.987,11.47 -0.321,1.091 -0.728,2.19 -1.122,3.254 -0.393,1.064 -0.801,2.165 -1.131,3.28 -0.948,2.724 -1.679,5.578 -2.164,8.455 -0.683,5.662 0.911,11.175 5.012,17.379 5.086,7.557 7.437,16.71 6.624,25.777 -0.362,3.668 -0.245,7.378 0.347,11.024 2.33,13.592 10.588,25.2 22.659,31.853 15.569,8.962 32.634,10.352 50.712,4.124 2.997,-1.201 5.931,-2.577 8.75,-4.099 C -1.495,-0.968 -0.486,-0.747 0,0"
                   style="fill:#ffffff;fill-opacity:1;fill-rule:nonzero;stroke:none"
                   id="path934" />
              </g>
            </g>
          </g>
          <g
             id="g956"
             transform="translate(779.1519,1200.4935)"
             clip-path="url(#clipPath4893)">
            <g
               id="g9683">
              <path
                 d="m 0,0 c 0,-75.969 -61.585,-137.554 -137.554,-137.554 -75.97,0 -137.555,61.585 -137.555,137.554 0,75.969 61.585,137.555 137.555,137.555 C -61.585,137.555 0,75.969 0,0 Z"
                 style="fill:none;stroke:#f68e1e;stroke-width:4;stroke-linecap:butt;stroke-linejoin:miter;stroke-miterlimit:10;stroke-dasharray:none;stroke-opacity:1"
                 id="path958" />
            </g>
          </g>
        </g>
      </g>
      <g
         id="g10925">
        <text
           xml:space="preserve"
           transform="scale(1,-1)"
           style="font-variant:normal;font-weight:normal;font-stretch:normal;font-size:34.7935px;font-family:'Museo Sans Rounded 500';-inkscape-font-specification:MuseoSansRounded-500;writing-mode:lr-tb;fill:#ffffff;fill-opacity:1;fill-rule:nonzero;stroke:none"
           id="text918-9"
           x="438.88367"
           y="-686.54504"><tspan
             x="438.88367"
             y="-686.54504"
             sodipodi:role="line"
             id="tspan916-0">Angry</tspan></text>
        <g
           id="g9755">
          <g
             id="g9727">
            <g
               id="g976"
               transform="translate(474.2759,842.7566)"
               clip-path="url(#clipPath4863)">
              <path
                 d="M 0,0 C 0.021,0.066 0.041,0.147 0.053,0.229 0.117,0.642 0.017,1.054 -0.23,1.391 -0.477,1.728 -0.84,1.949 -1.252,2.013 l -0.069,0.015 c -2.98,0.819 -6.014,1.624 -9.018,2.393 l -0.069,0.022 c -0.064,0.025 -0.129,0.046 -0.196,0.062 -0.118,0.029 -0.236,0.043 -0.353,0.043 -0.674,0 -1.289,-0.461 -1.456,-1.145 -0.017,-0.063 -0.028,-0.115 -0.036,-0.168 -0.133,-0.837 0.44,-1.627 1.277,-1.76 l 0.083,-0.019 c 0.777,-0.237 1.562,-0.452 2.22,-0.632 l 1.17,-0.325 V 0.036 c 0,-0.636 -0.004,-1.253 -0.008,-1.858 -0.008,-1.179 -0.015,-2.292 0.008,-3.409 0.017,-0.712 0.243,-1.91 1.563,-1.91 1.241,0 1.52,1.037 1.534,1.907 0.013,0.877 0.009,1.755 0.004,2.664 -0.002,0.47 -0.004,0.947 -0.004,1.436 v 0.779 l 2.549,-0.64 c 0.404,-0.14 0.842,-0.115 1.231,0.072 C -0.434,-0.735 -0.142,-0.407 0,0"
                 style="fill:#ffffff;fill-opacity:1;fill-rule:nonzero;stroke:none"
                 id="path978" />
            </g>
            <g
               id="g980"
               transform="translate(519.347,843.397)"
               clip-path="url(#clipPath4857)">
              <path
                 d="M 0,0 C 0.275,0.076 0.576,0.154 0.894,0.237 1.633,0.428 2.469,0.645 3.275,0.915 L 3.367,0.943 C 4.126,1.196 4.539,2.019 4.286,2.778 L 4.266,2.854 C 4.259,2.888 4.252,2.921 4.242,2.954 4.148,3.298 3.925,3.584 3.616,3.76 3.306,3.936 2.946,3.981 2.602,3.887 -0.409,3.153 -3.58,2.307 -7.107,1.297 L -7.192,1.273 c -0.76,-0.244 -1.179,-1.059 -0.936,-1.817 0.225,-0.833 1.029,-1.312 1.843,-1.117 0.438,0.081 0.855,0.193 1.297,0.313 0.227,0.061 0.463,0.124 0.711,0.186 l 0.759,0.192 v -0.784 c 0,-0.49 -0.003,-0.966 -0.006,-1.432 -0.008,-1.044 -0.015,-2.03 0.018,-3.011 v -0.011 l -0.001,-0.069 c -0.013,-0.814 0.632,-1.478 1.437,-1.491 l 0.12,-0.006 c 0.382,-0.021 0.753,0.13 1.03,0.395 0.278,0.264 0.436,0.621 0.445,1.003 0.07,1.283 0.056,2.565 0.041,3.923 -0.007,0.603 -0.014,1.223 -0.014,1.864 v 0.465 z"
                 style="fill:#ffffff;fill-opacity:1;fill-rule:nonzero;stroke:none"
                 id="path982" />
            </g>
            <g
               id="g984"
               transform="translate(485.3092,832.822)"
               clip-path="url(#clipPath4851)">
              <path
                 d="m 0,0 c 0.325,-0.259 0.733,-0.376 1.147,-0.33 0.415,0.047 0.787,0.252 1.047,0.578 L 2.26,0.319 c 1.679,1.528 3.414,2.292 5.157,2.292 1.758,0 3.524,-0.777 5.25,-2.33 L 12.73,0.216 c 0.034,-0.041 0.069,-0.081 0.108,-0.118 0.294,-0.291 0.697,-0.473 1.092,-0.445 0.41,0.002 0.796,0.165 1.084,0.457 0.049,0.049 0.089,0.092 0.125,0.137 0.533,0.655 0.433,1.622 -0.223,2.154 l -0.065,0.062 c -1.896,2.071 -4.6,3.242 -7.402,3.221 H 7.438 C 4.657,5.731 1.984,4.559 0.095,2.523 L 0.02,2.455 C -0.048,2.403 -0.111,2.347 -0.169,2.285 -0.454,1.981 -0.604,1.586 -0.591,1.172 -0.578,0.757 -0.404,0.373 -0.102,0.088 -0.068,0.057 -0.035,0.027 0,0"
                 style="fill:#ffffff;fill-opacity:1;fill-rule:nonzero;stroke:none"
                 id="path986" />
            </g>
            <g
               id="g5725">
              <g
                 id="g960"
                 transform="translate(545.1227,854.4885)"
                 clip-path="url(#clipPath4887)">
                <path
                   d="m 0,0 c 6.37,-0.222 12.784,-6.593 12.948,-12.861 0.174,-6.712 -5.837,-13.132 -12.864,-13.74 l -0.762,-0.066 0.404,2.931 c 0.344,2.513 0.669,4.887 1.04,7.31 l 0.018,0.081 c 0.163,0.551 0.583,0.998 1.121,1.197 l 0.092,0.025 c 0.772,0.154 1.563,0.261 2.352,0.32 0.839,0.051 1.503,0.743 1.519,1.577 -0.019,0.425 -0.199,0.811 -0.507,1.092 -0.308,0.282 -0.706,0.424 -1.124,0.409 H 4.229 c -0.578,0 -1.131,-0.06 -1.716,-0.123 -0.277,-0.029 -0.555,-0.059 -0.835,-0.083 L 1.11,-11.979 -0.737,0.026 Z m -4.935,-1.003 c -4.825,0.348 -9.612,1.267 -14.225,2.734 -12.203,3.553 -23.58,10.018 -32.887,18.694 -1.099,1.05 -1.695,1.027 -2.905,-0.107 -9.949,-9.389 -22.206,-16.179 -35.445,-19.633 -2.035,-0.539 -4.106,-0.913 -6.299,-1.309 -1.02,-0.183 -2.066,-0.372 -3.149,-0.585 l -0.984,-0.194 0.28,0.963 c 1.711,5.894 4.58,11.266 8.525,15.966 7.996,9.809 19.316,16.134 31.869,17.8 16.381,2.376 28.646,-2.851 36.051,-7.655 9.623,-6.244 16.84,-15.683 19.8,-25.895 l 0.244,-0.842 z m -100.917,-10.962 -0.571,0.051 c -0.226,0.02 -0.461,0.045 -0.702,0.071 -0.518,0.054 -1.053,0.111 -1.582,0.127 l -0.073,0.007 c -0.029,0.004 -0.058,0.007 -0.088,0.01 -0.43,0.039 -0.847,-0.095 -1.175,-0.372 -0.329,-0.276 -0.53,-0.665 -0.566,-1.092 v -0.044 c 0.006,-0.891 0.729,-1.608 1.614,-1.608 h 0.01 l 0.068,-0.004 c 2.908,-0.306 3.142,-0.528 3.575,-3.393 l 0.014,-0.096 c 0.265,-1.75 0.561,-3.465 0.875,-5.281 0.106,-0.616 0.214,-1.236 0.32,-1.863 l 0.088,-0.009 v -0.552 l -0.617,-0.055 -0.055,-0.552 c -6.852,0.694 -12.797,6.592 -12.982,12.88 -0.174,6.64 5.364,12.593 12.882,13.849 l 0.832,0.139 z m 91.284,-36.736 c 0.083,0.072 0.16,0.15 0.237,0.227 l 0.154,0.153 c 4.892,4.716 8.695,10.29 11.305,16.565 0.31,1.009 1.221,1.717 2.278,1.766 3.532,0.445 6.96,1.816 9.865,3.961 3.903,2.873 6.299,6.883 6.747,11.291 0.427,4.2 -0.985,8.34 -3.976,11.657 -3.117,3.469 -7.379,5.723 -12.001,6.348 -1.477,0.099 -2.796,1.145 -3.24,2.6 -2.572,6.143 -6.393,11.595 -11.337,16.147 -14.508,13.308 -31.54,17.833 -50.623,13.447 -16.643,-3.422 -30.399,-14.848 -36.813,-30.567 -0.546,-1.246 -1.48,-1.377 -2.231,-1.483 -3.103,-0.439 -6.004,-1.5 -8.642,-3.157 -4.121,-2.559 -6.862,-6.374 -7.719,-10.744 -0.792,-4.033 0.143,-8.144 2.632,-11.576 3.324,-4.442 8.399,-7.342 13.923,-7.953 0.908,-0.02 1.699,-0.578 2.022,-1.43 7.104,-16.159 19.724,-26.526 37.497,-30.783 1.819,-0.435 3.719,-0.71 5.555,-0.976 0.858,-0.124 1.716,-0.248 2.571,-0.388 l 7.961,-0.015 c 0.096,0.024 0.192,0.05 0.288,0.077 0.208,0.057 0.416,0.114 0.627,0.155 4.029,0.573 8.03,1.395 11.924,2.448 4.087,1.512 8.165,3.336 12.066,5.406 l 0.062,0.028 c 0.299,0.118 0.548,0.325 0.719,0.598 0.441,0.702 0.229,1.633 -0.473,2.074 -0.696,0.393 -1.6,0.299 -2.223,-0.248 l -0.086,-0.062 c -6.735,-4.095 -14.452,-6.56 -22.317,-7.128 -18.256,-1.258 -33.182,4.949 -44.37,18.443 -8.465,9.985 -11.991,23.107 -9.669,35.997 0.17,1.154 0.703,1.643 1.896,1.726 1.749,0.109 3.504,0.327 5.222,0.649 14.723,2.868 28.468,9.615 39.745,19.514 0.242,0.207 0.483,0.401 0.728,0.599 0.157,0.126 0.315,0.254 0.475,0.385 l 0.408,0.338 0.392,-0.357 c 4.942,-4.502 10.452,-8.354 16.377,-11.447 9.202,-5.016 19.129,-8.223 29.517,-9.536 0.194,-0.022 0.408,-0.042 0.628,-0.061 1.216,-0.11 2.595,-0.235 3.227,-1.069 l 0.069,-0.116 c 0.588,-1.297 0.842,-2.73 0.737,-4.149 1.062,-11.813 -2.512,-23.351 -10.068,-32.495 -0.863,-1.068 -1.826,-2.08 -2.757,-3.058 -0.517,-0.544 -1.035,-1.089 -1.539,-1.644 l -0.056,-0.055 c -0.029,-0.025 -0.058,-0.052 -0.085,-0.078 -0.588,-0.582 -0.593,-1.534 -0.012,-2.122 0.029,-0.028 0.055,-0.053 0.081,-0.076 0.653,-0.587 1.661,-0.532 2.247,0.12 z"
                   style="fill:#ffffff;fill-opacity:1;fill-rule:nonzero;stroke:none"
                   id="path962" />
              </g>
              <g
                 id="g964"
                 transform="translate(462.4172,916.8212)"
                 clip-path="url(#clipPath4881)">
                <path
                   d="M 0,0 C -0.786,2.055 -1.877,1.703 -2.235,1.584 -2.627,1.456 -2.89,1.249 -3.038,0.951 -3.261,0.5 -3.228,-0.172 -2.942,-0.993 c 2.083,-5.285 -0.492,-11.406 -5.749,-13.622 -0.99,-0.34 -1.586,-1.266 -1.488,-2.266 0.041,-2.085 0.033,-4.152 0.025,-6.152 -0.004,-0.841 -0.007,-1.681 -0.007,-2.522 0.161,-1.237 -0.516,-2.448 -1.657,-2.959 -1.195,-0.479 -2.533,-0.104 -3.293,0.899 -1.149,1.193 -2.359,2.382 -3.427,3.432 -1.181,1.173 -1.459,1.212 -2.969,0.427 -5.035,-2.768 -11.245,-1.707 -15.089,2.582 -3.879,4.151 -4.349,10.569 -1.109,15.252 0.531,0.82 0.65,1.878 0.31,2.813 -0.536,1.864 -0.706,3.745 -0.519,5.631 0.676,4.355 4.013,7.807 8.309,8.626 4.311,0.983 8.791,-0.891 11.127,-4.673 0.464,-0.945 1.5,-1.377 2.438,-1.057 1.988,0.58 4.069,0.6 6.041,0.064 0.094,-0.031 0.146,-0.046 0.2,-0.058 0.403,-0.093 0.819,-0.024 1.17,0.195 0.35,0.219 0.594,0.562 0.688,0.965 0.029,0.109 0.045,0.196 0.053,0.282 0.035,0.392 -0.083,0.773 -0.334,1.074 -0.252,0.301 -0.605,0.486 -0.995,0.521 -1.062,0.162 -2.135,0.216 -3.172,0.268 -0.786,0.04 -1.6,0.081 -2.402,0.167 -0.749,0.024 -1.523,0.317 -2.137,0.82 l -0.071,0.068 c -4.252,4.828 -11.196,6.104 -16.886,3.101 -5.713,-3.018 -8.599,-9.727 -6.861,-15.951 0.163,-0.47 0.194,-1.011 0.081,-1.532 l -0.02,-0.071 c -0.551,-1.586 -1.149,-3.182 -1.728,-4.725 l -0.559,-1.497 -0.007,-3.845 c 0.025,-0.088 0.051,-0.176 0.077,-0.263 0.079,-0.266 0.157,-0.53 0.211,-0.8 0.051,-0.271 0.109,-0.535 0.173,-0.798 0.978,-3.985 3.451,-7.352 6.962,-9.479 3.496,-2.118 7.605,-2.752 11.576,-1.793 0.703,0.302 1.441,0.446 2.171,0.446 1.778,0 3.506,-0.858 4.565,-2.397 1.501,-1.989 4.254,-2.668 6.531,-1.595 2.384,0.92 3.874,3.297 3.664,5.799 -0.002,0.686 0.003,1.322 0.007,1.958 0.01,1.498 0.02,3.048 -0.028,4.564 -0.107,1.06 0.484,2.117 1.475,2.602 C -0.036,-13.048 2.317,-6.118 0,0"
                   style="fill:#ffffff;fill-opacity:1;fill-rule:nonzero;stroke:none"
                   id="path966" />
              </g>
              <g
                 id="g968"
                 transform="translate(525.3689,913.0988)"
                 clip-path="url(#clipPath4875)">
                <path
                   d="m 0,0 c 0.391,4.467 3.598,8.169 7.979,9.196 1.854,0.308 3.691,0.291 5.499,-0.042 l 0.063,-0.015 c 0.999,-0.298 2.079,0.119 2.625,1.007 2.912,4.635 8.99,6.286 13.843,3.766 4.937,-2.493 7.133,-8.261 5.102,-13.413 -0.392,-0.92 -0.259,-1.967 0.339,-2.748 3.232,-4.749 2.767,-10.974 -1.11,-15.165 -3.812,-4.298 -10.016,-5.387 -15.076,-2.642 -1.571,0.812 -1.831,0.775 -3.076,-0.462 l -0.676,-0.668 c -0.876,-0.866 -1.782,-1.761 -2.648,-2.661 -0.546,-0.736 -1.411,-1.151 -2.3,-1.151 -0.313,0 -0.629,0.052 -0.935,0.159 -1.254,0.528 -1.959,1.789 -1.763,3.093 0.006,0.976 0.004,1.953 0.002,2.929 l -0.003,1.486 c -0.002,0.326 -0.007,0.653 -0.012,0.98 -0.016,0.966 -0.032,1.966 0.038,2.951 0.154,1.173 -0.533,2.24 -1.629,2.575 L 6.194,-10.8 C 1.964,-8.933 -0.526,-4.593 0,0 m 4.835,-20.113 c -0.024,-0.998 -0.049,-2.03 0.048,-3.013 0.165,-2.157 1.595,-3.965 3.642,-4.62 2.024,-0.838 4.301,-0.416 5.848,1.062 0.86,0.751 1.661,1.544 2.399,2.376 0.67,0.932 1.952,1.219 2.956,0.666 6.041,-2.311 12.908,-0.557 17.1,4.373 4.238,4.817 5.054,11.845 2.036,17.496 -0.4,0.853 -0.5,1.794 -0.295,2.679 1.537,6.177 -1.289,12.607 -6.87,15.647 C 26.145,19.567 19.288,18.415 15.025,13.751 14.347,12.844 13.176,12.39 12.007,12.61 6.059,13.26 0.405,9.993 -2.005,4.461 -4.508,-1.266 -3.042,-7.881 1.48,-11.284 c 2.599,-1.534 3.95,-4.535 3.377,-7.496 -0.001,-0.444 -0.012,-0.888 -0.022,-1.333"
                   style="fill:#ffffff;fill-opacity:1;fill-rule:nonzero;stroke:none"
                   id="path970" />
              </g>
              <g
                 id="g972"
                 transform="translate(508.3256,919.6861)"
                 clip-path="url(#clipPath4869)">
                <path
                   d="m 0,0 c -0.987,-4.4 -5.375,-7.243 -9.785,-6.356 -2.104,0.426 -2.247,0.351 -3.061,-1.589 -1.038,-2.48 -2.081,-4.958 -3.131,-7.435 -0.107,-0.225 -0.256,-0.321 -0.414,-0.422 -0.075,-0.048 -0.182,-0.116 -0.332,-0.223 l -0.33,0.466 -0.555,-0.266 -0.261,0.477 0.045,0.032 -1.597,3.849 c -0.198,0.483 -0.401,0.963 -0.604,1.443 -0.304,0.717 -0.607,1.434 -0.895,2.157 -0.303,0.927 -1.235,1.435 -2.139,1.193 -1.391,-0.236 -2.746,-0.25 -4.084,-0.053 -3.71,0.786 -6.321,3.951 -6.389,7.704 -0.174,3.784 2.262,7.154 5.926,8.178 1.126,0.285 2.135,0.932 2.854,1.824 0.243,0.279 0.487,0.531 0.739,0.768 4.349,4.084 11.21,3.87 15.295,-0.48 0.67,-0.682 1.523,-1.183 2.458,-1.439 C -1.836,8.791 0.923,4.472 0,0 m -4.949,12.684 c -0.774,0.258 -1.475,0.681 -2.047,1.231 -5.512,5.265 -14.342,5.122 -19.683,-0.322 -0.703,-0.699 -1.523,-1.228 -2.442,-1.577 -4.256,-1.585 -7.212,-5.532 -7.533,-10.059 -0.024,-0.359 -0.03,-0.726 -0.018,-1.086 0.192,-6.123 5.234,-10.973 11.316,-10.973 0.107,0 0.214,0.002 0.321,0.005 1.063,0.162 2.065,-0.509 2.318,-1.553 0.363,-1.016 0.8,-2.033 1.223,-3.017 0.226,-0.527 0.452,-1.054 0.67,-1.584 0.556,-1.727 2.178,-2.883 3.934,-2.826 1.798,-0.062 3.407,1.1 3.948,2.782 0.618,1.516 1.233,2.982 1.852,4.456 l 0.936,2.235 h 0.406 c 0.52,0.003 0.996,0 1.438,0.009 0.067,-10e-4 0.133,-0.002 0.2,-0.002 5.59,0 10.283,3.95 11.223,9.46 0.937,5.686 -2.529,11.199 -8.062,12.821"
                   style="fill:#ffffff;fill-opacity:1;fill-rule:nonzero;stroke:none"
                   id="path974" />
              </g>
              <g
                 id="g988"
                 transform="translate(439.6546,870.1612)"
                 clip-path="url(#clipPath4845)">
                <path
                   d="M 0,0 C 0.078,0.072 0.138,0.138 0.192,0.209 0.708,0.884 0.579,1.855 -0.097,2.373 L -0.162,2.43 c -2.68,2.723 -5.412,5.448 -8.119,8.1 -0.418,0.314 -0.864,0.593 -1.331,0.833 -0.492,-0.324 -0.938,-0.711 -1.33,-1.155 -0.311,-0.613 -0.15,-1.353 0.396,-1.78 L -10.492,8.38 C -9.525,7.416 -8.561,6.45 -7.596,5.483 -5.849,3.733 -4.101,1.982 -2.34,0.246 L -2.28,0.177 C -2.241,0.125 -2.198,0.075 -2.153,0.028 -1.568,-0.573 -0.602,-0.586 0,0"
                   style="fill:#ffffff;fill-opacity:1;fill-rule:nonzero;stroke:none"
                   id="path990" />
              </g>
              <g
                 id="g992"
                 transform="translate(547.0987,869.7431)"
                 clip-path="url(#clipPath4839)">
                <path
                   d="m 0,0 c 0.4,0.052 0.755,0.257 1.001,0.577 l 0.057,0.064 c 2.706,2.65 5.432,5.378 8.1,8.11 0.326,0.448 0.61,0.925 0.848,1.425 C 9.908,10.302 9.814,10.43 9.723,10.556 9.49,10.875 9.171,11.313 8.977,11.357 8.326,11.487 7.625,11.336 7.071,10.938 4.502,8.532 1.985,5.973 -0.449,3.498 L -1.213,2.725 C -1.266,2.682 -1.316,2.636 -1.362,2.586 -1.637,2.292 -1.781,1.908 -1.768,1.506 -1.754,1.104 -1.585,0.732 -1.291,0.457 -1.224,0.389 -1.172,0.344 -1.117,0.301 -0.796,0.054 -0.399,-0.054 0,0"
                   style="fill:#ffffff;fill-opacity:1;fill-rule:nonzero;stroke:none"
                   id="path994" />
              </g>
              <g
                 id="g996"
                 transform="translate(515.556,905.5962)"
                 clip-path="url(#clipPath4833)">
                <path
                   d="M 0,0 -0.001,0.016 0.001,0.074 C 0.022,0.847 -0.587,1.49 -1.356,1.511 l -0.101,0.011 c -0.052,0.011 -0.105,0.018 -0.158,0.021 -0.028,0.002 -0.055,0.002 -0.083,0.002 -0.676,0 -1.244,-0.525 -1.288,-1.206 -0.15,-2.025 -0.15,-4.072 0,-6.091 0.004,-0.055 0.01,-0.106 0.019,-0.157 0.13,-0.704 0.806,-1.174 1.515,-1.041 l 0.086,0.009 c 0.413,0.019 0.756,0.181 1.007,0.456 0.251,0.276 0.38,0.633 0.362,1.006 0.015,0.612 0.01,1.181 0.004,1.749 -0.002,0.291 -0.005,0.581 -0.005,0.871 0,0.308 0.003,0.618 0.006,0.929 C 0.014,-1.288 0.02,-0.642 0,0"
                   style="fill:#ffffff;fill-opacity:1;fill-rule:nonzero;stroke:none"
                   id="path998" />
              </g>
              <g
                 id="g1000"
                 transform="translate(472.9424,897.9623)"
                 clip-path="url(#clipPath4827)">
                <path
                   d="m 0,0 -0.113,0.019 0.033,0.547 c 0.038,0.638 0.033,1.285 -0.016,1.923 -0.055,0.75 -0.688,1.295 -1.411,1.242 L -1.569,3.726 -1.712,3.741 c -0.02,0 -0.041,10e-4 -0.061,10e-4 -0.31,0 -0.608,-0.114 -0.843,-0.327 -0.249,-0.226 -0.395,-0.536 -0.411,-0.872 -0.119,-1.37 -0.113,-2.734 0.017,-4.078 0.075,-0.698 0.682,-1.193 1.355,-1.116 l 0.061,0.007 0.06,-0.006 c 0.366,-0.028 0.708,0.08 0.976,0.309 0.269,0.228 0.433,0.547 0.462,0.898 C -0.045,-0.959 -0.013,-0.478 0,0"
                   style="fill:#ffffff;fill-opacity:1;fill-rule:nonzero;stroke:none"
                   id="path1002" />
              </g>
            </g>
          </g>
          <g
             id="g1004"
             transform="translate(630.2939,864.1676)"
             clip-path="url(#clipPath4821)">
            <path
               d="m 0,0 c 0,-75.969 -61.585,-137.555 -137.554,-137.555 -75.97,0 -137.555,61.586 -137.555,137.555 0,75.969 61.585,137.554 137.555,137.554 C -61.585,137.554 0,75.969 0,0 Z"
               style="fill:none;stroke:#f68e1e;stroke-width:4;stroke-linecap:butt;stroke-linejoin:miter;stroke-miterlimit:10;stroke-dasharray:none;stroke-opacity:1"
               id="path1006" />
          </g>
        </g>
      </g>
      <g
         id="g11078">
        <text
           xml:space="preserve"
           transform="scale(1,-1)"
           style="font-variant:normal;font-weight:normal;font-stretch:normal;font-size:34.7935px;font-family:'Museo Sans Rounded 500';-inkscape-font-specification:MuseoSansRounded-500;writing-mode:lr-tb;fill:#ffffff;fill-opacity:1;fill-rule:nonzero;stroke:none"
           id="text1010"
           x="579.19287"
           y="-345.7666"><tspan
             x="579.19287 588.62195 609.18488 624.45923 643.42169 661.89703 682.32086 694.15063"
             y="-345.7666"
             sodipodi:role="line"
             id="tspan1008">Insecure</tspan></text>
        <g
           id="g11060">
          <g
             id="g9775">
            <g
               id="g1028"
               transform="translate(648.9735,553.1694)"
               clip-path="url(#clipPath5795)">
              <path
                 d="M 0,0 C -0.002,0.001 -0.003,0.001 -0.005,0 -0.499,0 -0.98,-0.2 -1.328,-0.548 l -23.339,-23.329 c -0.73,-0.731 -0.73,-1.922 0.001,-2.653 0.731,-0.729 1.921,-0.729 2.653,0.001 l 23.33,23.328 c 0.73,0.73 0.733,1.92 0.006,2.653 C 0.975,-0.2 0.493,0 0,0"
                 style="fill:#ffffff;fill-opacity:1;fill-rule:nonzero;stroke:none"
                 id="path1030" />
            </g>
            <g
               id="g5819">
              <g
                 id="g1020"
                 transform="translate(701.4631,504.4845)"
                 clip-path="url(#clipPath5807)">
                <path
                   d="M 0,0 C -0.9,0.016 -1.785,0.018 -2.668,0.018 L -2.957,0.015 c -2.09,-0.013 -2.632,-0.549 -2.64,-2.611 -0.009,-2.207 -0.015,-4.414 -0.016,-6.621 0,-3.477 -0.011,-7.071 -0.039,-10.609 -0.027,-1.283 -0.149,-2.565 -0.363,-3.822 -0.255,-2.877 -2.567,-5.224 -5.491,-5.53 -1.6,-0.221 -3.236,-0.326 -4.818,-0.428 -0.881,-0.055 -1.79,-0.114 -2.679,-0.191 -0.702,-0.061 -1.406,-0.107 -2.112,-0.154 -1.758,-0.07 -3.507,-0.271 -5.215,-0.597 -7.021,-1.536 -11.176,-6.031 -12.331,-13.357 -0.258,-1.63 -0.415,-3.234 -0.582,-4.933 l -0.044,-0.452 c -0.064,-0.633 -0.127,-1.269 -0.197,-1.911 l -0.102,-0.93 h -59.359 l -0.178,0.82 c -0.008,0.042 -0.019,0.08 -0.031,0.119 -0.094,0.297 -0.145,0.576 -0.156,0.859 -0.159,20.809 -4.526,40.977 -12.981,59.969 -2.923,6.18 -4.834,12.77 -5.674,19.572 -1.115,10.377 0.692,20.82 5.225,30.209 4.912,9.969 13.101,18.164 23.061,23.081 17.96,9.02 35.786,8.792 52.98,-0.679 C -25.344,75.488 -16.95,65.172 -13.06,52.769 -9.157,41.386 -4.145,30.232 0.653,19.785 1.638,17.64 2.626,15.496 3.618,13.354 4.761,10.886 5.9,8.414 7.036,5.936 7.805,4.671 7.856,3.076 7.166,1.763 L 7.102,1.663 C 6.163,0.471 4.707,-0.152 3.197,0 Z m 3.472,-3.762 c 0.96,0.009 1.894,0.129 2.802,0.356 2.002,0.589 3.661,2.037 4.525,3.965 0.909,2.022 0.9,4.336 -0.022,6.351 -1.613,3.571 -3.276,7.187 -4.887,10.688 l -0.056,0.121 c -2.976,6.467 -6.053,13.153 -8.952,19.871 -1.408,3.284 -2.653,6.651 -3.91,10.098 -1.157,3.159 -2.597,7.092 -4.181,10.698 -7.793,17.646 -21.125,28.717 -39.628,32.905 -1.869,0.422 -3.824,0.709 -5.714,0.986 -0.907,0.132 -1.788,0.261 -2.667,0.404 h -8.336 c -0.072,-0.018 -0.145,-0.037 -0.216,-0.055 -0.299,-0.086 -0.618,-0.149 -0.934,-0.184 -7.905,-0.653 -15.483,-2.802 -22.538,-6.39 -21.228,-10.784 -32.933,-32.658 -30.547,-57.086 0.94,-7.033 2.885,-13.907 5.778,-20.412 3.649,-8.44 6.683,-17.22 9.019,-26.101 2.674,-11.718 3.974,-23.73 3.869,-35.724 0,-2.148 0.575,-2.738 2.672,-2.738 h 62.275 c 2.016,0 2.59,0.571 2.669,2.657 l 0.048,1.317 c 0.069,1.988 0.141,4.045 0.357,6.094 0.782,7.618 4.342,11.222 11.906,12.049 1.832,0.202 3.693,0.266 5.493,0.327 l 0.087,0.002 c 1.473,0.051 2.972,0.102 4.428,0.223 6.819,0.57 10.234,3.74 11.073,10.277 0.279,2.664 0.384,5.392 0.31,8.09 l -0.003,1.123 c -0.002,0.754 -0.005,1.515 0.003,2.266 0.023,1.426 0.019,2.837 0.013,4.323 v 3.469 l 2.343,-0.011 c 0.908,-0.01 1.765,-0.021 2.6,0.025 z"
                   style="fill:#ffffff;fill-opacity:1;fill-rule:nonzero;stroke:none"
                   id="path1022" />
              </g>
              <g
                 id="g1024"
                 transform="translate(661.3015,516.0991)"
                 clip-path="url(#clipPath5801)">
                <path
                   d="m 0,0 -1.428,-1.429 0.013,0.075 c -6.196,-5.609 -14.132,-8.702 -22.557,-8.75 h -0.017 c -8.873,0 -17.482,3.586 -23.687,9.84 -6.214,6.124 -9.786,14.646 -9.794,23.377 -0.204,8.748 3.018,17.066 9.07,23.406 6.052,6.34 14.211,9.944 22.973,10.147 0.445,0.01 0.89,0.011 1.337,0.004 h 0.116 c 8.482,0.116 16.655,-2.965 22.975,-8.652 C 5.801,41.568 9.596,32.511 9.424,23.157 9.532,14.551 6.097,6.103 0,0 m -23.346,60.726 h -0.544 -0.029 c -9.851,0 -19.146,-3.8 -26.177,-10.701 -7.038,-6.907 -11.011,-16.142 -11.188,-26.002 0.27,-21.74 15.367,-37.243 36.712,-37.682 9.813,-0.346 19.503,3.358 26.607,10.115 7.143,7.025 11.25,16.81 11.257,26.841 0.123,9.666 -3.698,19.147 -10.482,26.023 -6.802,7.099 -16.333,11.254 -26.156,11.406"
                   style="fill:#ffffff;fill-opacity:1;fill-rule:nonzero;stroke:none"
                   id="path1026" />
              </g>
              <g
                 id="g1032"
                 transform="translate(626.9678,552.6224)"
                 clip-path="url(#clipPath5789)">
                <path
                   d="m 0,0 c -0.348,0.349 -0.831,0.549 -1.324,0.549 -0.002,0 -0.003,0 -0.005,0 -0.494,0 -0.976,-0.2 -1.325,-0.549 -0.73,-0.731 -0.73,-1.922 10e-4,-2.654 l 23.329,-23.32 c 0.731,-0.73 1.921,-0.731 2.653,0 0.722,0.727 0.722,1.914 -0.001,2.646 z"
                   style="fill:#ffffff;fill-opacity:1;fill-rule:nonzero;stroke:none"
                   id="path1034" />
              </g>
            </g>
          </g>
          <g
             id="g1036"
             transform="translate(783.7074,522.8203)"
             clip-path="url(#clipPath5783)">
            <g
               id="g9778">
              <path
                 d="m 0,0 c 0,-75.969 -61.585,-137.554 -137.555,-137.554 -75.969,0 -137.554,61.585 -137.554,137.554 0,75.969 61.585,137.555 137.554,137.555 C -61.585,137.555 0,75.969 0,0 Z"
                 style="fill:none;stroke:#f68e1e;stroke-width:4;stroke-linecap:butt;stroke-linejoin:miter;stroke-miterlimit:10;stroke-dasharray:none;stroke-opacity:1"
                 id="path1038" />
            </g>
          </g>
        </g>
      </g>
      <g
         id="g10952">
        <text
           xml:space="preserve"
           transform="scale(1,-1)"
           style="font-variant:normal;font-weight:normal;font-stretch:normal;font-size:34.7935px;font-family:'Museo Sans Rounded 500';-inkscape-font-specification:MuseoSansRounded-500;writing-mode:lr-tb;fill:#ffffff;fill-opacity:1;fill-rule:nonzero;stroke:none"
           id="text918-8"
           x="877.40802"
           y="-205.23779"><tspan
             x="877.40802"
             sodipodi:role="line"
             id="tspan916-6"
             y="-205.23779">Frustrated</tspan></text>
        <g
           id="g6587">
          <g
             id="g5844">
            <g
               id="g892"
               transform="translate(902.589,370.5266)"
               clip-path="url(#clipPath4372)">
              <path
                 d="M 0,0 C 0.034,-0.017 0.068,-0.033 0.102,-0.048 0.499,-0.219 0.936,-0.225 1.336,-0.067 1.736,0.092 2.05,0.397 2.22,0.792 3.156,2.769 5.221,3.879 7.363,3.577 L 7.904,3.501 v -15.299 l -0.586,-0.041 c -0.301,-0.02 -0.603,-0.031 -0.904,-0.031 -4.342,0 -8.509,2.128 -11.04,5.69 -3.317,4.494 -3.546,10.47 -0.579,15.215 2.624,4.376 7.427,6.878 12.531,6.53 L 7.912,15.525 7.902,7.099 7.372,7.016 C 6.122,6.818 4.87,6.55 3.648,6.22 1.82,5.619 0.281,4.251 -0.541,2.474 L -0.593,2.383 C -0.627,2.333 -0.659,2.281 -0.687,2.227 -1.112,1.424 -0.803,0.424 0,0 m 84.078,28.693 -0.103,-0.067 c -0.589,-0.307 -1.223,-0.503 -1.883,-0.584 l -0.556,-0.067 -0.131,0.544 c -0.164,0.682 -0.199,1.381 -0.101,2.078 l 0.032,0.13 c 1.72,4.678 3.51,9.419 5.241,14.004 l 1.822,4.832 c 0.409,1.085 0.462,1.86 0.157,2.304 -0.308,0.447 -1.06,0.677 -2.236,0.683 -1.238,0.005 -2.478,0.004 -3.719,0.002 -1.701,-0.002 -3.405,-0.005 -5.107,0.009 -0.75,0.005 -1.665,0.099 -2.088,0.779 -0.422,0.681 -0.101,1.543 0.227,2.217 5.235,10.738 10.46,21.48 15.672,32.226 0.559,1.343 1.94,2.177 3.426,2.054 2.357,-0.024 4.804,-0.019 7.172,-0.014 l 2.921,0.004 c 1.354,0 2.707,0.003 4.059,0.005 2.031,0.003 4.061,0.005 6.09,0.002 1.451,-0.008 2.529,-0.498 3.039,-1.377 0.512,-0.885 0.397,-2.074 -0.325,-3.35 L 104.943,62.608 c -0.618,-1.092 -0.796,-1.973 -0.5,-2.481 0.298,-0.509 1.155,-0.79 2.415,-0.79 0.93,-0.003 1.86,0 2.79,0.002 2.319,0.004 4.716,0.01 7.076,-0.038 0.539,-0.011 0.998,-0.293 1.402,-0.543 0.145,-0.089 0.287,-0.178 0.43,-0.248 l 0.565,-0.276 -0.276,-0.565 c -0.074,-0.151 -0.134,-0.316 -0.195,-0.48 -0.167,-0.447 -0.355,-0.954 -0.77,-1.296 -11.22,-9.076 -22.59,-18.226 -33.802,-27.2 m 20.865,-25.208 0.535,0.08 c 2.154,0.329 4.24,-0.771 5.191,-2.732 l 0.03,-0.074 c 0.224,-0.667 0.935,-1.051 1.615,-0.875 0.526,0.195 1.014,0.603 1.329,1.136 0.112,0.471 0.045,0.96 -0.192,1.385 -1.221,2.542 -3.693,4.202 -6.469,4.366 -0.317,0.038 -0.594,0.059 -0.895,0.082 l -1.075,0.09 v 8.603 l 0.632,-0.004 c 4.29,-0.026 8.288,-2.163 10.692,-5.715 3.255,-4.259 3.547,-10.221 0.703,-14.806 -2.273,-4.183 -6.676,-6.822 -11.471,-6.858 l -0.635,-0.005 z m -3.546,-29.464 0.023,0.09 c 0.811,2.394 1.654,4.963 2.323,7.524 l 0.071,0.277 c 0.672,2.595 0.909,2.803 3.617,3.165 8.107,1.07 14.27,7.773 14.657,15.94 0.427,8.243 -5.107,15.531 -13.158,17.335 -0.742,0.168 -1.491,0.283 -2.284,0.404 -0.374,0.057 -0.75,0.115 -1.127,0.178 l -0.445,0.076 -0.072,0.446 c -0.038,0.239 -0.062,0.48 -0.073,0.722 0.258,6.13 -0.454,12.176 -2.115,18.024 l -0.024,0.165 c -0.008,0.728 0.311,1.41 0.875,1.871 1.72,1.435 3.498,2.861 5.218,4.239 0.814,0.653 1.629,1.307 2.442,1.963 0.842,0.679 1.685,1.355 2.529,2.03 2.177,1.745 4.43,3.549 6.6,5.369 1.612,1.259 2.217,3.374 1.523,5.275 -0.594,1.96 -2.337,3.303 -4.348,3.376 -1.143,0.067 -2.304,0.065 -3.428,0.062 -0.467,-10e-4 -0.936,-0.003 -1.404,10e-4 h -4.089 l 0.876,1.661 c 0.209,0.401 0.372,0.712 0.544,1.017 l 10.506,18.531 c 1.42,2.057 1.32,4.779 -0.211,6.68 -1.061,1.002 -2.244,1.867 -3.519,2.576 L 92.766,93.016 c -2.324,-0.9 -4.142,-2.752 -4.998,-5.098 -2.084,-4.474 -4.272,-8.929 -6.387,-13.237 -0.849,-1.729 -1.698,-3.459 -2.542,-5.19 -0.16,-0.331 -0.331,-0.658 -0.505,-0.989 l -0.492,-0.951 -1.468,0.614 C 62.981,74.313 47.233,73.861 34.23,66.964 31.056,65.157 27.962,63.097 25.048,60.853 l -0.081,-0.055 c -0.311,-0.215 -0.521,-0.537 -0.59,-0.909 -0.069,-0.371 0.011,-0.747 0.226,-1.059 l 0.044,-0.076 c 0.319,-0.641 1.063,-0.934 1.73,-0.679 0.466,0.183 0.897,0.451 1.272,0.795 10.819,9.018 25.422,12.424 39.086,9.135 2.113,-0.456 4.123,-1.164 6.25,-1.912 0.963,-0.339 1.934,-0.682 2.924,-1.001 l 0.69,-0.223 -1.661,-3.402 c -0.784,-1.602 -1.517,-3.101 -2.24,-4.607 -0.914,-1.913 -0.923,-3.832 -0.024,-5.265 0.905,-1.443 2.655,-2.276 4.799,-2.285 h 7.386 L 84.307,47.811 C 84.166,47.429 84.047,47.103 83.926,46.779 83.328,45.19 82.729,43.603 82.129,42.015 80.798,38.49 79.422,34.846 78.1,31.25 c -0.873,-2.075 -0.209,-4.401 1.604,-5.686 1.763,-1.338 4.234,-1.262 5.894,0.168 0.976,0.738 1.913,1.504 2.82,2.244 0.404,0.329 0.807,0.658 1.214,0.985 l 10.101,8.121 0.251,-0.93 c 1.483,-5.479 2.038,-11.128 1.65,-16.788 l -0.04,-0.586 h -0.587 c -0.345,0 -0.669,-0.003 -0.98,-0.006 -0.595,-0.005 -1.143,-0.008 -1.69,0.006 -14.859,0.126 -29.521,2.665 -43.569,7.547 -10.514,3.861 -18.179,8.45 -24.132,14.445 -0.427,0.374 -1.041,0.549 -1.639,0.455 C 28.422,40.854 28.006,40.291 27.822,39.629 27.641,39.07 27.577,38.483 27.511,37.862 27.44,37.205 27.367,36.525 27.153,35.866 24.958,29.11 20.196,23.944 12.595,20.074 c -0.261,-0.135 -0.52,-0.086 -0.69,-0.054 -0.034,0.007 -0.069,0.014 -0.104,0.018 l -0.546,0.051 -0.025,0.547 c -0.211,4.719 0.214,9.446 1.264,14.051 1.44,5.897 3.997,11.35 7.605,16.217 1.163,1.581 0.644,2.296 0.061,2.742 -0.34,0.261 -0.699,0.369 -1.066,0.314 -0.517,-0.075 -1.063,-0.471 -1.535,-1.116 -0.791,-1.081 -1.491,-2.1 -2.141,-3.116 C 10.19,41.408 7.621,31.815 7.994,21.99 8.006,21.428 8.002,20.877 7.998,20.327 L 7.995,18.898 7.372,18.891 c -11.528,-0.124 -17.711,-8.556 -17.86,-16.823 -0.002,-0.374 0.01,-0.756 0.033,-1.137 0.593,-9.489 8.804,-16.72 18.286,-16.135 l 0.298,0.018 0.203,-0.219 c 0.108,-0.116 0.197,-0.248 0.267,-0.392 l 0.038,-0.099 c 0.071,-0.248 0.128,-0.501 0.182,-0.752 4.153,-19.302 15.445,-31.905 33.563,-37.46 18.069,-5.54 34.418,-1.388 48.597,12.34 2.163,2.305 4.197,4.81 6.023,7.423 l 0.043,0.056 c 0.029,0.032 0.055,0.066 0.081,0.1 0.468,0.638 0.33,1.54 -0.309,2.009 l -0.07,0.059 c -0.54,0.533 -1.39,0.539 -1.937,0.015 -0.353,-0.332 -0.655,-0.708 -0.901,-1.12 -6.241,-9.322 -15.648,-15.922 -26.505,-18.612 -10.859,-2.691 -22.26,-1.245 -32.103,4.069 -14.585,7.82 -22.601,20.1 -23.823,36.501 -0.407,5.492 -0.362,11.097 -0.319,16.516 0.023,2.84 0.046,5.776 0.004,8.657 -0.137,1.251 0.669,2.463 1.925,2.841 7.186,3.076 12.973,8.666 16.295,15.745 0.266,0.572 0.489,1.18 0.726,1.824 0.118,0.323 0.24,0.655 0.372,0.995 l 0.313,0.808 0.671,-0.549 c 4.936,-4.032 10.408,-7.354 16.263,-9.873 13.272,-5.83 27.901,-8.992 46.041,-9.951 1.596,-0.085 3.187,-0.063 4.872,-0.039 0.794,0.011 1.6,0.022 2.422,0.022 h 0.629 v -2.625 c 0,-1.848 -0.005,-3.697 -0.011,-5.546 -0.013,-4.158 -0.026,-8.457 0.029,-12.682 0.236,-6.736 -0.865,-13.357 -3.274,-19.665 l -0.042,-0.087 c -0.036,-0.062 -0.067,-0.126 -0.094,-0.193 -0.166,-0.403 -0.166,-0.847 0.002,-1.248 0.168,-0.403 0.482,-0.716 0.885,-0.881 0.101,-0.042 0.21,-0.073 0.319,-0.093 0.883,-0.161 1.731,0.43 1.891,1.313"
                 style="fill:#ffffff;fill-opacity:1;fill-rule:nonzero;stroke:none"
                 id="path894" />
            </g>
            <g
               id="g896"
               transform="translate(910.4846,435.3918)"
               clip-path="url(#clipPath4366)">
              <path
                 d="m 0,0 c 0.023,0.422 -0.12,0.827 -0.402,1.141 l -0.054,0.07 c -4.085,6.098 -8.228,12.238 -12.315,18.252 -0.046,0.077 -0.065,0.107 -0.084,0.137 -0.237,0.36 -0.599,0.605 -1.021,0.691 -0.109,0.023 -0.218,0.034 -0.327,0.034 -0.312,0 -0.617,-0.091 -0.883,-0.267 -0.064,-0.041 -0.117,-0.079 -0.168,-0.12 -0.319,-0.263 -0.516,-0.634 -0.555,-1.044 -0.04,-0.411 0.083,-0.812 0.346,-1.131 l 0.047,-0.066 c 0.543,-0.865 1.132,-1.725 1.702,-2.556 0.247,-0.36 0.494,-0.722 0.739,-1.084 L -4.269,1.152 -7.8,0.338 c -1.915,-0.44 -3.749,-0.861 -5.576,-1.301 l -0.106,-0.017 c -0.389,-0.025 -0.757,-0.187 -1.04,-0.454 -0.323,-0.306 -0.508,-0.72 -0.52,-1.166 -0.011,-0.446 0.151,-0.869 0.457,-1.193 l 0.069,-0.085 c 2.796,-4.224 5.672,-8.54 8.549,-12.825 0.532,-0.793 1.393,-1.594 2.472,-0.903 0.371,0.238 0.598,0.543 0.674,0.905 0.107,0.508 -0.071,1.133 -0.515,1.806 -1.294,1.971 -2.601,3.93 -3.907,5.889 -0.758,1.137 -1.515,2.272 -2.27,3.41 -0.166,0.249 -0.306,0.51 -0.455,0.785 -0.074,0.138 -0.153,0.285 -0.242,0.442 l -0.413,0.73 4.939,1.158 c 0.434,0.102 0.868,0.201 1.303,0.3 0.924,0.211 1.879,0.43 2.815,0.673 l 0.11,0.018 c 0.345,0.027 0.676,0.169 0.933,0.4 0.314,0.282 0.5,0.669 0.523,1.09"
                 style="fill:#ffffff;fill-opacity:1;fill-rule:nonzero;stroke:none"
                 id="path898" />
            </g>
            <g
               id="g900"
               transform="translate(929.2112,447.8487)"
               clip-path="url(#clipPath4360)">
              <path
                 d="m 0,0 c 0.366,0.174 0.643,0.481 0.778,0.862 0.136,0.382 0.115,0.794 -0.059,1.16 -1.564,3.806 -3.226,7.507 -4.646,10.63 -0.037,0.09 -0.064,0.148 -0.094,0.203 -0.185,0.342 -0.495,0.592 -0.87,0.703 -0.375,0.111 -0.77,0.069 -1.114,-0.118 l -0.12,-0.059 C -6.878,12.989 -7.176,12.048 -6.78,11.288 -6.166,9.786 -5.523,8.326 -4.902,6.914 -4.669,6.384 -4.436,5.853 -4.204,5.321 -4.087,5.047 -3.981,4.773 -3.847,4.426 -3.746,4.168 -3.63,3.869 -3.482,3.498 l 0.345,-0.862 h -0.929 c -0.676,0 -1.319,0.009 -1.939,0.018 -0.564,0.008 -1.116,0.016 -1.656,0.016 -0.719,0 -1.42,-0.014 -2.108,-0.061 -0.696,-0.046 -1.253,-0.326 -1.53,-0.768 -0.227,-0.363 -0.247,-0.803 -0.056,-1.275 1.456,-3.596 3.098,-7.425 5.019,-11.706 0.371,-0.741 1.212,-1.021 1.9,-0.676 0.835,0.332 1.229,1.223 0.931,2.01 -0.191,0.546 -0.421,1.057 -0.665,1.597 -0.122,0.271 -0.244,0.541 -0.36,0.813 l -2.921,6.85 0.892,0.052 c 0.607,0.036 1.197,0.068 1.776,0.099 1.364,0.074 2.651,0.143 3.952,0.25 l 0.044,0.003 0.044,-0.002 C -0.482,-0.162 -0.23,-0.109 0,0"
                 style="fill:#ffffff;fill-opacity:1;fill-rule:nonzero;stroke:none"
                 id="path902" />
            </g>
            <g
               id="g904"
               transform="translate(958.9245,347.8175)"
               clip-path="url(#clipPath4354)">
              <path
                 d="m 0,0 c 1.011,0 2.031,-0.093 3.047,-0.284 3.238,-0.552 6.207,-2.053 8.578,-4.34 L 11.691,-4.7 c 0.072,-0.095 0.153,-0.182 0.242,-0.257 0.674,-0.573 1.685,-0.489 2.256,0.182 0.024,0.029 0.048,0.06 0.071,0.092 0.264,0.37 0.368,0.818 0.293,1.264 -0.074,0.446 -0.318,0.836 -0.686,1.099 l -0.07,0.058 C 10.123,1.268 5.297,3.211 0.203,3.211 H 0.147 0.141 c -0.037,0 -0.075,0.001 -0.112,0.001 -5.074,0 -9.883,-1.928 -13.555,-5.435 l -0.082,-0.067 c -0.069,-0.047 -0.135,-0.098 -0.197,-0.154 -0.333,-0.303 -0.528,-0.717 -0.549,-1.165 -0.021,-0.45 0.134,-0.879 0.436,-1.211 0.436,-0.458 1.18,-0.949 2.513,0.174 0.114,0.097 0.226,0.201 0.337,0.304 0.142,0.133 0.284,0.264 0.433,0.388 C -7.637,-1.377 -3.878,0 0,0"
                 style="fill:#ffffff;fill-opacity:1;fill-rule:nonzero;stroke:none"
                 id="path906" />
            </g>
            <g
               id="g908"
               transform="translate(970.0901,368.4657)"
               clip-path="url(#clipPath4348)">
              <path
                 d="m 0,0 c -0.268,-0.244 -0.431,-0.519 -0.505,-0.828 -0.198,-0.835 0.321,-1.676 1.156,-1.874 3.387,-1.099 7.072,-2.235 11.647,-3.589 l 0.085,-0.031 c 0.385,-0.144 0.794,-0.127 1.159,0.04 0.366,0.168 0.645,0.468 0.785,0.845 0.068,0.155 0.107,0.279 0.129,0.405 0.075,0.41 -0.015,0.825 -0.253,1.168 -0.238,0.344 -0.596,0.573 -1.007,0.648 l -0.083,0.021 c -1.809,0.59 -3.623,1.143 -5.544,1.728 -0.819,0.25 -1.655,0.505 -2.514,0.769 l -1.014,0.313 0.762,0.74 c 1.022,0.992 1.881,1.829 2.756,2.689 l 0.557,0.543 c 0.675,0.655 1.372,1.333 1.998,2.037 0.066,0.066 0.09,0.09 0.114,0.115 0.576,0.617 0.543,1.588 -0.073,2.164 L 10.096,7.959 C 9.794,8.244 9.408,8.385 9.021,8.385 8.604,8.385 8.188,8.22 7.879,7.893 5.476,5.546 2.678,2.788 0,0"
                 style="fill:#ffffff;fill-opacity:1;fill-rule:nonzero;stroke:none"
                 id="path910" />
            </g>
            <g
               id="g912"
               transform="translate(948.1705,366.906)"
               clip-path="url(#clipPath4342)">
              <path
                 d="m 0,0 c 0.138,0.553 -0.149,1.229 -0.808,1.902 -2.415,2.462 -4.911,4.937 -7.261,7.26 L -8.135,9.238 C -8.185,9.307 -8.24,9.371 -8.3,9.432 -8.626,9.76 -9.056,9.924 -9.486,9.924 c -0.427,0 -0.855,-0.163 -1.181,-0.487 -0.718,-0.743 -0.597,-1.614 0.368,-2.582 C -9.2,5.754 -8.085,4.668 -6.894,3.51 l 2.386,-2.329 -4.528,-1.406 c -1.474,-0.457 -2.896,-0.897 -4.315,-1.342 -0.746,-0.233 -1.942,-0.818 -1.574,-2.113 0.02,-0.063 0.049,-0.139 0.085,-0.213 0.195,-0.407 0.537,-0.713 0.962,-0.863 0.425,-0.148 0.883,-0.124 1.289,0.071 l 0.091,0.035 c 2.99,0.904 6.934,2.103 10.916,3.366 C -0.698,-1.003 -0.136,-0.547 0,0"
                 style="fill:#ffffff;fill-opacity:1;fill-rule:nonzero;stroke:none"
                 id="path914" />
            </g>
          </g>
          <g
             id="g1040"
             transform="translate(1096.03,388.7926)"
             clip-path="url(#clipPath5777)">
            <path
               d="m 0,0 c 0,-75.969 -61.585,-137.554 -137.555,-137.554 -75.969,0 -137.554,61.585 -137.554,137.554 0,75.969 61.585,137.555 137.554,137.555 C -61.585,137.555 0,75.969 0,0 Z"
               style="fill:none;stroke:#f68e1e;stroke-width:4;stroke-linecap:butt;stroke-linejoin:miter;stroke-miterlimit:10;stroke-dasharray:none;stroke-opacity:1"
               id="path1042" />
          </g>
        </g>
      </g>
      <g
         id="g10968">
        <text
           xml:space="preserve"
           transform="scale(1,-1)"
           style="font-variant:normal;font-weight:normal;font-stretch:normal;font-size:34.7935px;font-family:'Museo Sans Rounded 500';-inkscape-font-specification:MuseoSansRounded-500;writing-mode:lr-tb;fill:#ffffff;fill-opacity:1;fill-rule:nonzero;stroke:none"
           id="text1046"
           x="1228.7656"
           y="-338.88748"><tspan
             x="1228.7656"
             sodipodi:role="line"
             y="-338.88748"
             id="tspan10954">Jealous</tspan></text>
        <g
           id="g6677">
          <g
             id="g6668">
            <g
               id="g1056"
               transform="translate(1288.744,453.4424)"
               clip-path="url(#clipPath6658)">
              <path
                 d="m 0,0 c -2.75,-0.001 -5.513,0.199 -8.269,0.604 -18.41,2.373 -32.618,11.473 -42.218,27.046 -5.65,9.305 -8.137,19.952 -7.194,30.792 0.553,8.957 2.461,17.765 5.669,26.161 0.12,0.313 0.252,0.621 0.365,0.885 l 0.615,1.471 0.653,-1.083 c 0.435,-0.722 0.858,-1.449 1.28,-2.176 0.945,-1.627 1.923,-3.311 3.014,-4.855 1.307,-1.777 3.199,-3.117 5.321,-3.763 l 0.066,-0.024 c 0.216,-0.093 0.444,-0.141 0.679,-0.145 0.474,0.009 0.927,0.171 1.269,0.504 0.342,0.332 0.534,0.777 0.541,1.253 1.02,9.423 4.921,18.042 11.286,24.985 2.63,3.062 5.565,5.972 8.089,8.412 6.852,6.63 10.388,15.049 10.813,25.741 0.016,0.392 0.039,0.785 0.066,1.246 l 0.106,1.917 0.907,-0.535 c 0.2,-0.117 0.381,-0.221 0.549,-0.317 0.355,-0.203 0.653,-0.374 0.936,-0.566 19.937,-13.073 33.809,-34.034 38.051,-57.503 0.246,-1.245 0.744,-2.064 1.399,-2.297 0.637,-0.225 1.511,0.083 2.46,0.87 3.151,2.895 5.486,6.617 6.727,10.746 0.142,0.39 0.267,0.744 0.406,1.138 l 0.56,1.578 0.714,-0.686 c 0.229,-0.22 0.441,-0.458 0.631,-0.708 C 53.225,78.693 56.886,64.865 56.105,50.661 55.322,36.041 48.261,22.477 36.734,13.449 26.415,4.714 13.366,0 0,0 m 24.341,1.615 c 15.631,6.981 26.489,18.334 32.27,33.743 3.331,9.294 4.176,19.355 2.442,29.086 -1.597,10.431 -5.298,20.204 -11.001,29.062 -0.679,1.289 -1.899,2.112 -3.291,2.253 -2.087,0.218 -3.957,-1.186 -4.349,-3.245 -0.807,-2.909 -2.036,-5.611 -3.666,-8.083 l -0.739,-1.121 -0.406,1.279 c -0.391,1.231 -0.761,2.456 -1.129,3.673 -0.812,2.679 -1.578,5.209 -2.523,7.725 -6.858,18.671 -19.887,34.809 -36.691,45.446 -0.748,0.575 -1.618,0.883 -2.5,0.901 -1.13,0.019 -2.156,-0.385 -2.955,-1.151 -0.798,-0.766 -1.251,-1.797 -1.274,-2.904 -0.118,-1.051 -0.187,-2.074 -0.253,-3.063 -0.055,-0.807 -0.108,-1.613 -0.187,-2.418 -0.412,-6.654 -3.113,-13.061 -7.603,-18.019 -2.67,-2.863 -5.384,-5.617 -7.92,-8.168 -4.594,-4.512 -8.186,-9.802 -10.681,-15.729 -0.912,-2.224 -1.654,-4.474 -2.439,-6.856 -0.355,-1.074 -0.711,-2.153 -1.084,-3.234 l -0.345,-0.995 -0.725,0.764 c -1.894,1.997 -3.293,4.452 -4.045,7.101 -0.698,2.333 -1.838,3.411 -3.694,3.491 -1.977,0.082 -3.125,-0.772 -4.078,-3.055 -3.096,-7.415 -5.177,-15.217 -6.184,-23.187 -0.991,-6.647 -0.982,-13.372 0.023,-20.002 4.104,-23.906 23.538,-42.954 48.358,-47.389 1.713,-0.307 3.475,-0.542 5.18,-0.77 0.801,-0.107 1.602,-0.215 2.402,-0.329 h 7.919 c 0.364,0.1 0.738,0.177 1.109,0.229 6.978,0.471 13.711,2.14 20.059,4.965"
                 style="fill:#ffffff;fill-opacity:1;fill-rule:nonzero;stroke:none"
                 id="path1058" />
            </g>
            <g
               id="g1060"
               transform="translate(1287.9983,465.9012)"
               clip-path="url(#clipPath6652)">
              <path
                 d="m 0,0 c -0.673,0 -1.347,0.126 -1.988,0.378 -10.643,3.723 -20.038,10.338 -27.147,19.121 -3.711,4.775 -5.764,10.723 -5.79,16.758 v 0.007 c -0.026,8.276 2.289,13.724 7.508,17.661 1.207,0.972 2.561,1.773 4.01,2.371 4.058,1.675 8.525,1.67 12.579,-0.014 4.053,-1.685 7.209,-4.847 8.884,-8.904 0.529,-1.186 1.031,-1.613 1.911,-1.613 0.803,0.011 1.517,0.538 1.768,1.31 l 0.028,0.073 C 4.988,54.063 11.224,58.017 18.026,57.474 25.569,56.986 31.942,51.743 33.874,44.426 36.551,35.087 34.271,25.181 27.773,17.942 20.848,9.953 11.906,3.868 1.922,0.356 1.305,0.119 0.653,0 0,0 m 30.664,15.752 c 7.206,8.009 9.77,18.968 6.87,29.328 C 34.682,56.32 23.601,63.119 12.304,60.577 7.512,59.421 3.326,56.542 0.526,52.474 l -0.484,-0.703 -0.873,1.068 c -0.187,0.227 -0.344,0.418 -0.499,0.614 -3.973,5.074 -9.847,7.738 -15.804,7.738 -4.117,0 -8.272,-1.272 -11.869,-3.9 -5.685,-3.965 -9.145,-10.197 -9.501,-17.107 -0.905,-8.31 1.44,-16.462 6.601,-22.991 7.607,-9.451 17.707,-16.503 29.204,-20.39 1.722,-0.639 3.603,-0.645 5.314,-0.023 10.886,3.694 20.58,10.253 28.049,18.972"
                 style="fill:#ffffff;fill-opacity:1;fill-rule:nonzero;stroke:none"
                 id="path1062" />
            </g>
          </g>
          <g
             id="g1064"
             transform="translate(1425.5409,522.8203)"
             clip-path="url(#clipPath6646)">
            <path
               d="m 0,0 c 0,-75.969 -61.585,-137.554 -137.554,-137.554 -75.97,0 -137.555,61.585 -137.555,137.554 0,75.969 61.585,137.555 137.555,137.555 C -61.585,137.555 0,75.969 0,0 Z"
               style="fill:none;stroke:#f68e1e;stroke-width:4;stroke-linecap:butt;stroke-linejoin:miter;stroke-miterlimit:10;stroke-dasharray:none;stroke-opacity:1"
               id="path1066" />
          </g>
        </g>
      </g>
      <g
         id="g10982">
        <text
           xml:space="preserve"
           transform="scale(1,-1)"
           style="font-variant:normal;font-weight:normal;font-stretch:normal;font-size:34.7935px;font-family:'Museo Sans Rounded 500';-inkscape-font-specification:MuseoSansRounded-500;writing-mode:lr-tb;fill:#ffffff;fill-opacity:1;fill-rule:nonzero;stroke:none"
           id="text918-98"
           x="1342.6718"
           y="-683.87109"><tspan
             sodipodi:role="line"
             id="tspan916-90"
             x="1342.6718"
             y="-683.87109">Heartbroken</tspan></text>
        <g
           id="g7422">
          <g
             id="g7411">
            <g
               id="g1068"
               transform="translate(1426.7189,808.6278)"
               clip-path="url(#clipPath6640)">
              <path
                 d="m 0,0 -1.535,1.28 c -0.144,0.108 -0.3,0.239 -0.449,0.38 -4.467,4.468 -9.006,8.976 -13.418,13.357 l -0.879,0.872 c -10.62,10.539 -21.602,21.438 -32.211,32.411 -9.941,10.139 -13.667,24.916 -9.721,38.56 3.481,12.432 12.779,22.35 24.757,26.717 h -0.681 l 3.709,0.968 c 0.364,0.101 0.728,0.196 1.096,0.286 l 0.025,0.007 c 9.598,2.505 19.69,1.291 28.419,-3.416 0.214,-0.111 0.419,-0.237 0.656,-0.383 L 1.236,110.152 -6.88,98.835 C -7.539,97.92 -8.196,97.005 -8.851,96.087 L -8.928,95.998 C -9.724,95.232 -9.75,93.961 -8.984,93.164 l 0.137,-0.15 C -6.224,89.27 -3.599,85.525 -0.97,81.781 L 3.306,75.69 C 3.491,75.427 3.672,75.161 3.867,74.871 L 4.637,73.737 3.88,72.578 C 3.697,72.295 3.51,72.005 3.306,71.725 -0.669,66.185 -4.655,60.642 -8.645,55.101 l -6.143,-8.552 c -1.344,-1.872 -1.344,-1.945 0.043,-3.874 l 4.435,-6.174 C -5.465,29.755 -0.454,22.779 4.552,15.858 5.383,14.903 5.57,13.487 4.994,12.297 3.919,9.752 2.884,7.176 1.832,4.543 1.433,3.548 1.031,2.547 0.625,1.539 Z m 2.234,-3.447 0.022,0.062 c 0.801,1.967 1.595,3.937 2.382,5.911 l 0.086,0.217 c 1.332,3.321 2.71,6.755 4.122,10.112 0.572,1.123 0.418,2.416 -0.371,3.337 -2.444,3.357 -4.872,6.735 -7.248,10.039 l -1.528,2.124 c -3.286,4.574 -6.685,9.303 -10.059,13.929 -1.266,1.372 -1.242,3.469 0.053,4.813 4.654,6.378 9.323,12.882 14.096,19.538 l 3.83,5.34 c 1.168,1.628 1.169,1.788 0.024,3.419 -2.475,3.529 -4.951,7.054 -7.428,10.578 l -4.757,6.781 c -0.148,0.214 -0.294,0.427 -0.439,0.642 l -0.805,1.177 3.536,4.926 c 2.322,3.233 4.619,6.431 6.907,9.634 l 0.045,0.055 c 0.443,0.494 0.678,1.15 0.651,1.812 -0.226,0.631 -0.695,1.157 -1.297,1.451 l -0.066,0.038 c -8.64,5.59 -19.017,7.924 -29.217,6.573 -17.253,-2.19 -31.44,-14.42 -36.148,-31.158 -0.486,-1.76 -0.823,-3.62 -1.15,-5.418 L -62.631,81.9 c -0.142,-0.791 -0.289,-1.611 -0.447,-2.414 v -6.964 c 0.009,-0.029 0.018,-0.057 0.027,-0.086 0.101,-0.298 0.17,-0.596 0.208,-0.898 0.837,-9.595 5.012,-18.633 11.756,-25.475 12.369,-12.52 24.888,-25.026 37.695,-37.804 4.129,-4.121 8.255,-8.244 12.38,-12.366 0.481,-0.58 1.154,-0.872 1.836,-0.818 0.683,0.235 1.207,0.784 1.41,1.478"
                 style="fill:#ffffff;fill-opacity:1;fill-rule:nonzero;stroke:none"
                 id="path1070" />
            </g>
            <g
               id="g1072"
               transform="translate(1509.1624,891.2078)"
               clip-path="url(#clipPath6634)">
              <path
                 d="m 0,0 c -1.77,11.912 -8.505,22.598 -18.479,29.328 -9.955,6.819 -22.4,9.158 -34.146,6.418 -0.823,-0.229 -1.563,-0.715 -2.115,-1.4 -3.036,-3.887 -6.086,-7.89 -9.035,-11.761 l -0.288,-0.379 c -1.793,-2.353 -3.589,-4.704 -5.388,-7.052 l -0.282,-0.369 c -1.216,-1.579 -1.886,-2.448 -1.887,-3.03 -10e-4,-0.623 0.763,-1.763 1.918,-3.49 l 0.049,-0.071 c 2.156,-3.214 4.324,-6.507 6.42,-9.69 l 1.411,-2.141 c 1.121,-1.704 2.244,-3.408 3.368,-5.113 l 0.459,-0.691 -0.807,-1.126 c -0.218,-0.298 -0.414,-0.567 -0.598,-0.851 -0.611,-0.777 -0.492,-1.842 0.229,-2.423 0.346,-0.281 0.779,-0.408 1.223,-0.362 0.442,0.046 0.84,0.263 1.12,0.609 0.025,0.031 0.047,0.06 0.067,0.089 0.442,0.525 0.851,1.077 1.18,1.519 0.163,0.221 0.326,0.439 0.494,0.657 1.176,1.54 1.187,1.828 0.133,3.425 -2.329,3.529 -4.658,7.057 -6.99,10.583 l -4.429,6.702 c -0.188,0.281 -0.374,0.573 -0.56,0.864 l -0.905,1.417 3.299,4.329 c 3.561,4.678 7.704,10.114 11.801,15.436 0.559,0.673 1.318,1.119 2.153,1.276 14.325,2.486 26.576,-1.378 36.43,-11.474 C -6.773,13.767 -2.627,3.463 -2.781,-7.037 -3.005,-17.76 -7.331,-27.809 -14.962,-35.34 -25.239,-45.669 -35.61,-56.024 -45.639,-66.04 l -11.86,-11.847 c -0.216,-0.217 -0.446,-0.407 -0.71,-0.627 -0.175,-0.146 -0.323,-0.27 -0.493,-0.416 l -3.459,-2.964 1.533,4.288 c 0.378,1.061 0.743,2.093 1.098,3.104 0.859,2.436 1.652,4.685 2.513,6.924 0.458,1.031 0.315,2.188 -0.36,3.049 -2.706,3.925 -5.47,8.025 -7.691,11.319 -0.914,1.357 -1.831,2.714 -2.748,4.071 l -7.556,11.18 0.521,0.69 c 0.237,0.314 0.472,0.621 0.713,0.922 0.504,0.653 0.962,1.251 1.403,1.874 l 0.047,0.059 c 0.3,0.333 0.453,0.762 0.43,1.209 -0.023,0.447 -0.218,0.859 -0.551,1.159 -0.029,0.026 -0.056,0.049 -0.084,0.071 -0.288,0.237 -0.639,0.366 -0.998,0.368 -0.582,-0.023 -1.141,-0.319 -1.506,-0.811 -0.658,-0.813 -1.288,-1.649 -1.896,-2.458 -0.295,-0.388 -0.562,-0.741 -0.828,-1.097 -1.379,-1.809 -1.383,-1.914 -0.134,-3.761 l 3.593,-5.315 c 4.105,-6.074 8.757,-12.958 13.316,-19.626 0.813,-1.064 0.987,-2.522 0.435,-3.779 -2.485,-6.797 -4.92,-13.616 -7.179,-19.966 l -0.025,-0.06 c -0.36,-0.76 -0.127,-1.67 0.556,-2.161 0.674,-0.479 1.618,-0.387 2.191,0.219 l 0.049,0.045 c 0.922,0.792 1.814,1.685 2.677,2.55 l 0.38,0.388 c 4.604,4.604 9.205,9.199 13.809,13.792 l 4.218,4.216 c 10.399,10.393 21.153,21.14 31.665,31.724 l 0.012,0.011 C -2.392,-27.97 2.302,-13.878 0,0"
                 style="fill:#ffffff;fill-opacity:1;fill-rule:nonzero;stroke:none"
                 id="path1074" />
            </g>
            <g
               id="g1076"
               transform="translate(1441.4165,868.2965)"
               clip-path="url(#clipPath6628)">
              <path
                 d="m 0,0 c 0.045,-0.915 0.794,-1.651 1.711,-1.679 0.42,0.001 0.846,0.183 1.15,0.503 0.329,0.337 0.504,0.793 0.488,1.257 -0.021,0.884 -0.741,1.584 -1.614,1.584 -0.011,0 -0.024,0 -0.037,-0.001 C 0.734,1.649 0.001,0.904 0,0"
                 style="fill:#ffffff;fill-opacity:1;fill-rule:nonzero;stroke:none"
                 id="path1078" />
            </g>
          </g>
          <g
             id="g1080"
             transform="translate(1574.2435,864.1676)"
             clip-path="url(#clipPath6622)">
            <path
               d="m 0,0 c 0,-75.969 -61.585,-137.555 -137.554,-137.555 -75.97,0 -137.555,61.586 -137.555,137.555 0,75.969 61.585,137.554 137.555,137.554 C -61.585,137.554 0,75.969 0,0 Z"
               style="fill:none;stroke:#f68e1e;stroke-width:4;stroke-linecap:butt;stroke-linejoin:miter;stroke-miterlimit:10;stroke-dasharray:none;stroke-opacity:1"
               id="path1082" />
          </g>
        </g>
      </g>
      <g
         id="g10887">
        <text
           xml:space="preserve"
           transform="matrix(1,0,0,-1,1235.6211,1023.3203)"
           style="font-variant:normal;font-weight:normal;font-stretch:normal;font-size:34.7935px;font-family:'Museo Sans Rounded 500';-inkscape-font-specification:MuseoSansRounded-500;writing-mode:lr-tb;fill:#ffffff;fill-opacity:1;fill-rule:nonzero;stroke:none"
           id="text1086"><tspan
             x="0 17.187988 38.725166 59.288124 78.25058 87.2621"
             y="0"
             sodipodi:role="line"
             id="tspan1084">Lonely</tspan></text>
        <g
           id="g4734">
          <g
             id="g1096"
             transform="translate(1332.8673,1129.985)"
             clip-path="url(#clipPath4724)">
            <path
               d="m 0,0 -1.522,-0.002 c -0.184,0 -0.369,0.008 -0.556,0.025 -2.222,0.295 -4.196,1.514 -5.439,3.349 l -0.587,0.776 0.739,0.679 c 0.689,0.631 1.372,1.272 2.054,1.912 l 0.42,0.393 c 1.892,1.776 3.849,3.613 5.891,5.317 2.518,2.169 5.735,3.235 9.063,3.008 1.097,-0.095 2.118,-0.632 2.813,-1.473 C 13.289,13.405 13.982,11.953 12.107,10.2 10.884,9.062 9.667,7.919 8.456,6.77 L 8.399,6.716 C 6.815,5.221 5.178,3.675 3.542,2.175 2.525,1.158 1.238,0.464 -0.163,0.163 Z m -10.805,6.589 -4.261,4.919 c -2.523,2.914 -5.022,5.798 -7.527,8.676 -1.994,2.288 -3.989,4.574 -5.986,6.858 -3.583,4.1 -7.286,8.34 -10.908,12.527 -0.758,0.942 -1.917,1.439 -3.089,1.35 -5.152,-0.081 -10.108,-0.08 -14.768,-0.002 -8.145,0.171 -15.076,5.559 -17.25,13.407 -0.092,0.336 -0.149,0.664 -0.21,1.01 l -0.038,0.218 c -0.022,0.127 -0.046,0.263 -0.074,0.406 l -0.251,1.308 16.402,-10e-4 c 5.419,-0.002 10.926,-0.005 16.366,0.02 5.284,0.206 10.369,-2.455 13.226,-6.943 5.501,-7.974 11.023,-15.961 16.555,-23.942 l 7.656,-11.063 c 0.151,-0.211 0.291,-0.434 0.447,-0.682 l 0.107,-0.171 c 0.078,-0.123 0.16,-0.253 0.251,-0.392 l 0.498,-0.776 z m -64.448,64.307 c -0.019,6.171 -0.039,12.551 0.117,18.899 0.545,9.908 6.966,18.328 16.357,21.471 1.072,0.402 2.296,0.129 3.11,-0.7 1.611,-1.349 3.351,-2.556 5.174,-3.591 1.255,-0.566 2.058,-1.859 2.01,-3.235 l 0.146,-2.202 c 0.329,-4.874 0.669,-9.914 1.222,-14.829 0.535,-4.233 2.903,-7.995 6.494,-10.314 3.137,-2.228 6.243,-4.448 9.345,-6.675 l 0.843,-0.603 c 0.226,-0.161 0.438,-0.338 0.681,-0.541 l 1.433,-1.17 -6.953,-6.159 -7.278,4.299 c -3.202,1.896 -6.402,3.791 -9.601,5.689 -3.374,1.916 -5.761,5.206 -6.539,9.02 -0.423,1.941 -0.859,3.88 -1.297,5.831 l -0.461,2.057 c -0.058,0.296 -0.132,0.58 -0.223,0.862 -0.27,0.911 -1.163,1.453 -2.078,1.273 -0.508,-0.095 -0.962,-0.39 -1.249,-0.812 -0.19,-0.28 -0.257,-0.629 -0.184,-0.958 0.148,-0.648 0.294,-1.299 0.439,-1.951 0.771,-3.796 1.772,-7.577 2.978,-11.25 1.303,-3.157 3.736,-5.769 6.834,-7.312 1.502,-0.872 2.964,-1.737 4.491,-2.644 l 7.221,-4.272 h -32.743 l -0.138,0.926 c -0.012,0.073 -0.026,0.149 -0.04,0.217 -0.058,0.251 -0.092,0.517 -0.099,0.783 0,2.641 -0.004,5.266 -0.012,7.891 m 19.714,57.29 0.627,1.264 0.015,-0.037 c 1.036,1.962 2.173,3.884 3.391,5.728 3.285,4.9 9.488,7.036 15.089,5.197 5.595,-1.823 9.323,-7.003 9.275,-12.889 l -0.008,-0.171 c -0.046,-0.28 -0.079,-0.567 -0.111,-0.852 -0.058,-0.743 -0.202,-1.484 -0.428,-2.197 -1.383,-4.242 -3.611,-8.054 -6.623,-11.337 -2.381,-2.446 -5.679,-3.836 -9.072,-3.836 -0.032,0 -0.064,0.001 -0.096,0.001 -2.845,0.003 -5.569,0.888 -7.877,2.558 -5.32,3.758 -7.081,10.729 -4.182,16.571 M -26.177,64.53 c 0.638,0.5 1.503,0.63 2.26,0.342 l 0.105,-0.048 c 1.208,-0.557 2.398,-1.182 3.539,-1.859 1.371,-0.787 2.136,-2.368 1.905,-3.938 -0.094,-1.67 -1.161,-3.131 -2.726,-3.729 -0.717,-0.259 -1.456,-0.389 -2.207,-0.389 -0.061,0 -0.119,0.002 -0.178,0.002 -2.817,0 -5.582,1.148 -7.579,3.156 l -0.046,0.051 -0.603,0.758 1.806,1.868 c 1.167,1.211 2.411,2.497 3.671,3.739 z M -49.971,0.114 h -9.184 V 24.06 h 9.184 z m -37.437,0 h -9.12 v 24.003 h 9.12 z m 92.53,-1.337 c 3.682,3.08 7.183,6.494 10.121,9.429 1.888,1.808 2.379,4.584 1.23,6.918 -0.935,2.448 -3.181,4.011 -5.743,4.034 C 6.923,19.377 3.257,18.407 0.084,16.356 l -0.902,-0.549 -24.41,35.284 2.397,0.201 c 0.158,0.014 0.279,0.024 0.41,0.033 3.7,0.106 6.799,2.691 7.56,6.289 0.874,3.614 -0.836,7.269 -4.156,8.904 -0.402,0.218 -0.808,0.41 -1.2,0.595 -0.737,0.325 -1.464,0.72 -2.15,1.166 -5.67,3.893 -11.52,7.909 -17.242,12.023 -2.076,1.538 -3.457,3.881 -3.795,6.434 -0.522,3.396 -0.868,6.195 -1.088,8.797 -0.17,1.944 -0.245,3.926 -0.317,5.842 l -0.007,0.18 c -0.033,0.891 -0.065,1.769 -0.107,2.65 l -0.048,1.079 2.195,0.148 c 5.5,0.227 10.526,3.131 13.462,7.766 1.422,2.181 2.739,4.453 3.918,6.761 2.316,4.512 2.488,9.768 0.471,14.421 -2.017,4.689 -5.985,8.191 -10.888,9.608 -0.598,0.172 -1.199,0.344 -1.799,0.502 l -0.693,0.188 h -4.317 c -0.2,-0.104 -0.439,-0.19 -0.687,-0.243 -3.82,-0.508 -7.242,-2.391 -9.684,-5.308 -1.929,-2.569 -3.698,-5.33 -5.235,-8.182 l -0.246,-0.432 c -1.869,-3.198 -2.532,-6.96 -1.871,-10.599 0.15,-0.866 0.352,-1.715 0.567,-2.612 0.11,-0.459 0.211,-0.884 0.307,-1.311 l 0.203,-0.904 -1.267,-0.524 c -0.253,-0.104 -0.484,-0.199 -0.713,-0.3 -11.165,-4.916 -17.073,-13.275 -17.561,-24.847 -0.343,-8.07 -0.239,-16.309 -0.14,-24.277 l 0.002,-0.178 c 0.029,-2.263 0.055,-4.525 0.076,-6.785 0.093,-4.774 1.868,-9.398 4.996,-13.015 0.382,-0.465 0.781,-0.9 1.244,-1.403 l 0.127,-0.138 c 0.259,-0.281 0.534,-0.58 0.827,-0.905 l 1.661,-1.839 h -2.478 c -0.419,0 -0.813,0 -1.187,0.008 l -0.546,0.002 c -0.523,0.004 -1.02,0.006 -1.498,-0.02 -0.926,-0.019 -1.668,-0.683 -1.787,-1.58 -0.091,-0.492 0.033,-0.961 0.335,-1.318 0.509,-0.519 1.256,-0.813 2.032,-0.761 7.08,-0.004 14.122,-0.004 21.162,10e-4 h 10.496 v -9.252 h -59.603 v 8.812 l 0.952,0.355 c 0.128,0.048 0.236,0.088 0.341,0.131 l 0.08,0.027 c 0.954,0.251 1.535,1.202 1.323,2.166 -0.206,0.92 -1.065,1.542 -2.008,1.443 l -0.039,-0.005 -0.04,0.001 c -0.682,0.016 -1.388,0.016 -2.159,0 -1.581,-0.029 -2.173,-0.621 -2.185,-2.181 -0.033,-4.014 -0.033,-8.162 0,-12.327 0.013,-1.616 0.543,-2.149 2.178,-2.195 0.684,-0.021 1.365,-0.016 2.085,-0.011 h 2.254 l 0.001,-11.94 c 0.003,-4.33 0.005,-8.806 -0.036,-13.193 l -0.005,-0.078 c -0.141,-1.059 0.377,-2.092 1.298,-2.617 h 14.163 c 0.918,0.529 1.435,1.567 1.295,2.626 l -0.006,0.077 c -0.048,5.382 -0.041,10.853 -0.034,16.145 v 8.879 h 20.682 l 0.001,-11.7 c 0.003,-4.32 0.006,-8.789 -0.039,-13.168 l -0.007,-0.087 c -0.165,-1.102 0.352,-2.199 1.295,-2.777 h 14.159 c 0.929,0.509 1.453,1.534 1.312,2.594 l -0.006,0.078 c -0.048,5.437 -0.041,10.926 -0.034,16.235 v 8.928 h 3.013 c 3.369,0 3.535,0.169 3.535,3.618 v 6.583 l 4.181,-4.823 c 1.523,-1.761 2.948,-3.407 4.382,-5.045 2.231,-2.548 4.465,-5.093 6.698,-7.635 4.106,-4.675 8.759,-9.974 13.227,-15.118 2.056,-2.68 4.953,-4.591 8.188,-5.415 h 3.16 c 0.546,0.25 1.105,0.475 1.602,0.676 1.244,0.419 2.378,1.008 3.405,1.762"
               style="fill:#ffffff;fill-opacity:1;fill-rule:nonzero;stroke:none"
               id="path1098" />
          </g>
          <g
             id="g1100"
             transform="translate(1425.5409,1200.4935)"
             clip-path="url(#clipPath4718)">
            <path
               d="m 0,0 c 0,-75.969 -61.585,-137.554 -137.554,-137.554 -75.97,0 -137.555,61.585 -137.555,137.554 0,75.969 61.585,137.555 137.555,137.555 C -61.585,137.555 0,75.969 0,0 Z"
               style="fill:none;stroke:#f68e1e;stroke-width:4;stroke-linecap:butt;stroke-linejoin:miter;stroke-miterlimit:10;stroke-dasharray:none;stroke-opacity:1"
               id="path1102" />
          </g>
        </g>
      </g>
    </g>
  </g>
</svg>
