<?xml version="1.0" encoding="UTF-8" standalone="no"?>
<!-- Created with Inkscape (http://www.inkscape.org/) -->

<svg
   version="1.1"
   id="svg1754"
   width="176.99884"
   height="199.3383"
   viewBox="0 0 176.99884 199.3383"
   xmlns="http://www.w3.org/2000/svg"
   xmlns:svg="http://www.w3.org/2000/svg">
  
  <g
     id="g1762"
     transform="matrix(1.3333333,0,0,-1.3333333,-1189.4677,618.05945)">
    <g
       id="g9337">
      <g
         id="g2644"
         transform="translate(902.589,370.5266)"
         clip-path="url(#clipPath7221)">
        <path
           d="M 0,0 C 0.034,-0.017 0.068,-0.033 0.102,-0.048 0.499,-0.219 0.936,-0.225 1.336,-0.067 1.736,0.092 2.05,0.397 2.22,0.792 3.156,2.769 5.221,3.879 7.363,3.577 L 7.904,3.501 v -15.299 l -0.586,-0.041 c -0.301,-0.02 -0.603,-0.031 -0.904,-0.031 -4.342,0 -8.509,2.128 -11.04,5.69 -3.317,4.494 -3.546,10.47 -0.579,15.215 2.624,4.376 7.427,6.878 12.531,6.53 L 7.912,15.525 7.902,7.099 7.372,7.016 C 6.122,6.818 4.87,6.55 3.648,6.22 1.82,5.619 0.281,4.251 -0.541,2.474 L -0.593,2.383 C -0.627,2.333 -0.659,2.281 -0.687,2.227 -1.112,1.424 -0.803,0.424 0,0 m 84.078,28.693 -0.103,-0.067 c -0.589,-0.307 -1.223,-0.503 -1.883,-0.584 l -0.556,-0.067 -0.131,0.544 c -0.164,0.682 -0.199,1.381 -0.101,2.078 l 0.032,0.13 c 1.72,4.678 3.51,9.419 5.241,14.004 l 1.822,4.832 c 0.409,1.085 0.462,1.86 0.157,2.304 -0.308,0.447 -1.06,0.677 -2.236,0.683 -1.238,0.005 -2.478,0.004 -3.719,0.002 -1.701,-0.002 -3.405,-0.005 -5.107,0.009 -0.75,0.005 -1.665,0.099 -2.088,0.779 -0.422,0.681 -0.101,1.543 0.227,2.217 5.235,10.738 10.46,21.48 15.672,32.226 0.559,1.343 1.94,2.177 3.426,2.054 2.357,-0.024 4.804,-0.019 7.172,-0.014 l 2.921,0.004 c 1.354,0 2.707,0.003 4.059,0.005 2.031,0.003 4.061,0.005 6.09,0.002 1.451,-0.008 2.529,-0.498 3.039,-1.377 0.512,-0.885 0.397,-2.074 -0.325,-3.35 L 104.943,62.608 c -0.618,-1.092 -0.796,-1.973 -0.5,-2.481 0.298,-0.509 1.155,-0.79 2.415,-0.79 0.93,-0.003 1.86,0 2.79,0.002 2.319,0.004 4.716,0.01 7.076,-0.038 0.539,-0.011 0.998,-0.293 1.402,-0.543 0.145,-0.089 0.287,-0.178 0.43,-0.248 l 0.565,-0.276 -0.276,-0.565 c -0.074,-0.151 -0.134,-0.316 -0.195,-0.48 -0.167,-0.447 -0.355,-0.954 -0.77,-1.296 -11.22,-9.076 -22.59,-18.226 -33.802,-27.2 m 20.865,-25.208 0.535,0.08 c 2.154,0.329 4.24,-0.771 5.191,-2.732 l 0.03,-0.074 c 0.224,-0.667 0.935,-1.051 1.615,-0.875 0.526,0.195 1.014,0.603 1.329,1.136 0.112,0.471 0.045,0.96 -0.192,1.385 -1.221,2.542 -3.693,4.202 -6.469,4.366 -0.317,0.038 -0.594,0.059 -0.895,0.082 l -1.075,0.09 v 8.603 l 0.632,-0.004 c 4.29,-0.026 8.288,-2.163 10.692,-5.715 3.255,-4.259 3.547,-10.221 0.703,-14.806 -2.273,-4.183 -6.676,-6.822 -11.471,-6.858 l -0.635,-0.005 z m -3.546,-29.464 0.023,0.09 c 0.811,2.394 1.654,4.963 2.323,7.524 l 0.071,0.277 c 0.672,2.595 0.909,2.803 3.617,3.165 8.107,1.07 14.27,7.773 14.657,15.94 0.427,8.243 -5.107,15.531 -13.158,17.335 -0.742,0.168 -1.491,0.283 -2.284,0.404 -0.374,0.057 -0.75,0.115 -1.127,0.178 l -0.445,0.076 -0.072,0.446 c -0.038,0.239 -0.062,0.48 -0.073,0.722 0.258,6.13 -0.454,12.176 -2.115,18.024 l -0.024,0.165 c -0.008,0.728 0.311,1.41 0.875,1.871 1.72,1.435 3.498,2.861 5.218,4.239 0.814,0.653 1.629,1.307 2.442,1.963 0.842,0.679 1.685,1.355 2.529,2.03 2.177,1.745 4.43,3.549 6.6,5.369 1.612,1.259 2.217,3.374 1.523,5.275 -0.594,1.96 -2.337,3.303 -4.348,3.376 -1.143,0.067 -2.304,0.065 -3.428,0.062 -0.467,-10e-4 -0.936,-0.003 -1.404,10e-4 h -4.089 l 0.876,1.661 c 0.209,0.401 0.372,0.712 0.544,1.017 l 10.506,18.531 c 1.42,2.057 1.32,4.779 -0.211,6.68 -1.061,1.002 -2.244,1.867 -3.519,2.576 L 92.766,93.016 c -2.324,-0.9 -4.142,-2.752 -4.998,-5.098 -2.084,-4.474 -4.272,-8.929 -6.387,-13.237 -0.849,-1.729 -1.698,-3.459 -2.542,-5.19 -0.16,-0.331 -0.331,-0.658 -0.505,-0.989 l -0.492,-0.951 -1.468,0.614 C 62.981,74.313 47.233,73.861 34.23,66.964 31.056,65.157 27.962,63.097 25.048,60.853 l -0.081,-0.055 c -0.311,-0.215 -0.521,-0.537 -0.59,-0.909 -0.069,-0.371 0.011,-0.747 0.226,-1.059 l 0.044,-0.076 c 0.319,-0.641 1.063,-0.934 1.73,-0.679 0.466,0.183 0.897,0.451 1.272,0.795 10.819,9.018 25.422,12.424 39.086,9.135 2.113,-0.456 4.123,-1.164 6.25,-1.912 0.963,-0.339 1.934,-0.682 2.924,-1.001 l 0.69,-0.223 -1.661,-3.402 c -0.784,-1.602 -1.517,-3.101 -2.24,-4.607 -0.914,-1.913 -0.923,-3.832 -0.024,-5.265 0.905,-1.443 2.655,-2.276 4.799,-2.285 h 7.386 L 84.307,47.811 C 84.166,47.429 84.047,47.103 83.926,46.779 83.328,45.19 82.729,43.603 82.129,42.015 80.798,38.49 79.422,34.846 78.1,31.25 c -0.873,-2.075 -0.209,-4.401 1.604,-5.686 1.763,-1.338 4.234,-1.262 5.894,0.168 0.976,0.738 1.913,1.504 2.82,2.244 0.404,0.329 0.807,0.658 1.214,0.985 l 10.101,8.121 0.251,-0.93 c 1.483,-5.479 2.038,-11.128 1.65,-16.788 l -0.04,-0.586 h -0.587 c -0.345,0 -0.669,-0.003 -0.98,-0.006 -0.595,-0.005 -1.143,-0.008 -1.69,0.006 -14.859,0.126 -29.521,2.665 -43.569,7.547 -10.514,3.861 -18.179,8.45 -24.132,14.445 -0.427,0.374 -1.041,0.549 -1.639,0.455 C 28.422,40.854 28.006,40.291 27.822,39.629 27.641,39.07 27.577,38.483 27.511,37.862 27.44,37.205 27.367,36.525 27.153,35.866 24.958,29.11 20.196,23.944 12.595,20.074 c -0.261,-0.135 -0.52,-0.086 -0.69,-0.054 -0.034,0.007 -0.069,0.014 -0.104,0.018 l -0.546,0.051 -0.025,0.547 c -0.211,4.719 0.214,9.446 1.264,14.051 1.44,5.897 3.997,11.35 7.605,16.217 1.163,1.581 0.644,2.296 0.061,2.742 -0.34,0.261 -0.699,0.369 -1.066,0.314 -0.517,-0.075 -1.063,-0.471 -1.535,-1.116 -0.791,-1.081 -1.491,-2.1 -2.141,-3.116 C 10.19,41.408 7.621,31.815 7.994,21.99 8.006,21.428 8.002,20.877 7.998,20.327 L 7.995,18.898 7.372,18.891 c -11.528,-0.124 -17.711,-8.556 -17.86,-16.823 -0.002,-0.374 0.01,-0.756 0.033,-1.137 0.593,-9.489 8.804,-16.72 18.286,-16.135 l 0.298,0.018 0.203,-0.219 c 0.108,-0.116 0.197,-0.248 0.267,-0.392 l 0.038,-0.099 c 0.071,-0.248 0.128,-0.501 0.182,-0.752 4.153,-19.302 15.445,-31.905 33.563,-37.46 18.069,-5.54 34.418,-1.388 48.597,12.34 2.163,2.305 4.197,4.81 6.023,7.423 l 0.043,0.056 c 0.029,0.032 0.055,0.066 0.081,0.1 0.468,0.638 0.33,1.54 -0.309,2.009 l -0.07,0.059 c -0.54,0.533 -1.39,0.539 -1.937,0.015 -0.353,-0.332 -0.655,-0.708 -0.901,-1.12 -6.241,-9.322 -15.648,-15.922 -26.505,-18.612 -10.859,-2.691 -22.26,-1.245 -32.103,4.069 -14.585,7.82 -22.601,20.1 -23.823,36.501 -0.407,5.492 -0.362,11.097 -0.319,16.516 0.023,2.84 0.046,5.776 0.004,8.657 -0.137,1.251 0.669,2.463 1.925,2.841 7.186,3.076 12.973,8.666 16.295,15.745 0.266,0.572 0.489,1.18 0.726,1.824 0.118,0.323 0.24,0.655 0.372,0.995 l 0.313,0.808 0.671,-0.549 c 4.936,-4.032 10.408,-7.354 16.263,-9.873 13.272,-5.83 27.901,-8.992 46.041,-9.951 1.596,-0.085 3.187,-0.063 4.872,-0.039 0.794,0.011 1.6,0.022 2.422,0.022 h 0.629 v -2.625 c 0,-1.848 -0.005,-3.697 -0.011,-5.546 -0.013,-4.158 -0.026,-8.457 0.029,-12.682 0.236,-6.736 -0.865,-13.357 -3.274,-19.665 l -0.042,-0.087 c -0.036,-0.062 -0.067,-0.126 -0.094,-0.193 -0.166,-0.403 -0.166,-0.847 0.002,-1.248 0.168,-0.403 0.482,-0.716 0.885,-0.881 0.101,-0.042 0.21,-0.073 0.319,-0.093 0.883,-0.161 1.731,0.43 1.891,1.313"
           style="fill:#ffffff;fill-opacity:1;fill-rule:nonzero;stroke:none"
           id="path2646" />
      </g>
      <g
         id="g2648"
         transform="translate(910.4846,435.3918)"
         clip-path="url(#clipPath7215)">
        <path
           d="m 0,0 c 0.023,0.422 -0.12,0.827 -0.402,1.141 l -0.054,0.07 c -4.085,6.098 -8.228,12.238 -12.315,18.252 -0.046,0.077 -0.065,0.107 -0.084,0.137 -0.237,0.36 -0.599,0.605 -1.021,0.691 -0.109,0.023 -0.218,0.034 -0.327,0.034 -0.312,0 -0.617,-0.091 -0.883,-0.267 -0.064,-0.041 -0.117,-0.079 -0.168,-0.12 -0.319,-0.263 -0.516,-0.634 -0.555,-1.044 -0.04,-0.411 0.083,-0.812 0.346,-1.131 l 0.047,-0.066 c 0.543,-0.865 1.132,-1.725 1.702,-2.556 0.247,-0.36 0.494,-0.722 0.739,-1.084 L -4.269,1.152 -7.8,0.338 c -1.915,-0.44 -3.749,-0.861 -5.576,-1.301 l -0.106,-0.017 c -0.389,-0.025 -0.757,-0.187 -1.04,-0.454 -0.323,-0.306 -0.508,-0.72 -0.52,-1.166 -0.011,-0.446 0.151,-0.869 0.457,-1.193 l 0.069,-0.085 c 2.796,-4.224 5.672,-8.54 8.549,-12.825 0.532,-0.793 1.393,-1.594 2.472,-0.903 0.371,0.238 0.598,0.543 0.674,0.905 0.107,0.508 -0.071,1.133 -0.515,1.806 -1.294,1.971 -2.601,3.93 -3.907,5.889 -0.758,1.137 -1.515,2.272 -2.27,3.41 -0.166,0.249 -0.306,0.51 -0.455,0.785 -0.074,0.138 -0.153,0.285 -0.242,0.442 l -0.413,0.73 4.939,1.158 c 0.434,0.102 0.868,0.201 1.303,0.3 0.924,0.211 1.879,0.43 2.815,0.673 l 0.11,0.018 c 0.345,0.027 0.676,0.169 0.933,0.4 0.314,0.282 0.5,0.669 0.523,1.09"
           style="fill:#ffffff;fill-opacity:1;fill-rule:nonzero;stroke:none"
           id="path2650" />
      </g>
      <g
         id="g2652"
         transform="translate(929.2112,447.8487)"
         clip-path="url(#clipPath7209)">
        <path
           d="m 0,0 c 0.366,0.174 0.643,0.481 0.778,0.862 0.136,0.382 0.115,0.794 -0.059,1.16 -1.564,3.806 -3.226,7.507 -4.646,10.63 -0.037,0.09 -0.064,0.148 -0.094,0.203 -0.185,0.342 -0.495,0.592 -0.87,0.703 -0.375,0.111 -0.77,0.069 -1.114,-0.118 l -0.12,-0.059 C -6.878,12.989 -7.176,12.048 -6.78,11.288 -6.166,9.786 -5.523,8.326 -4.902,6.914 -4.669,6.384 -4.436,5.853 -4.204,5.321 -4.087,5.047 -3.981,4.773 -3.847,4.426 -3.746,4.168 -3.63,3.869 -3.482,3.498 l 0.345,-0.862 h -0.929 c -0.676,0 -1.319,0.009 -1.939,0.018 -0.564,0.008 -1.116,0.016 -1.656,0.016 -0.719,0 -1.42,-0.014 -2.108,-0.061 -0.696,-0.046 -1.253,-0.326 -1.53,-0.768 -0.227,-0.363 -0.247,-0.803 -0.056,-1.275 1.456,-3.596 3.098,-7.425 5.019,-11.706 0.371,-0.741 1.212,-1.021 1.9,-0.676 0.835,0.332 1.229,1.223 0.931,2.01 -0.191,0.546 -0.421,1.057 -0.665,1.597 -0.122,0.271 -0.244,0.541 -0.36,0.813 l -2.921,6.85 0.892,0.052 c 0.607,0.036 1.197,0.068 1.776,0.099 1.364,0.074 2.651,0.143 3.952,0.25 l 0.044,0.003 0.044,-0.002 C -0.482,-0.162 -0.23,-0.109 0,0"
           style="fill:#ffffff;fill-opacity:1;fill-rule:nonzero;stroke:none"
           id="path2654" />
      </g>
      <g
         id="g2656"
         transform="translate(958.9245,347.8175)"
         clip-path="url(#clipPath7203)">
        <path
           d="m 0,0 c 1.011,0 2.031,-0.093 3.047,-0.284 3.238,-0.552 6.207,-2.053 8.578,-4.34 L 11.691,-4.7 c 0.072,-0.095 0.153,-0.182 0.242,-0.257 0.674,-0.573 1.685,-0.489 2.256,0.182 0.024,0.029 0.048,0.06 0.071,0.092 0.264,0.37 0.368,0.818 0.293,1.264 -0.074,0.446 -0.318,0.836 -0.686,1.099 l -0.07,0.058 C 10.123,1.268 5.297,3.211 0.203,3.211 H 0.147 0.141 c -0.037,0 -0.075,0.001 -0.112,0.001 -5.074,0 -9.883,-1.928 -13.555,-5.435 l -0.082,-0.067 c -0.069,-0.047 -0.135,-0.098 -0.197,-0.154 -0.333,-0.303 -0.528,-0.717 -0.549,-1.165 -0.021,-0.45 0.134,-0.879 0.436,-1.211 0.436,-0.458 1.18,-0.949 2.513,0.174 0.114,0.097 0.226,0.201 0.337,0.304 0.142,0.133 0.284,0.264 0.433,0.388 C -7.637,-1.377 -3.878,0 0,0"
           style="fill:#ffffff;fill-opacity:1;fill-rule:nonzero;stroke:none"
           id="path2658" />
      </g>
      <g
         id="g2660"
         transform="translate(970.0901,368.4657)"
         clip-path="url(#clipPath7197)">
        <path
           d="m 0,0 c -0.268,-0.244 -0.431,-0.519 -0.505,-0.828 -0.198,-0.835 0.321,-1.676 1.156,-1.874 3.387,-1.099 7.072,-2.235 11.647,-3.589 l 0.085,-0.031 c 0.385,-0.144 0.794,-0.127 1.159,0.04 0.366,0.168 0.645,0.468 0.785,0.845 0.068,0.155 0.107,0.279 0.129,0.405 0.075,0.41 -0.015,0.825 -0.253,1.168 -0.238,0.344 -0.596,0.573 -1.007,0.648 l -0.083,0.021 c -1.809,0.59 -3.623,1.143 -5.544,1.728 -0.819,0.25 -1.655,0.505 -2.514,0.769 l -1.014,0.313 0.762,0.74 c 1.022,0.992 1.881,1.829 2.756,2.689 l 0.557,0.543 c 0.675,0.655 1.372,1.333 1.998,2.037 0.066,0.066 0.09,0.09 0.114,0.115 0.576,0.617 0.543,1.588 -0.073,2.164 L 10.096,7.959 C 9.794,8.244 9.408,8.385 9.021,8.385 8.604,8.385 8.188,8.22 7.879,7.893 5.476,5.546 2.678,2.788 0,0"
           style="fill:#ffffff;fill-opacity:1;fill-rule:nonzero;stroke:none"
           id="path2662" />
      </g>
      <g
         id="g2664"
         transform="translate(948.1705,366.906)"
         clip-path="url(#clipPath7191)">
        <path
           d="m 0,0 c 0.138,0.553 -0.149,1.229 -0.808,1.902 -2.415,2.462 -4.911,4.937 -7.261,7.26 L -8.135,9.238 C -8.185,9.307 -8.24,9.371 -8.3,9.432 -8.626,9.76 -9.056,9.924 -9.486,9.924 c -0.427,0 -0.855,-0.163 -1.181,-0.487 -0.718,-0.743 -0.597,-1.614 0.368,-2.582 C -9.2,5.754 -8.085,4.668 -6.894,3.51 l 2.386,-2.329 -4.528,-1.406 c -1.474,-0.457 -2.896,-0.897 -4.315,-1.342 -0.746,-0.233 -1.942,-0.818 -1.574,-2.113 0.02,-0.063 0.049,-0.139 0.085,-0.213 0.195,-0.407 0.537,-0.713 0.962,-0.863 0.425,-0.148 0.883,-0.124 1.289,0.071 l 0.091,0.035 c 2.99,0.904 6.934,2.103 10.916,3.366 C -0.698,-1.003 -0.136,-0.547 0,0"
           style="fill:#ffffff;fill-opacity:1;fill-rule:nonzero;stroke:none"
           id="path2666" />
      </g>
    </g>
  </g>
</svg>
