<?xml version="1.0" encoding="UTF-8" standalone="no"?>
<!-- Created with Inkscape (http://www.inkscape.org/) -->

<svg
   version="1.1"
   id="svg1754"
   width="180.23758"
   height="199.9137"
   viewBox="0 0 180.23758 199.9137"
   xmlns="http://www.w3.org/2000/svg"
   xmlns:svg="http://www.w3.org/2000/svg">

  <g
     id="g1762"
     transform="matrix(1.3333333,0,0,-1.3333333,-765.34451,1700.6147)">
    <g
       id="g8883">
      <g
         id="g2680"
         transform="translate(659.3901,1167.1262)"
         clip-path="url(#clipPath7755)">
        <path
           d="m 0,0 c -5.406,-3.04 -11.511,-4.593 -17.657,-4.593 -3.693,-0.001 -7.4,0.56 -10.983,1.695 -9.236,2.926 -16.85,9.465 -20.89,17.94 -2.472,5.227 -3.764,11.043 -3.738,16.824 -0.013,5.077 -0.008,10.159 -0.004,15.241 l 0.004,7.622 c 0,4.039 0.343,4.524 4.074,5.769 4.758,1.435 8.526,5.092 10.097,9.788 0.26,0.73 0.479,1.482 0.71,2.278 0.118,0.409 0.241,0.831 0.376,1.274 l 0.296,0.973 0.734,-0.704 c 5.863,-5.617 13.199,-5.763 19.601,-5.166 4.319,0.609 8.667,-0.745 11.899,-3.718 2.984,-2.74 5.988,-5.261 9.918,-6.003 2.993,-0.515 6.061,-0.821 9.108,-0.908 3.172,-0.14 4.404,-1.346 4.404,-4.301 0.003,-2.206 0.021,-4.413 0.04,-6.62 0.043,-5.138 0.088,-10.451 -0.079,-15.675 -0.099,-3.078 -0.443,-5.983 -1.033,-8.709 h 3.563 c 0.288,4.349 0.563,8.503 0.838,12.751 l 0.036,0.561 0.562,0.023 c 3,0.13 5.831,-1.517 7.225,-4.17 1.414,-2.543 1.035,-5.704 -0.95,-7.853 -1.681,-2.165 -4.548,-3.181 -7.27,-2.544 l -4.066,0.949 C 14.562,12.642 8.93,5.022 0,0 m -9.722,-17.049 c -1.522,-3.06 -4.66,-4.942 -7.991,-4.942 -0.554,0 -1.114,0.052 -1.672,0.159 -3.917,0.762 -6.863,4.071 -7.165,8.048 -0.106,1.358 -0.081,2.709 -0.054,4.139 0.012,0.654 0.025,1.325 0.025,2.016 v 0.625 l 0.755,-0.013 c 5.398,-1.138 10.87,-1.137 16.268,0.003 l 0.797,0.169 -0.044,-0.814 c -0.049,-0.91 -0.017,-1.839 0.014,-2.738 0.076,-2.193 0.155,-4.46 -0.933,-6.652 M -56.297,21.89 c -0.621,-0.176 -1.252,-0.262 -1.875,-0.262 -2.04,0 -4.008,0.913 -5.331,2.557 -1.98,2.263 -2.342,5.584 -0.883,8.243 1.347,2.631 4.244,4.182 7.194,3.832 l 0.519,-0.061 0.032,-0.522 c 0.263,-4.323 0.525,-8.654 0.797,-13.148 l 0.03,-0.502 z m 87.222,-52.787 c 2.406,-0.014 4.894,-0.029 7.335,0.028 1.122,-0.033 2.192,0.116 3.226,0.443 5.045,1.598 7.849,7.003 6.251,12.048 -0.515,1.713 -1.168,3.385 -1.944,4.981 -1.52,3.236 -1.586,6.969 -0.184,10.248 0.197,0.486 0.403,0.98 0.609,1.474 0.303,0.728 0.606,1.455 0.896,2.189 2.342,5.304 3.171,11.118 2.406,16.838 -0.89,4.762 -2.749,9.227 -5.522,13.239 -4.65,7.183 -6.721,15.808 -5.84,24.302 1.026,13.608 -3.578,25.928 -13.686,36.599 -0.516,0.545 -1.031,0.835 -1.489,0.84 -0.384,0.014 -0.727,-0.176 -1.077,-0.53 -0.251,-0.257 -1.02,-1.041 0.304,-2.54 0.322,-0.365 0.648,-0.726 0.974,-1.088 0.92,-1.018 1.871,-2.072 2.715,-3.195 6.911,-8.747 10.14,-19.691 9.083,-30.804 -0.915,-8.577 1.172,-17.274 5.875,-24.496 1.192,-1.893 2.286,-3.864 3.257,-5.865 2.43,-4.525 3.191,-9.812 2.13,-14.863 -0.84,-3.474 -1.955,-6.887 -3.319,-10.165 -2.022,-4.505 -1.937,-9.614 0.228,-14.034 0.608,-1.198 1.13,-2.464 1.547,-3.753 0.21,-0.532 0.349,-1.128 0.401,-1.737 0.291,-3.452 -2.28,-6.497 -5.732,-6.788 -3.234,-0.222 -6.53,-0.17 -9.718,-0.12 -1.41,0.022 -2.825,0.044 -4.246,0.044 h -0.537 l -0.08,0.532 C 23.099,-15.844 17.179,-5.893 8.119,0.95 L 7.58,1.358 8.029,1.864 c 0.081,0.09 0.147,0.169 0.205,0.237 0.123,0.145 0.218,0.254 0.323,0.351 4.465,4.087 7.923,9.247 10.002,14.925 0.529,1.435 1.591,1.295 2.293,1.205 l 0.084,-0.011 c 5.729,-0.767 11.003,3.088 12.012,8.774 0.833,5.641 -2.908,10.939 -8.521,12.045 -0.57,0.117 -1.164,0.166 -1.793,0.216 -0.311,0.026 -0.627,0.051 -0.948,0.086 l -0.559,0.059 v 0.562 c 0,1.587 0.003,3.161 0.005,4.726 0.005,3.103 0.009,6.172 -0.005,9.24 0.019,0.349 0.015,0.665 -0.011,0.977 -0.149,1.814 -0.996,3.462 -2.384,4.639 -1.389,1.177 -3.151,1.745 -4.967,1.594 -2.078,-0.035 -4.136,0.073 -6.157,0.322 -3.968,0.527 -7.678,2.401 -10.451,5.278 -3.65,3.844 -8.964,5.722 -14.215,5.034 -2.252,-0.224 -4.518,-0.267 -6.753,-0.129 -6.201,0.337 -10.244,2.558 -12.717,6.99 -0.512,0.954 -1.672,1.344 -2.648,0.894 -1.026,-0.457 -1.65,-1.471 -1.597,-2.585 l 0.002,-0.048 -0.005,-0.048 c -0.841,-8.017 -4.28,-12.515 -10.821,-14.155 -0.123,-0.037 -0.27,-0.097 -0.411,-0.17 l -0.07,-0.031 c -2.764,-1.023 -4.53,-3.689 -4.393,-6.634 0.046,-3.356 0.035,-6.747 0.025,-10.026 -0.005,-1.439 -0.009,-2.878 -0.009,-4.317 v -2.19 l -1.072,-0.072 c -0.231,-0.017 -0.413,-0.031 -0.595,-0.038 l -0.146,-0.007 c -2.86,-0.14 -5.493,-1.387 -7.415,-3.51 -1.923,-2.122 -2.903,-4.865 -2.762,-7.725 0.015,-0.186 0.036,-0.389 0.064,-0.591 0.383,-2.826 1.845,-5.335 4.116,-7.064 2.27,-1.728 5.078,-2.471 7.906,-2.084 1.328,0.186 2.057,-0.235 2.51,-1.455 2.013,-5.383 5.285,-10.314 9.464,-14.258 0.251,-0.24 0.463,-0.494 0.603,-0.662 l 0.49,-0.551 -0.408,-0.419 c -0.772,-0.794 -1.539,-1.573 -2.299,-2.345 -1.763,-1.792 -3.428,-3.484 -5.07,-5.252 -0.521,-0.562 -0.776,-1.11 -0.737,-1.586 0.03,-0.386 0.254,-0.743 0.664,-1.063 0.733,-0.575 1.308,-0.619 2.58,0.675 1.519,1.543 3.113,3.06 4.654,4.525 0.782,0.745 1.564,1.488 2.34,2.238 0.917,0.885 1.76,0.612 2.533,0.185 2.368,-1.3 4.958,-2.621 7.918,-4.039 0.873,-0.279 1.432,-1.131 1.336,-2.047 -0.037,-1.853 -0.063,-3.899 0.014,-5.962 0.191,-6.466 5.585,-11.695 12.041,-11.695 h 0.125 c 6.497,0 11.858,5.267 11.965,11.763 0.027,0.898 0.024,1.808 0.021,2.688 -0.004,1.058 -0.008,2.152 0.04,3.231 0.063,0.743 0.436,1.389 1.025,1.802 l 0.074,0.044 c 2.3,1.173 4.603,2.279 7.04,3.45 l 2.622,1.263 0.301,-0.215 c 7.092,-5.065 12.377,-12.452 14.88,-20.801 1.507,-5.667 2.074,-11.489 1.691,-17.322 -0.134,-0.969 0.303,-1.887 1.092,-2.371 l 1.091,0.009 c 0.751,0.555 1.148,1.487 1.02,2.42 l -0.005,0.069 c -0.045,1.761 -0.036,3.489 -0.027,5.318 0.004,0.749 0.008,1.505 0.008,2.27 v 0.625 h 2.41 c 1.093,0 2.185,-0.006 3.278,-0.012"
           style="fill:#ffffff;fill-opacity:1;fill-rule:nonzero;stroke:none"
           id="path2682" />
      </g>
      <g
         id="g2684"
         transform="translate(673.7056,1264.8228)"
         clip-path="url(#clipPath7749)">
        <path
           d="m 0,0 c 0.008,0.014 0.027,0.049 0.045,0.085 0.402,0.795 0.082,1.768 -0.713,2.17 -0.709,0.447 -1.424,0.857 -2.179,1.251 -14.606,7.723 -32,9.254 -47.728,4.202 -9.722,-2.754 -18.462,-8.125 -25.294,-15.541 -8.877,-9.542 -13.296,-22.457 -12.128,-35.436 0.734,-6.545 -0.379,-13.162 -3.22,-19.121 -1.283,-2.466 -2.692,-4.839 -3.904,-6.837 -5.437,-8.404 -6.074,-19.186 -1.671,-28.155 2.79,-6.091 2.796,-11.321 0.025,-16.477 -0.899,-1.818 -1.311,-3.869 -1.182,-5.915 0.276,-5.021 4.47,-8.724 9.973,-8.809 2.436,-0.036 4.919,-0.026 7.319,-0.018 1.099,0.004 2.198,0.009 3.297,0.009 h 2.271 v -0.625 c 0,-0.804 0.004,-1.589 0.008,-2.361 0.009,-1.852 0.018,-3.6 -0.027,-5.367 -0.098,-0.95 0.29,-1.819 1.015,-2.349 l 1.371,-0.003 c 0.679,0.577 1.045,1.463 0.962,2.357 -0.039,6.857 0.153,14.077 2.86,20.989 0.095,0.592 -0.069,1.193 -0.453,1.654 -0.166,0.168 -0.419,0.312 -0.698,0.379 -0.816,0.201 -1.646,-0.303 -1.846,-1.123 -0.768,-2.291 -1.431,-4.513 -2.133,-6.865 -0.29,-0.975 -0.583,-1.955 -0.883,-2.941 l -0.135,-0.442 H -89.27 c -0.229,0.012 -0.42,0.044 -0.605,0.097 -3.37,0.732 -5.554,4.111 -4.832,7.523 0.434,1.63 1.019,3.193 1.747,4.677 1.744,3.574 2.095,7.648 0.987,11.47 -0.321,1.091 -0.728,2.19 -1.122,3.254 -0.393,1.064 -0.801,2.165 -1.131,3.28 -0.948,2.724 -1.679,5.578 -2.164,8.455 -0.683,5.662 0.911,11.175 5.012,17.379 5.086,7.557 7.437,16.71 6.624,25.777 -0.362,3.668 -0.245,7.378 0.347,11.024 2.33,13.592 10.588,25.2 22.659,31.853 15.569,8.962 32.634,10.352 50.712,4.124 2.997,-1.201 5.931,-2.577 8.75,-4.099 C -1.495,-0.968 -0.486,-0.747 0,0"
           style="fill:#ffffff;fill-opacity:1;fill-rule:nonzero;stroke:none"
           id="path2686" />
      </g>
      <g
         id="g2688"
         transform="translate(616.8261,1202.2074)"
         clip-path="url(#clipPath7743)">
        <path
           d="m 0,0 c 0.216,-1.688 0.881,-3.315 1.92,-4.688 3.286,-4.336 9.487,-5.19 13.824,-1.906 2.858,2.142 4.388,5.673 3.997,9.218 l -0.004,0.069 c 0,0.343 0.003,0.661 0.006,0.962 0.007,0.586 0.012,1.091 -0.009,1.596 l -0.001,0.037 0.002,0.037 c 0.004,0.05 0.006,0.101 0.005,0.152 -0.015,0.871 -0.73,1.57 -1.599,1.57 -0.009,0 -0.018,0 -0.028,0 C 18.073,7.046 18.026,7.043 17.979,7.037 17.55,6.989 17.17,6.778 16.904,6.444 16.638,6.11 16.518,5.693 16.566,5.268 L 16.571,5.228 16.57,5.188 C 16.562,4.667 16.565,4.142 16.569,3.617 16.574,2.871 16.579,2.1 16.549,1.336 16.627,-2.221 13.766,-5.24 10.172,-5.356 10.119,-5.363 10.026,-5.369 9.933,-5.374 8.198,-5.463 6.54,-4.876 5.252,-3.716 3.964,-2.557 3.205,-0.964 3.114,0.766 3.009,1.688 3.014,2.656 3.018,3.593 3.02,4.128 3.023,4.665 3.004,5.198 2.986,5.754 2.797,7.045 1.455,7.045 H 1.44 C 1.38,7.045 1.323,7.042 1.267,7.037 0.401,6.95 -0.234,6.172 -0.147,5.303 L -0.143,5.259 -0.145,5.214 C -0.218,3.481 -0.169,1.726 0,0"
           style="fill:#ffffff;fill-opacity:1;fill-rule:nonzero;stroke:none"
           id="path2690" />
      </g>
      <g
         id="g2692"
         transform="translate(648.3266,1209.2554)"
         clip-path="url(#clipPath7737)">
        <path
           d="m 0,0 h -0.007 l -0.072,-0.001 c -0.418,-0.012 -0.81,-0.188 -1.1,-0.496 -0.29,-0.307 -0.443,-0.709 -0.43,-1.131 -0.001,-0.017 -0.002,-0.033 -0.003,-0.049 v -2.169 c 0,-0.236 -0.004,-0.47 -0.008,-0.705 -0.008,-0.458 -0.016,-0.892 0.007,-1.325 0.038,-5.02 3.812,-9.156 8.781,-9.647 5.023,-0.742 9.714,2.556 10.713,7.502 0.333,2.104 0.451,4.278 0.344,6.436 0.002,0.108 10e-4,0.164 -0.004,0.219 -0.064,0.822 -0.788,1.438 -1.604,1.375 L 16.536,0.003 C 16.118,-0.034 15.74,-0.231 15.471,-0.552 15.201,-0.873 15.073,-1.28 15.11,-1.698 l 0.003,-0.038 -10e-4,-0.039 c -0.019,-0.548 -0.015,-1.097 -0.01,-1.645 0.007,-0.873 0.014,-1.775 -0.073,-2.669 -10e-4,-0.121 -0.012,-0.29 -0.028,-0.458 -0.175,-1.737 -1.016,-3.302 -2.367,-4.406 -1.352,-1.104 -3.052,-1.617 -4.788,-1.442 -1.77,0.087 -3.393,0.856 -4.579,2.165 -1.185,1.309 -1.789,3.001 -1.702,4.765 -0.009,0.498 -0.006,1.036 -0.003,1.576 0.004,0.723 0.009,1.471 -0.018,2.199 l 0.003,0.153 C 1.543,-0.689 0.85,0 0,0"
           style="fill:#ffffff;fill-opacity:1;fill-rule:nonzero;stroke:none"
           id="path2694" />
      </g>
      <g
         id="g2696"
         transform="translate(651.0835,1179.8337)"
         clip-path="url(#clipPath7731)">
        <path
           d="M 0,0 C 0.264,0.357 0.372,0.794 0.307,1.232 0.241,1.669 0.009,2.055 -0.347,2.319 l -0.064,0.054 c -2.394,2.328 -5.684,3.633 -9.02,3.555 h -0.026 c -0.086,0.002 -0.171,0.003 -0.257,0.003 -3.251,0 -6.434,-1.288 -8.769,-3.556 l -0.07,-0.058 c -0.049,-0.035 -0.096,-0.073 -0.14,-0.114 -0.67,-0.611 -0.718,-1.654 -0.107,-2.324 l 0.056,-0.052 c 0.664,-0.603 1.698,-0.553 2.303,0.113 l 0.061,0.058 c 4.49,3.769 9.274,3.779 13.835,0.028 l 0.071,-0.067 c 0.045,-0.052 0.094,-0.1 0.146,-0.146 0.33,-0.287 0.75,-0.426 1.187,-0.399 0.435,0.03 0.833,0.228 1.12,0.557 z"
           style="fill:#ffffff;fill-opacity:1;fill-rule:nonzero;stroke:none"
           id="path2698" />
      </g>
      <g
         id="g2700"
         transform="translate(637.5479,1221.6847)"
         clip-path="url(#clipPath7725)">
        <path
           d="m 0,0 c -0.291,0.373 -0.727,0.568 -1.168,0.568 -0.319,0 -0.641,-0.102 -0.911,-0.313 -2.336,-1.621 -5.034,-2.605 -7.831,-2.866 -0.104,-0.004 -0.16,-0.007 -0.215,-0.014 -0.81,-0.098 -1.389,-0.837 -1.291,-1.648 0.077,-0.884 0.811,-1.523 1.677,-1.471 h 0.001 c 3.428,0.189 6.694,1.376 9.444,3.43 0.726,0.511 0.892,1.458 0.411,2.143 C 0.067,-0.092 0.035,-0.045 0,0"
           style="fill:#ffffff;fill-opacity:1;fill-rule:nonzero;stroke:none"
           id="path2702" />
      </g>
      <g
         id="g2704"
         transform="translate(646.7379,1221.5438)"
         clip-path="url(#clipPath7719)">
        <path
           d="M 0,0 C -0.056,-0.081 -0.092,-0.139 -0.123,-0.201 -0.514,-0.956 -0.218,-1.89 0.539,-2.283 L 0.616,-2.33 C 3.335,-4.283 6.538,-5.416 9.88,-5.605 l 0.07,-0.004 c 0.386,-0.011 0.766,0.124 1.056,0.393 0.29,0.268 0.458,0.633 0.474,1.028 0.085,1.064 -0.444,1.622 -1.617,1.735 -2.695,0.267 -5.297,1.218 -7.528,2.751 L 2.28,0.34 C 2.223,0.389 2.162,0.435 2.097,0.476 1.847,0.634 1.566,0.709 1.289,0.709 0.784,0.709 0.289,0.458 0,0"
           style="fill:#ffffff;fill-opacity:1;fill-rule:nonzero;stroke:none"
           id="path2706" />
      </g>
    </g>
  </g>
</svg>
