<?xml version="1.0" encoding="UTF-8" standalone="no"?>
<!-- Created with Inkscape (http://www.inkscape.org/) -->

<svg
   version="1.1"
   id="svg1754"
   width="194.79543"
   height="170.41783"
   viewBox="0 0 194.79543 170.41783"
   xmlns="http://www.w3.org/2000/svg"
   xmlns:svg="http://www.w3.org/2000/svg">
  
  <g
     id="g1762"
     transform="matrix(1.3333333,0,0,-1.3333333,-1818.1878,1237.4326)">
    <g
       id="g9426">
      <g
         id="g2820"
         transform="translate(1426.7189,808.6278)"
         clip-path="url(#clipPath9390)">
        <path
           d="m 0,0 -1.535,1.28 c -0.144,0.108 -0.3,0.239 -0.449,0.38 -4.467,4.468 -9.006,8.976 -13.418,13.357 l -0.879,0.872 c -10.62,10.539 -21.602,21.438 -32.211,32.411 -9.941,10.139 -13.667,24.916 -9.721,38.56 3.481,12.432 12.779,22.35 24.757,26.717 h -0.681 l 3.709,0.968 c 0.364,0.101 0.728,0.196 1.096,0.286 l 0.025,0.007 c 9.598,2.505 19.69,1.291 28.419,-3.416 0.214,-0.111 0.419,-0.237 0.656,-0.383 L 1.236,110.152 -6.88,98.835 C -7.539,97.92 -8.196,97.005 -8.851,96.087 L -8.928,95.998 C -9.724,95.232 -9.75,93.961 -8.984,93.164 l 0.137,-0.15 C -6.224,89.27 -3.599,85.525 -0.97,81.781 L 3.306,75.69 C 3.491,75.427 3.672,75.161 3.867,74.871 L 4.637,73.737 3.88,72.578 C 3.697,72.295 3.51,72.005 3.306,71.725 -0.669,66.185 -4.655,60.642 -8.645,55.101 l -6.143,-8.552 c -1.344,-1.872 -1.344,-1.945 0.043,-3.874 l 4.435,-6.174 C -5.465,29.755 -0.454,22.779 4.552,15.858 5.383,14.903 5.57,13.487 4.994,12.297 3.919,9.752 2.884,7.176 1.832,4.543 1.433,3.548 1.031,2.547 0.625,1.539 Z m 2.234,-3.447 0.022,0.062 c 0.801,1.967 1.595,3.937 2.382,5.911 l 0.086,0.217 c 1.332,3.321 2.71,6.755 4.122,10.112 0.572,1.123 0.418,2.416 -0.371,3.337 -2.444,3.357 -4.872,6.735 -7.248,10.039 l -1.528,2.124 c -3.286,4.574 -6.685,9.303 -10.059,13.929 -1.266,1.372 -1.242,3.469 0.053,4.813 4.654,6.378 9.323,12.882 14.096,19.538 l 3.83,5.34 c 1.168,1.628 1.169,1.788 0.024,3.419 -2.475,3.529 -4.951,7.054 -7.428,10.578 l -4.757,6.781 c -0.148,0.214 -0.294,0.427 -0.439,0.642 l -0.805,1.177 3.536,4.926 c 2.322,3.233 4.619,6.431 6.907,9.634 l 0.045,0.055 c 0.443,0.494 0.678,1.15 0.651,1.812 -0.226,0.631 -0.695,1.157 -1.297,1.451 l -0.066,0.038 c -8.64,5.59 -19.017,7.924 -29.217,6.573 -17.253,-2.19 -31.44,-14.42 -36.148,-31.158 -0.486,-1.76 -0.823,-3.62 -1.15,-5.418 L -62.631,81.9 c -0.142,-0.791 -0.289,-1.611 -0.447,-2.414 v -6.964 c 0.009,-0.029 0.018,-0.057 0.027,-0.086 0.101,-0.298 0.17,-0.596 0.208,-0.898 0.837,-9.595 5.012,-18.633 11.756,-25.475 12.369,-12.52 24.888,-25.026 37.695,-37.804 4.129,-4.121 8.255,-8.244 12.38,-12.366 0.481,-0.58 1.154,-0.872 1.836,-0.818 0.683,0.235 1.207,0.784 1.41,1.478"
           style="fill:#ffffff;fill-opacity:1;fill-rule:nonzero;stroke:none"
           id="path2822" />
      </g>
      <g
         id="g2824"
         transform="translate(1509.1624,891.2078)"
         clip-path="url(#clipPath9384)">
        <path
           d="m 0,0 c -1.77,11.912 -8.505,22.598 -18.479,29.328 -9.955,6.819 -22.4,9.158 -34.146,6.418 -0.823,-0.229 -1.563,-0.715 -2.115,-1.4 -3.036,-3.887 -6.086,-7.89 -9.035,-11.761 l -0.288,-0.379 c -1.793,-2.353 -3.589,-4.704 -5.388,-7.052 l -0.282,-0.369 c -1.216,-1.579 -1.886,-2.448 -1.887,-3.03 -10e-4,-0.623 0.763,-1.763 1.918,-3.49 l 0.049,-0.071 c 2.156,-3.214 4.324,-6.507 6.42,-9.69 l 1.411,-2.141 c 1.121,-1.704 2.244,-3.408 3.368,-5.113 l 0.459,-0.691 -0.807,-1.126 c -0.218,-0.298 -0.414,-0.567 -0.598,-0.851 -0.611,-0.777 -0.492,-1.842 0.229,-2.423 0.346,-0.281 0.779,-0.408 1.223,-0.362 0.442,0.046 0.84,0.263 1.12,0.609 0.025,0.031 0.047,0.06 0.067,0.089 0.442,0.525 0.851,1.077 1.18,1.519 0.163,0.221 0.326,0.439 0.494,0.657 1.176,1.54 1.187,1.828 0.133,3.425 -2.329,3.529 -4.658,7.057 -6.99,10.583 l -4.429,6.702 c -0.188,0.281 -0.374,0.573 -0.56,0.864 l -0.905,1.417 3.299,4.329 c 3.561,4.678 7.704,10.114 11.801,15.436 0.559,0.673 1.318,1.119 2.153,1.276 14.325,2.486 26.576,-1.378 36.43,-11.474 C -6.773,13.767 -2.627,3.463 -2.781,-7.037 -3.005,-17.76 -7.331,-27.809 -14.962,-35.34 -25.239,-45.669 -35.61,-56.024 -45.639,-66.04 l -11.86,-11.847 c -0.216,-0.217 -0.446,-0.407 -0.71,-0.627 -0.175,-0.146 -0.323,-0.27 -0.493,-0.416 l -3.459,-2.964 1.533,4.288 c 0.378,1.061 0.743,2.093 1.098,3.104 0.859,2.436 1.652,4.685 2.513,6.924 0.458,1.031 0.315,2.188 -0.36,3.049 -2.706,3.925 -5.47,8.025 -7.691,11.319 -0.914,1.357 -1.831,2.714 -2.748,4.071 l -7.556,11.18 0.521,0.69 c 0.237,0.314 0.472,0.621 0.713,0.922 0.504,0.653 0.962,1.251 1.403,1.874 l 0.047,0.059 c 0.3,0.333 0.453,0.762 0.43,1.209 -0.023,0.447 -0.218,0.859 -0.551,1.159 -0.029,0.026 -0.056,0.049 -0.084,0.071 -0.288,0.237 -0.639,0.366 -0.998,0.368 -0.582,-0.023 -1.141,-0.319 -1.506,-0.811 -0.658,-0.813 -1.288,-1.649 -1.896,-2.458 -0.295,-0.388 -0.562,-0.741 -0.828,-1.097 -1.379,-1.809 -1.383,-1.914 -0.134,-3.761 l 3.593,-5.315 c 4.105,-6.074 8.757,-12.958 13.316,-19.626 0.813,-1.064 0.987,-2.522 0.435,-3.779 -2.485,-6.797 -4.92,-13.616 -7.179,-19.966 l -0.025,-0.06 c -0.36,-0.76 -0.127,-1.67 0.556,-2.161 0.674,-0.479 1.618,-0.387 2.191,0.219 l 0.049,0.045 c 0.922,0.792 1.814,1.685 2.677,2.55 l 0.38,0.388 c 4.604,4.604 9.205,9.199 13.809,13.792 l 4.218,4.216 c 10.399,10.393 21.153,21.14 31.665,31.724 l 0.012,0.011 C -2.392,-27.97 2.302,-13.878 0,0"
           style="fill:#ffffff;fill-opacity:1;fill-rule:nonzero;stroke:none"
           id="path2826" />
      </g>
      <g
         id="g2828"
         transform="translate(1441.4165,868.2965)"
         clip-path="url(#clipPath9378)">
        <path
           d="m 0,0 c 0.045,-0.915 0.794,-1.651 1.711,-1.679 0.42,0.001 0.846,0.183 1.15,0.503 0.329,0.337 0.504,0.793 0.488,1.257 -0.021,0.884 -0.741,1.584 -1.614,1.584 -0.011,0 -0.024,0 -0.037,-0.001 C 0.734,1.649 0.001,0.904 0,0"
           style="fill:#ffffff;fill-opacity:1;fill-rule:nonzero;stroke:none"
           id="path2830" />
      </g>
    </g>
  </g>
</svg>
