<?xml version="1.0" encoding="UTF-8"?><svg id="Layer_1" xmlns="http://www.w3.org/2000/svg" viewBox="0 0 133.57 148.69"><defs><style>.cls-1{fill:#fff;}</style></defs><path class="cls-1" d="M125.57,96.44c.96,0,1.89-.13,2.8-.36,2-.59,3.66-2.04,4.53-3.97,.91-2.02,.9-4.34-.02-6.35-1.61-3.57-3.28-7.19-4.89-10.69l-.06-.12c-2.98-6.47-6.05-13.15-8.95-19.87-1.41-3.28-2.65-6.65-3.91-10.1-1.16-3.16-2.6-7.09-4.18-10.7C103.09,16.65,89.76,5.58,71.26,1.39c-1.87-.42-3.82-.71-5.71-.99-.91-.13-1.79-.26-2.67-.4h-8.34c-.07,.02-.14,.04-.22,.05-.3,.09-.62,.15-.93,.18-7.91,.65-15.48,2.8-22.54,6.39C9.63,17.41-2.08,39.29,.31,63.72c.94,7.03,2.89,13.91,5.78,20.41,3.65,8.44,6.68,17.22,9.02,26.1,2.67,11.72,3.97,23.73,3.87,35.72,0,2.15,.57,2.74,2.67,2.74h62.28c2.02,0,2.59-.57,2.67-2.66l.05-1.32c.07-1.99,.14-4.04,.36-6.09,.78-7.62,4.34-11.22,11.91-12.05,1.83-.2,3.69-.27,5.49-.33h.09c1.47-.05,2.97-.1,4.43-.23,6.82-.57,10.23-3.74,11.07-10.28,.28-2.66,.38-5.39,.31-8.09v-1.12c0-.75,0-1.52,0-2.27,.02-1.43,.02-2.84,.01-4.32v-3.47s2.34,.01,2.34,.01c.91,.01,1.76,.02,2.6-.02l.32-.02Zm-3.47-3.76c-.9-.02-1.78-.02-2.67-.02h-.29c-2.09,.02-2.63,.55-2.64,2.61,0,2.21-.01,4.41-.02,6.62,0,3.48-.01,7.07-.04,10.61-.03,1.28-.15,2.56-.36,3.82-.26,2.88-2.57,5.22-5.49,5.53-1.6,.22-3.24,.33-4.82,.43-.88,.06-1.79,.11-2.68,.19-.7,.06-1.41,.11-2.11,.15-1.76,.07-3.51,.27-5.22,.6-7.02,1.54-11.18,6.03-12.33,13.36-.26,1.63-.41,3.23-.58,4.93l-.04,.45c-.06,.63-.13,1.27-.2,1.91l-.1,.93H23.15l-.18-.82s-.02-.08-.03-.12c-.09-.3-.15-.58-.16-.86-.16-20.81-4.53-40.98-12.98-59.97-2.92-6.18-4.83-12.77-5.67-19.57-1.12-10.38,.69-20.82,5.23-30.21,4.91-9.97,13.1-18.16,23.06-23.08,17.96-9.02,35.79-8.79,52.98,.68,11.35,6.33,19.75,16.65,23.64,29.05,3.9,11.38,8.92,22.54,13.71,32.98,.99,2.15,1.97,4.29,2.97,6.43,1.14,2.47,2.28,4.94,3.42,7.42,.77,1.27,.82,2.86,.13,4.17l-.06,.1c-.94,1.19-2.39,1.82-3.9,1.66h-3.2Z"/><path class="cls-1" d="M58.59,20.34h-.57c-9.85,0-19.15,3.8-26.18,10.7-7.04,6.91-11.01,16.14-11.19,26,.27,21.74,15.37,37.24,36.71,37.68,9.81,.35,19.5-3.36,26.61-10.12,7.14-7.02,11.25-16.81,11.26-26.84,.12-9.67-3.7-19.15-10.48-26.02-6.8-7.1-16.33-11.25-26.16-11.41Zm23.35,60.73l-1.43,1.43v-.07c-6.18,5.61-14.12,8.7-22.54,8.75h-.02c-8.87,0-17.48-3.59-23.69-9.84-6.21-6.12-9.79-14.65-9.79-23.38-.2-8.75,3.02-17.07,9.07-23.41,6.05-6.34,14.21-9.94,22.97-10.15,.45-.01,.89-.01,1.34,0h.12c8.48-.12,16.66,2.96,22.98,8.65,6.8,6.45,10.59,15.51,10.42,24.86,.11,8.61-3.33,17.05-9.42,23.16Z"/><path class="cls-1" d="M69.61,44s0,0,0,0c-.49,0-.97,.2-1.32,.55l-23.34,23.33c-.73,.73-.73,1.92,0,2.65,.73,.73,1.92,.73,2.65,0l23.33-23.33c.73-.73,.73-1.92,0-2.65-.35-.35-.83-.55-1.32-.55Z"/><path class="cls-1" d="M47.6,44.54c-.35-.35-.83-.55-1.32-.55,0,0,0,0,0,0-.49,0-.98,.2-1.32,.55-.73,.73-.73,1.92,0,2.65l23.33,23.32c.73,.73,1.92,.73,2.65,0,.72-.73,.72-1.91,0-2.65l-23.33-23.33Z"/></svg>