<?xml version="1.0" encoding="UTF-8" standalone="no"?>
<!-- Created with Inkscape (http://www.inkscape.org/) -->

<svg
   version="1.1"
   id="svg1754"
   width="161.83601"
   height="194.55151"
   viewBox="0 0 161.83601 194.55151"
   xmlns="http://www.w3.org/2000/svg"
   xmlns:svg="http://www.w3.org/2000/svg">
  
  <g
     id="g1762"
     transform="matrix(1.3333333,0,0,-1.3333333,-1636.3972,794.36937)">
    <g
       id="g9418">
      <g
         id="g2808"
         transform="translate(1288.744,453.4424)"
         clip-path="url(#clipPath9408)">
        <path
           d="m 0,0 c -2.75,-0.001 -5.513,0.199 -8.269,0.604 -18.41,2.373 -32.618,11.473 -42.218,27.046 -5.65,9.305 -8.137,19.952 -7.194,30.792 0.553,8.957 2.461,17.765 5.669,26.161 0.12,0.313 0.252,0.621 0.365,0.885 l 0.615,1.471 0.653,-1.083 c 0.435,-0.722 0.858,-1.449 1.28,-2.176 0.945,-1.627 1.923,-3.311 3.014,-4.855 1.307,-1.777 3.199,-3.117 5.321,-3.763 l 0.066,-0.024 c 0.216,-0.093 0.444,-0.141 0.679,-0.145 0.474,0.009 0.927,0.171 1.269,0.504 0.342,0.332 0.534,0.777 0.541,1.253 1.02,9.423 4.921,18.042 11.286,24.985 2.63,3.062 5.565,5.972 8.089,8.412 6.852,6.63 10.388,15.049 10.813,25.741 0.016,0.392 0.039,0.785 0.066,1.246 l 0.106,1.917 0.907,-0.535 c 0.2,-0.117 0.381,-0.221 0.549,-0.317 0.355,-0.203 0.653,-0.374 0.936,-0.566 19.937,-13.073 33.809,-34.034 38.051,-57.503 0.246,-1.245 0.744,-2.064 1.399,-2.297 0.637,-0.225 1.511,0.083 2.46,0.87 3.151,2.895 5.486,6.617 6.727,10.746 0.142,0.39 0.267,0.744 0.406,1.138 l 0.56,1.578 0.714,-0.686 c 0.229,-0.22 0.441,-0.458 0.631,-0.708 C 53.225,78.693 56.886,64.865 56.105,50.661 55.322,36.041 48.261,22.477 36.734,13.449 26.415,4.714 13.366,0 0,0 m 24.341,1.615 c 15.631,6.981 26.489,18.334 32.27,33.743 3.331,9.294 4.176,19.355 2.442,29.086 -1.597,10.431 -5.298,20.204 -11.001,29.062 -0.679,1.289 -1.899,2.112 -3.291,2.253 -2.087,0.218 -3.957,-1.186 -4.349,-3.245 -0.807,-2.909 -2.036,-5.611 -3.666,-8.083 l -0.739,-1.121 -0.406,1.279 c -0.391,1.231 -0.761,2.456 -1.129,3.673 -0.812,2.679 -1.578,5.209 -2.523,7.725 -6.858,18.671 -19.887,34.809 -36.691,45.446 -0.748,0.575 -1.618,0.883 -2.5,0.901 -1.13,0.019 -2.156,-0.385 -2.955,-1.151 -0.798,-0.766 -1.251,-1.797 -1.274,-2.904 -0.118,-1.051 -0.187,-2.074 -0.253,-3.063 -0.055,-0.807 -0.108,-1.613 -0.187,-2.418 -0.412,-6.654 -3.113,-13.061 -7.603,-18.019 -2.67,-2.863 -5.384,-5.617 -7.92,-8.168 -4.594,-4.512 -8.186,-9.802 -10.681,-15.729 -0.912,-2.224 -1.654,-4.474 -2.439,-6.856 -0.355,-1.074 -0.711,-2.153 -1.084,-3.234 l -0.345,-0.995 -0.725,0.764 c -1.894,1.997 -3.293,4.452 -4.045,7.101 -0.698,2.333 -1.838,3.411 -3.694,3.491 -1.977,0.082 -3.125,-0.772 -4.078,-3.055 -3.096,-7.415 -5.177,-15.217 -6.184,-23.187 -0.991,-6.647 -0.982,-13.372 0.023,-20.002 4.104,-23.906 23.538,-42.954 48.358,-47.389 1.713,-0.307 3.475,-0.542 5.18,-0.77 0.801,-0.107 1.602,-0.215 2.402,-0.329 h 7.919 c 0.364,0.1 0.738,0.177 1.109,0.229 6.978,0.471 13.711,2.14 20.059,4.965"
           style="fill:#ffffff;fill-opacity:1;fill-rule:nonzero;stroke:none"
           id="path2810" />
      </g>
      <g
         id="g2812"
         transform="translate(1287.9983,465.9012)"
         clip-path="url(#clipPath9402)">
        <path
           d="m 0,0 c -0.673,0 -1.347,0.126 -1.988,0.378 -10.643,3.723 -20.038,10.338 -27.147,19.121 -3.711,4.775 -5.764,10.723 -5.79,16.758 v 0.007 c -0.026,8.276 2.289,13.724 7.508,17.661 1.207,0.972 2.561,1.773 4.01,2.371 4.058,1.675 8.525,1.67 12.579,-0.014 4.053,-1.685 7.209,-4.847 8.884,-8.904 0.529,-1.186 1.031,-1.613 1.911,-1.613 0.803,0.011 1.517,0.538 1.768,1.31 l 0.028,0.073 C 4.988,54.063 11.224,58.017 18.026,57.474 25.569,56.986 31.942,51.743 33.874,44.426 36.551,35.087 34.271,25.181 27.773,17.942 20.848,9.953 11.906,3.868 1.922,0.356 1.305,0.119 0.653,0 0,0 m 30.664,15.752 c 7.206,8.009 9.77,18.968 6.87,29.328 C 34.682,56.32 23.601,63.119 12.304,60.577 7.512,59.421 3.326,56.542 0.526,52.474 l -0.484,-0.703 -0.873,1.068 c -0.187,0.227 -0.344,0.418 -0.499,0.614 -3.973,5.074 -9.847,7.738 -15.804,7.738 -4.117,0 -8.272,-1.272 -11.869,-3.9 -5.685,-3.965 -9.145,-10.197 -9.501,-17.107 -0.905,-8.31 1.44,-16.462 6.601,-22.991 7.607,-9.451 17.707,-16.503 29.204,-20.39 1.722,-0.639 3.603,-0.645 5.314,-0.023 10.886,3.694 20.58,10.253 28.049,18.972"
           style="fill:#ffffff;fill-opacity:1;fill-rule:nonzero;stroke:none"
           id="path2814" />
      </g>
    </g>
  </g>
</svg>
