<?xml version="1.0" encoding="UTF-8" standalone="no"?>
<!-- Created with Inkscape (http://www.inkscape.org/) -->

<svg
   version="1.1"
   id="svg1754"
   width="165.24983"
   height="197.78532"
   viewBox="0 0 165.24983 197.78532"
   xmlns="http://www.w3.org/2000/svg"
   xmlns:svg="http://www.w3.org/2000/svg">
  <g
     id="g1762"
     transform="matrix(1.3333333,0,0,-1.3333333,-1634.69,1699.5506)">
    <g
       id="g2848"
       transform="translate(1332.8673,1129.985)"
       clip-path="url(#clipPath7550)">
      <path
         d="m 0,0 -1.522,-0.002 c -0.184,0 -0.369,0.008 -0.556,0.025 -2.222,0.295 -4.196,1.514 -5.439,3.349 l -0.587,0.776 0.739,0.679 c 0.689,0.631 1.372,1.272 2.054,1.912 l 0.42,0.393 c 1.892,1.776 3.849,3.613 5.891,5.317 2.518,2.169 5.735,3.235 9.063,3.008 1.097,-0.095 2.118,-0.632 2.813,-1.473 C 13.289,13.405 13.982,11.953 12.107,10.2 10.884,9.062 9.667,7.919 8.456,6.77 L 8.399,6.716 C 6.815,5.221 5.178,3.675 3.542,2.175 2.525,1.158 1.238,0.464 -0.163,0.163 Z m -10.805,6.589 -4.261,4.919 c -2.523,2.914 -5.022,5.798 -7.527,8.676 -1.994,2.288 -3.989,4.574 -5.986,6.858 -3.583,4.1 -7.286,8.34 -10.908,12.527 -0.758,0.942 -1.917,1.439 -3.089,1.35 -5.152,-0.081 -10.108,-0.08 -14.768,-0.002 -8.145,0.171 -15.076,5.559 -17.25,13.407 -0.092,0.336 -0.149,0.664 -0.21,1.01 l -0.038,0.218 c -0.022,0.127 -0.046,0.263 -0.074,0.406 l -0.251,1.308 16.402,-10e-4 c 5.419,-0.002 10.926,-0.005 16.366,0.02 5.284,0.206 10.369,-2.455 13.226,-6.943 5.501,-7.974 11.023,-15.961 16.555,-23.942 l 7.656,-11.063 c 0.151,-0.211 0.291,-0.434 0.447,-0.682 l 0.107,-0.171 c 0.078,-0.123 0.16,-0.253 0.251,-0.392 l 0.498,-0.776 z m -64.448,64.307 c -0.019,6.171 -0.039,12.551 0.117,18.899 0.545,9.908 6.966,18.328 16.357,21.471 1.072,0.402 2.296,0.129 3.11,-0.7 1.611,-1.349 3.351,-2.556 5.174,-3.591 1.255,-0.566 2.058,-1.859 2.01,-3.235 l 0.146,-2.202 c 0.329,-4.874 0.669,-9.914 1.222,-14.829 0.535,-4.233 2.903,-7.995 6.494,-10.314 3.137,-2.228 6.243,-4.448 9.345,-6.675 l 0.843,-0.603 c 0.226,-0.161 0.438,-0.338 0.681,-0.541 l 1.433,-1.17 -6.953,-6.159 -7.278,4.299 c -3.202,1.896 -6.402,3.791 -9.601,5.689 -3.374,1.916 -5.761,5.206 -6.539,9.02 -0.423,1.941 -0.859,3.88 -1.297,5.831 l -0.461,2.057 c -0.058,0.296 -0.132,0.58 -0.223,0.862 -0.27,0.911 -1.163,1.453 -2.078,1.273 -0.508,-0.095 -0.962,-0.39 -1.249,-0.812 -0.19,-0.28 -0.257,-0.629 -0.184,-0.958 0.148,-0.648 0.294,-1.299 0.439,-1.951 0.771,-3.796 1.772,-7.577 2.978,-11.25 1.303,-3.157 3.736,-5.769 6.834,-7.312 1.502,-0.872 2.964,-1.737 4.491,-2.644 l 7.221,-4.272 h -32.743 l -0.138,0.926 c -0.012,0.073 -0.026,0.149 -0.04,0.217 -0.058,0.251 -0.092,0.517 -0.099,0.783 0,2.641 -0.004,5.266 -0.012,7.891 m 19.714,57.29 0.627,1.264 0.015,-0.037 c 1.036,1.962 2.173,3.884 3.391,5.728 3.285,4.9 9.488,7.036 15.089,5.197 5.595,-1.823 9.323,-7.003 9.275,-12.889 l -0.008,-0.171 c -0.046,-0.28 -0.079,-0.567 -0.111,-0.852 -0.058,-0.743 -0.202,-1.484 -0.428,-2.197 -1.383,-4.242 -3.611,-8.054 -6.623,-11.337 -2.381,-2.446 -5.679,-3.836 -9.072,-3.836 -0.032,0 -0.064,0.001 -0.096,0.001 -2.845,0.003 -5.569,0.888 -7.877,2.558 -5.32,3.758 -7.081,10.729 -4.182,16.571 M -26.177,64.53 c 0.638,0.5 1.503,0.63 2.26,0.342 l 0.105,-0.048 c 1.208,-0.557 2.398,-1.182 3.539,-1.859 1.371,-0.787 2.136,-2.368 1.905,-3.938 -0.094,-1.67 -1.161,-3.131 -2.726,-3.729 -0.717,-0.259 -1.456,-0.389 -2.207,-0.389 -0.061,0 -0.119,0.002 -0.178,0.002 -2.817,0 -5.582,1.148 -7.579,3.156 l -0.046,0.051 -0.603,0.758 1.806,1.868 c 1.167,1.211 2.411,2.497 3.671,3.739 z M -49.971,0.114 h -9.184 V 24.06 h 9.184 z m -37.437,0 h -9.12 v 24.003 h 9.12 z m 92.53,-1.337 c 3.682,3.08 7.183,6.494 10.121,9.429 1.888,1.808 2.379,4.584 1.23,6.918 -0.935,2.448 -3.181,4.011 -5.743,4.034 C 6.923,19.377 3.257,18.407 0.084,16.356 l -0.902,-0.549 -24.41,35.284 2.397,0.201 c 0.158,0.014 0.279,0.024 0.41,0.033 3.7,0.106 6.799,2.691 7.56,6.289 0.874,3.614 -0.836,7.269 -4.156,8.904 -0.402,0.218 -0.808,0.41 -1.2,0.595 -0.737,0.325 -1.464,0.72 -2.15,1.166 -5.67,3.893 -11.52,7.909 -17.242,12.023 -2.076,1.538 -3.457,3.881 -3.795,6.434 -0.522,3.396 -0.868,6.195 -1.088,8.797 -0.17,1.944 -0.245,3.926 -0.317,5.842 l -0.007,0.18 c -0.033,0.891 -0.065,1.769 -0.107,2.65 l -0.048,1.079 2.195,0.148 c 5.5,0.227 10.526,3.131 13.462,7.766 1.422,2.181 2.739,4.453 3.918,6.761 2.316,4.512 2.488,9.768 0.471,14.421 -2.017,4.689 -5.985,8.191 -10.888,9.608 -0.598,0.172 -1.199,0.344 -1.799,0.502 l -0.693,0.188 h -4.317 c -0.2,-0.104 -0.439,-0.19 -0.687,-0.243 -3.82,-0.508 -7.242,-2.391 -9.684,-5.308 -1.929,-2.569 -3.698,-5.33 -5.235,-8.182 l -0.246,-0.432 c -1.869,-3.198 -2.532,-6.96 -1.871,-10.599 0.15,-0.866 0.352,-1.715 0.567,-2.612 0.11,-0.459 0.211,-0.884 0.307,-1.311 l 0.203,-0.904 -1.267,-0.524 c -0.253,-0.104 -0.484,-0.199 -0.713,-0.3 -11.165,-4.916 -17.073,-13.275 -17.561,-24.847 -0.343,-8.07 -0.239,-16.309 -0.14,-24.277 l 0.002,-0.178 c 0.029,-2.263 0.055,-4.525 0.076,-6.785 0.093,-4.774 1.868,-9.398 4.996,-13.015 0.382,-0.465 0.781,-0.9 1.244,-1.403 l 0.127,-0.138 c 0.259,-0.281 0.534,-0.58 0.827,-0.905 l 1.661,-1.839 h -2.478 c -0.419,0 -0.813,0 -1.187,0.008 l -0.546,0.002 c -0.523,0.004 -1.02,0.006 -1.498,-0.02 -0.926,-0.019 -1.668,-0.683 -1.787,-1.58 -0.091,-0.492 0.033,-0.961 0.335,-1.318 0.509,-0.519 1.256,-0.813 2.032,-0.761 7.08,-0.004 14.122,-0.004 21.162,10e-4 h 10.496 v -9.252 h -59.603 v 8.812 l 0.952,0.355 c 0.128,0.048 0.236,0.088 0.341,0.131 l 0.08,0.027 c 0.954,0.251 1.535,1.202 1.323,2.166 -0.206,0.92 -1.065,1.542 -2.008,1.443 l -0.039,-0.005 -0.04,0.001 c -0.682,0.016 -1.388,0.016 -2.159,0 -1.581,-0.029 -2.173,-0.621 -2.185,-2.181 -0.033,-4.014 -0.033,-8.162 0,-12.327 0.013,-1.616 0.543,-2.149 2.178,-2.195 0.684,-0.021 1.365,-0.016 2.085,-0.011 h 2.254 l 0.001,-11.94 c 0.003,-4.33 0.005,-8.806 -0.036,-13.193 l -0.005,-0.078 c -0.141,-1.059 0.377,-2.092 1.298,-2.617 h 14.163 c 0.918,0.529 1.435,1.567 1.295,2.626 l -0.006,0.077 c -0.048,5.382 -0.041,10.853 -0.034,16.145 v 8.879 h 20.682 l 0.001,-11.7 c 0.003,-4.32 0.006,-8.789 -0.039,-13.168 l -0.007,-0.087 c -0.165,-1.102 0.352,-2.199 1.295,-2.777 h 14.159 c 0.929,0.509 1.453,1.534 1.312,2.594 l -0.006,0.078 c -0.048,5.437 -0.041,10.926 -0.034,16.235 v 8.928 h 3.013 c 3.369,0 3.535,0.169 3.535,3.618 v 6.583 l 4.181,-4.823 c 1.523,-1.761 2.948,-3.407 4.382,-5.045 2.231,-2.548 4.465,-5.093 6.698,-7.635 4.106,-4.675 8.759,-9.974 13.227,-15.118 2.056,-2.68 4.953,-4.591 8.188,-5.415 h 3.16 c 0.546,0.25 1.105,0.475 1.602,0.676 1.244,0.419 2.378,1.008 3.405,1.762"
         style="fill:#ffffff;fill-opacity:1;fill-rule:nonzero;stroke:none"
         id="path2850" />
    </g>
  </g>
</svg>
