<?xml version="1.0" encoding="UTF-8" standalone="no"?>
<!-- Created with Inkscape (http://www.inkscape.org/) -->

<svg
   version="1.1"
   id="svg1754"
   width="199.07808"
   height="199.48079"
   viewBox="0 0 199.07808 199.48079"
   xmlns="http://www.w3.org/2000/svg"
   xmlns:svg="http://www.w3.org/2000/svg">
  
  <g
     id="g1762"
     transform="matrix(1.3333333,0,0,-1.3333333,-1178.4278,1878.4062)">
    <g
       id="g9447">
      <g
         id="g2628"
         transform="translate(1017.8453,1306.8743)"
         clip-path="url(#clipPath7245)">
        <path
           d="m 0,0 c -0.471,-0.01 -0.903,-0.198 -1.225,-0.53 -0.35,-0.34 -0.542,-0.796 -0.541,-1.265 0.032,-0.926 0.798,-1.666 1.744,-1.666 h 0.004 0.016 0.021 c 0.914,0 1.656,0.731 1.667,1.639 l 0.627,0.059 -0.627,0.005 C 1.694,-0.803 0.953,-0.032 0,0"
           style="fill:#ffffff;fill-opacity:1;fill-rule:nonzero;stroke:none"
           id="path2630" />
      </g>
      <g
         id="g7303">
        <g
           id="g2608"
           transform="translate(913.6719,1262.7651)"
           clip-path="url(#clipPath7275)">
          <path
             d="m 0,0 1.219,1.882 c 3.409,5.79 6.103,12.021 7.994,18.498 0.964,2.867 2.049,6.09 3.256,9.115 0.994,2.494 2.219,4.087 5.251,4.325 1.535,0.154 3.09,0.407 4.61,0.751 1.03,0.211 2.183,0.447 3.31,0.611 l 0.053,0.008 0.054,-10e-4 c 0.942,-0.025 1.819,-0.411 2.474,-1.087 9.073,-7.686 22.524,-8.045 31.993,-0.85 1.664,1.54 4.107,2.094 6.33,1.407 1.704,-0.432 3.485,-0.743 5.262,-0.917 l 0.157,-0.019 c 0.566,-0.071 1.133,-0.142 1.695,-0.22 1.327,-0.086 2.495,-1.038 2.863,-2.362 1.535,-4.303 3.156,-8.709 4.725,-12.97 l 2.532,-6.943 c 0.94,-3.404 2.649,-6.562 4.956,-9.175 L 90.775,0 Z m -8.471,0.43 -0.79,-0.212 v 0.034 c -0.937,-0.191 -1.893,-0.289 -2.85,-0.29 -3.458,0.014 -6.784,1.284 -9.369,3.574 -5.194,4.626 -6.356,12.305 -2.765,18.26 2.822,4.973 5.719,10.028 8.534,14.94 l 0.547,0.953 c 1.164,2.029 2.327,4.059 3.488,6.089 4.834,8.444 9.669,16.887 14.505,25.329 l 0.09,0.151 c 0.141,0.234 0.282,0.47 0.423,0.719 l 0.856,1.421 17.046,-7.972 -3.14,-8.592 C 16.473,50.382 14.837,45.932 13.193,41.483 L 13.162,41.399 C 9.38,31.14 5.469,20.531 1.749,10.056 0.175,5.329 -3.648,1.726 -8.471,0.43 m 18.495,96.566 v 0.006 l 0.156,0.184 c 1.595,1.812 3.326,3.537 5.147,5.128 1.859,1.491 4.399,1.583 6.34,0.245 2.006,-1.291 2.888,-3.795 2.127,-6.079 -0.909,-2.673 -1.911,-5.524 -3.088,-8.277 -0.698,-1.715 -0.922,-3.6 -0.643,-5.442 l 0.007,-0.094 c 0.675,-3.91 0.617,-7.912 -0.185,-11.846 -0.071,-0.276 -0.15,-0.515 -0.244,-0.795 l -0.564,-1.722 -1.251,0.581 c -0.674,0.313 -1.338,0.62 -1.991,0.922 -1.737,0.794 -3.588,1.65 -5.431,2.585 -0.893,0.499 -1.49,1.342 -1.657,2.327 -0.44,4.428 -0.929,9.516 -1.243,14.427 -0.21,2.823 0.706,5.672 2.52,7.85 m 6.77,11.421 c 0.935,7.608 14.144,17.385 24.803,18.357 6.781,0.499 13.467,-1.032 19.343,-4.433 5.563,-2.903 9.816,-7.775 11.95,-13.705 l 0.498,-1.605 h -1.652 c -3.163,0.199 -6.13,-1.193 -7.964,-3.733 -1.837,-2.532 -2.233,-5.899 -1.035,-8.788 l 0.683,-1.945 -2.004,0.3 c -0.181,0.027 -0.348,0.049 -0.502,0.068 -0.316,0.033 -0.651,0.089 -0.98,0.165 -7.723,1.884 -14.958,5.642 -20.935,10.871 l -0.054,0.054 c -0.921,1.029 -2.394,1.356 -3.665,0.815 -1.714,-0.665 -3.415,-1.308 -5.127,-1.954 l -3.053,-1.155 -0.556,0.683 c -2.995,3.698 -4.045,4.26 -8.647,4.636 l -1.277,0.105 z m 58.327,-6.841 0.603,-0.553 -0.431,-0.455 0.445,0.442 c 1,-0.945 2.035,-1.923 3.001,-2.962 2.491,-2.625 3.704,-6.201 3.323,-9.807 -0.138,-1.703 -0.289,-3.421 -0.44,-5.14 -0.224,-2.555 -0.451,-5.136 -0.639,-7.672 0.033,-1.542 -0.922,-2.91 -2.383,-3.411 -1.599,-0.658 -3.207,-1.428 -4.763,-2.173 l -0.609,-0.29 C 72.742,69.323 72.255,69.091 71.762,68.86 l -1.251,-0.582 -0.427,1.311 c -0.943,3.061 -1.244,6.217 -0.898,9.39 0.035,0.417 0.084,0.852 0.132,1.278 l 0.04,0.363 c 0.144,0.996 0.219,1.985 0.226,2.963 0.01,1.392 -0.181,2.776 -0.569,4.113 -0.562,1.777 -1.256,3.559 -1.926,5.283 l -0.351,0.912 c -0.23,0.596 -0.461,1.193 -0.682,1.792 -1.129,2.392 -0.359,5.286 1.851,6.834 2.301,1.515 5.396,1.105 7.214,-0.941 M 29.988,46.426 29.912,45.729 C 29.501,42.028 26.783,38.995 23.149,38.18 21.914,37.908 20.677,37.721 19.369,37.524 L 19.054,37.476 C 18.491,37.391 17.912,37.304 17.31,37.205 l -2.069,-0.354 6.288,17.137 2.83,-2.208 c 1.567,-1.218 3.188,-2.478 4.808,-3.806 l 0.065,-0.062 c 0.383,-0.418 0.619,-0.937 0.685,-1.486 z m 29.494,-9.113 -0.655,-0.62 C 55.018,33.339 50.168,31.51 45.122,31.51 c -0.116,0 -0.233,10e-4 -0.35,0.003 -5.1,-0.046 -10.062,1.761 -13.959,5.072 l -0.713,0.62 4.049,8.236 1.008,-0.331 c 6.227,-2.105 13.078,-2.1 19.298,0.01 l 1.01,0.354 z m -14.689,9.733 h -0.87 l 0.007,0.02 c -0.182,0.006 -0.363,0.014 -0.544,0.025 -7.312,0.388 -14.142,3.877 -18.745,9.574 -1.132,1.075 -1.385,2.824 -0.596,4.177 0.166,0.322 0.31,0.69 0.415,1.067 0.076,0.242 0.148,0.463 0.227,0.678 0.841,2.308 0.778,2.487 -1.349,3.845 l -0.708,0.453 0.17,0.822 c 0.096,0.47 0.211,0.942 0.324,1.403 l 0.025,0.1 c 0.284,1.011 0.467,2.032 0.548,3.056 0.181,3.171 0.159,6.402 -0.067,9.588 -0.225,2.324 0.13,4.709 1.026,6.882 0.648,1.613 1.239,3.362 1.715,4.768 0.356,1.068 0.724,2.125 1.093,3.14 0.279,0.703 0.789,1.268 1.444,1.608 1.97,0.964 3.891,1.888 5.867,2.68 1.02,0.301 2.073,0.11 2.875,-0.49 7.431,-6.03 16.324,-10.052 25.735,-11.647 l 0.088,-0.022 c 1.793,-0.579 2.925,-2.35 2.702,-4.218 -0.03,-1.033 -0.148,-2.057 -0.263,-3.048 l -0.015,-0.132 c -0.672,-4.497 -0.323,-9.151 1.006,-13.48 L 67.2,66.998 66.388,66.489 c -2.442,-1.526 -2.417,-1.79 -1.436,-3.718 1.888,-3.717 0.306,-6.073 -1.682,-8.065 -4.934,-4.939 -11.496,-7.659 -18.477,-7.66 m 29.352,-9.558 -1.785,0.034 c -6.757,0.136 -11.222,1.486 -12.602,7.792 -0.351,1.165 0.15,2.454 1.229,3.104 1.333,0.983 2.624,2.03 3.989,3.138 0.597,0.485 1.177,0.955 1.772,1.431 l 1.324,1.06 z m 30.282,-40.8 c 4.947,0.774 9.359,3.619 12.106,7.804 2.736,4.147 3.596,9.284 2.362,14.093 -1.16,3.784 -2.927,7.363 -5.243,10.609 l -0.036,0.055 c -0.572,0.9 -1.163,1.829 -1.722,2.757 -0.263,0.402 -0.753,0.617 -1.252,0.529 -0.629,-0.055 -1.128,-0.426 -1.336,-0.959 -0.156,-0.726 -0.06,-1.49 0.272,-2.156 0.701,-1.375 1.499,-2.76 2.323,-4.175 l 0.235,-0.408 c 0.79,-1.369 1.607,-2.785 2.329,-4.234 2.208,-4.404 1.948,-9.731 -0.68,-13.899 -2.571,-4.171 -7.213,-6.763 -12.118,-6.763 h -0.031 -0.089 C 95.227,0.029 89.734,4.139 87.872,10.17 84.322,19.843 80.766,29.549 77.215,39.256 l -8.849,24.165 17.078,7.973 0.928,-1.563 c 0.234,-0.388 0.439,-0.734 0.638,-1.083 0.751,-1.313 1.501,-2.63 2.248,-3.951 l 0.123,-0.214 c 2.059,-3.615 4.187,-7.351 6.341,-10.983 0.392,-0.61 0.974,-1.087 1.671,-1.36 0.545,-0.166 1.183,0.099 1.469,0.646 l 0.041,0.066 c 0.446,0.642 0.43,1.493 -0.041,2.117 l -0.043,0.065 -1.69,2.946 c -2.785,4.85 -5.665,9.865 -8.467,14.814 l -0.116,0.203 c -0.965,1.713 -1.483,2.41 -2.738,2.41 h -1.372 l 0.119,1.336 c 0.07,0.785 0.128,1.562 0.185,2.328 l 0.019,0.248 c 0.131,1.792 0.267,3.647 0.54,5.478 1.099,7.362 -0.798,13.054 -5.8,17.4 -0.652,0.647 -1.073,1.428 -1.248,2.286 -3.921,15.074 -17.566,25.712 -33.174,25.836 H 44.566 C 29.28,130.32 16.091,120.402 11.753,105.739 11.245,103.947 10.26,102.312 8.907,101.019 5.294,97.581 3.503,92.575 4.117,87.625 4.361,85.143 4.562,82.623 4.757,80.186 4.849,79.044 4.941,77.908 5.036,76.767 l 0.112,-1.33 H 3.812 3.781 C 2.737,75.437 2.149,74.992 1.37,73.626 -3.642,64.84 -8.662,56.059 -13.69,47.283 c -3.443,-6.015 -6.884,-12.03 -10.323,-18.046 -0.322,-0.564 -0.651,-1.125 -0.981,-1.686 l -0.17,-0.289 c -2.235,-3.315 -3.804,-6.936 -4.687,-10.793 v -4.188 c 0.055,-0.226 0.105,-0.451 0.156,-0.677 l 0.086,-0.379 c 0.164,-0.818 0.374,-1.615 0.631,-2.387 2.024,-6.42 7.401,-11.072 14.036,-12.148 0.298,-0.064 0.568,-0.138 0.831,-0.226 l 0.114,-0.035 h 117.574 l 0.052,0.019 c 0.227,0.096 0.494,0.178 0.767,0.235 z"
             style="fill:#ffffff;fill-opacity:1;fill-rule:nonzero;stroke:none"
             id="path2610" />
        </g>
        <g
           id="g2612"
           transform="translate(890.2903,1364.5663)"
           clip-path="url(#clipPath7269)">
          <path
             d="m 0,0 0.036,-0.02 c 5.149,-2.987 10.478,-6 14.76,-8.422 0.535,-0.336 1.162,-0.443 1.749,-0.306 0.372,0.113 0.72,0.404 0.915,0.787 0.477,0.863 0.171,1.93 -0.673,2.397 -0.053,0.029 -0.109,0.056 -0.165,0.08 l -0.078,0.039 c -2.056,1.206 -4.19,2.42 -6.074,3.492 L 7.449,-0.237 C 7.248,-0.123 7.052,-0.001 6.844,0.127 l -2.47,1.529 1.767,1.022 c 0.458,0.266 0.897,0.526 1.326,0.781 0.967,0.573 1.88,1.114 2.836,1.627 l 0.082,0.036 c 0.786,0.286 1.322,1.04 1.334,1.876 -0.015,0.667 -0.293,1.221 -1.626,1.848 -2.607,1.223 -5.248,2.487 -7.81,3.712 l -0.349,0.168 c -1.684,0.801 -3.371,1.606 -5.059,2.416 -1.818,0.871 -2.269,0.805 -3.33,-0.677 v -0.84 c 0.153,-0.138 0.304,-0.278 0.453,-0.416 0.523,-0.533 1.088,-0.977 1.702,-1.343 1.883,-0.991 3.83,-1.906 5.892,-2.875 L 1.81,8.889 C 2.575,8.53 3.35,8.166 4.135,7.784 L 6.209,6.793 4.22,5.632 C 3.732,5.347 3.264,5.075 2.81,4.813 L 2.683,4.74 C 1.783,4.219 0.933,3.727 0.106,3.217 -0.571,2.864 -0.993,2.22 -1.042,1.506 -0.978,0.862 -0.581,0.288 0,0"
             style="fill:#ffffff;fill-opacity:1;fill-rule:nonzero;stroke:none"
             id="path2614" />
        </g>
        <g
           id="g2616"
           transform="translate(905.6529,1392.0525)"
           clip-path="url(#clipPath7263)">
          <path
             d="m 0,0 c 2.429,-3.085 4.912,-6.209 7.322,-9.24 l 0.311,-0.393 c 0.259,-0.324 0.518,-0.652 0.773,-0.981 l 0.104,-0.133 c 0.719,-0.919 1.463,-1.869 2.249,-2.727 0.573,-0.674 1.565,-0.759 2.227,-0.208 0.767,0.568 0.933,1.585 0.407,2.337 l -0.008,0.012 c -0.324,0.485 -0.678,0.957 -1.052,1.4 l -0.408,0.506 c -1.118,1.414 -2.235,2.824 -3.376,4.265 l -4.23,5.337 3.953,0.563 c 1.01,0.145 1.96,0.281 2.913,0.411 1.445,0.196 1.874,0.648 2.096,1.315 0.213,0.635 0.146,1.205 -0.823,2.242 C 11.477,5.757 10.503,6.814 9.534,7.876 8.366,9.15 7.041,10.596 5.725,11.988 4.554,13.227 3.315,14.473 2.258,15.529 1.853,15.934 1.45,16.34 1.047,16.747 H 0.141 c -0.755,-0.514 -1.195,-1.021 -1.278,-1.475 0.026,-0.796 0.389,-1.541 1.001,-2.052 l 0.06,-0.057 C 1.383,11.58 2.844,9.995 4.358,8.341 L 8.07,4.297 5.801,3.946 C 5.239,3.863 4.71,3.789 4.198,3.718 3.163,3.574 2.185,3.437 1.232,3.267 L 1.164,3.258 C 0.416,3.208 -0.261,2.771 -0.618,2.114 -0.792,1.378 -0.575,0.593 -0.044,0.051 Z"
             style="fill:#ffffff;fill-opacity:1;fill-rule:nonzero;stroke:none"
             id="path2618" />
        </g>
        <g
           id="g2620"
           transform="translate(998.2421,1378.4567)"
           clip-path="url(#clipPath7257)">
          <path
             d="m 0,0 c 0.354,-0.298 0.806,-0.445 1.276,-0.404 0.467,0.039 0.891,0.258 1.194,0.617 0.06,0.07 0.113,0.144 0.16,0.222 l 0.063,0.087 c 0.109,0.126 0.211,0.255 0.314,0.385 l 2.841,3.579 c 2.348,2.952 4.693,5.907 7.035,8.867 l 0.056,0.062 c 0.622,0.602 0.9,1.489 0.739,2.336 -0.465,0.725 -1.276,1.178 -2.141,1.188 l -0.082,0.006 -6.467,0.928 4.796,5.224 c 1.139,1.242 2.25,2.454 3.362,3.656 l 0.058,0.055 c 0.601,0.503 0.962,1.233 0.999,2.014 -0.204,0.65 -0.648,1.196 -1.242,1.526 h -1.012 l -0.17,-0.139 C 11.44,29.952 11.134,29.683 10.854,29.397 8.92,27.313 6.98,25.211 5.046,23.104 3.505,21.429 1.963,19.756 0.419,18.084 L 0.361,18.029 c -0.576,-0.482 -0.8,-1.255 -0.571,-1.97 0.225,-0.695 0.868,-1.185 1.6,-1.216 0.658,-0.09 1.255,-0.179 1.86,-0.27 0.558,-0.084 1.123,-0.169 1.702,-0.251 L 8.611,13.766 7.033,11.644 C 6.802,11.329 6.606,11.063 6.4,10.803 5.667,9.878 4.931,8.951 4.194,8.026 2.802,6.278 1.365,4.47 -0.031,2.681 L -0.087,2.619 C -0.787,1.933 -0.799,0.806 -0.113,0.106 -0.078,0.07 -0.04,0.034 0,0"
             style="fill:#ffffff;fill-opacity:1;fill-rule:nonzero;stroke:none"
             id="path2622" />
        </g>
        <g
           id="g2624"
           transform="translate(1033.062,1378.0874)"
           clip-path="url(#clipPath7251)">
          <path
             d="m 0,0 c 0.121,0.394 0.078,0.825 -0.119,1.187 -0.27,0.597 -0.818,0.951 -1.423,0.951 -0.01,0 -0.02,0 -0.03,0 -0.423,-0.01 -0.849,-0.116 -1.23,-0.305 -2.518,-1.191 -5.023,-2.38 -7.524,-3.578 l -6.563,-3.117 c -0.708,-0.246 -1.185,-0.888 -1.216,-1.636 -0.027,-0.744 0.397,-1.422 1.079,-1.726 1.062,-0.593 2.056,-1.173 3.106,-1.788 l 3.202,-1.863 -2.299,-1.39 c -0.325,-0.199 -0.608,-0.37 -0.893,-0.535 l -3.661,-2.099 c -1.754,-1.002 -3.551,-2.03 -5.315,-3.052 -0.576,-0.291 -0.995,-0.779 -1.183,-1.357 -0.085,-0.369 -0.009,-0.816 0.222,-1.178 0.482,-0.849 1.527,-1.137 2.347,-0.674 0.063,0.036 0.124,0.076 0.183,0.12 l 0.067,0.044 c 4.425,2.496 9.579,5.411 14.758,8.42 0.662,0.316 1.08,0.913 1.144,1.589 -0.064,0.735 -0.509,1.393 -1.169,1.725 -0.887,0.537 -1.753,1.039 -2.678,1.572 l -3.411,1.987 4.925,2.347 c 2.172,1.03 4.222,2.007 6.287,3.011 C -0.751,-1.083 -0.257,-0.599 0,0"
             style="fill:#ffffff;fill-opacity:1;fill-rule:nonzero;stroke:none"
             id="path2626" />
        </g>
        <g
           id="g2632"
           transform="translate(964.5157,1323.6171)"
           clip-path="url(#clipPath7239)">
          <path
             d="m 0,0 c 0.625,0.707 0.558,1.789 -0.148,2.413 -0.036,0.032 -0.07,0.059 -0.105,0.086 L -0.31,2.548 c -1.515,1.469 -3.596,2.29 -5.705,2.237 h -0.072 c -0.035,10e-4 -0.07,10e-4 -0.104,10e-4 -2.093,0 -4.061,-0.796 -5.562,-2.249 l -0.059,-0.05 c -0.363,-0.274 -0.599,-0.673 -0.662,-1.123 -0.064,-0.45 0.052,-0.899 0.325,-1.262 0.026,-0.033 0.053,-0.068 0.083,-0.101 0.315,-0.362 0.743,-0.575 1.211,-0.608 0.465,-0.034 0.921,0.119 1.276,0.428 l 0.067,0.06 c 0.955,0.838 2.178,1.349 3.444,1.438 l 0.045,0.004 0.044,-0.004 c 1.269,-0.091 2.495,-0.603 3.451,-1.441 0.356,-0.331 0.79,-0.493 1.27,-0.48 0.467,0.017 0.899,0.215 1.218,0.557 z"
             style="fill:#ffffff;fill-opacity:1;fill-rule:nonzero;stroke:none"
             id="path2634" />
        </g>
        <g
           id="g2636"
           transform="translate(965.3602,1340.3929)"
           clip-path="url(#clipPath7233)">
          <path
             d="m 0,0 c -0.454,-0.788 -0.22,-1.729 0.511,-2.186 1.084,-0.651 2.258,-1.17 3.477,-1.536 0.439,-0.135 0.917,-0.051 1.283,0.222 0.465,0.395 0.758,0.986 0.798,1.624 -0.014,0.022 -0.029,0.045 -0.043,0.068 l -0.05,0.079 C 5.721,-1.264 5.411,-0.883 5.036,-0.564 4.124,0.007 3.14,0.456 2.107,0.77 L 2.004,0.806 C 1.815,0.874 1.625,0.907 1.432,0.908 0.828,0.904 0.264,0.548 0,0"
             style="fill:#ffffff;fill-opacity:1;fill-rule:nonzero;stroke:none"
             id="path2638" />
        </g>
        <g
           id="g2640"
           transform="translate(949.6903,1341.2245)"
           clip-path="url(#clipPath7227)">
          <path
             d="m 0,0 -0.003,-0.001 c -1.142,-0.403 -2.261,-0.899 -3.326,-1.476 -0.662,-0.361 -0.97,-1.142 -0.734,-1.859 0.239,-0.771 0.872,-1.348 1.641,-1.521 0.241,0.12 0.485,0.238 0.727,0.356 l 0.377,0.183 c 1.086,0.489 2.124,1.053 3.103,1.687 0.488,0.499 0.539,1.281 0.114,1.84 l -0.046,0.07 C 1.574,-0.232 1.052,0.078 0.489,0.089 0.331,0.088 0.162,0.058 0,0"
             style="fill:#ffffff;fill-opacity:1;fill-rule:nonzero;stroke:none"
             id="path2642" />
        </g>
      </g>
    </g>
  </g>
</svg>
