<?xml version="1.0" encoding="UTF-8" standalone="no"?>
<!-- Created with Inkscape (http://www.inkscape.org/) -->

<svg
   version="1.1"
   id="svg1754"
   width="1056.0771"
   height="802.03497"
   viewBox="0 0 1056.0771 802.03497"
   xmlns="http://www.w3.org/2000/svg"
   xmlns:svg="http://www.w3.org/2000/svg">
  
  <g
     id="g4362"
     transform="matrix(1.3333333,0,0,-1.3333333,-1354.4409,1106.4253)">
    <g
       id="g50526">
      <g
         id="g4478"
         transform="translate(1789.0897,229.2928)"
         clip-path="url(#clipPath50468)">
        <path
           d="m 0,0 h -754.439 c -9.82,0 -17.781,7.961 -17.781,17.781 v 563.933 c 0,9.82 7.961,17.781 17.781,17.781 H 0 c 9.82,0 17.781,-7.961 17.781,-17.781 V 17.781 C 17.781,7.961 9.82,0 0,0 Z"
           style="fill:none;stroke:#f68e1e;stroke-width:2;stroke-linecap:butt;stroke-linejoin:miter;stroke-miterlimit:10;stroke-dasharray:none;stroke-opacity:1"
           id="path4480" />
      </g>
      <g
         id="g50372">
        <g
           id="g4838"
           transform="translate(1804.4628,781.5159)"
           clip-path="url(#clipPath45963)">
          <path
             d="m 0,0 c -1.761,2.983 -2.929,5.91 -2.329,9.439 0.59,3.469 2.314,6.61 3.722,9.835 V -2.419 C 0.951,-1.61 0.477,-0.809 0,0 m -3.204,37.43 c -1.51,0.394 -3.074,0.315 -4.495,-0.135 0.243,0.777 0.361,1.596 0.322,2.43 -0.135,2.867 -1.552,5.084 -3.624,6.545 H -6.97 1.393 V 34.162 c -1.081,1.548 -2.602,2.747 -4.597,3.268 m -29.885,5.766 c -3.992,-1.28 -7.503,-0.885 -11.129,1.17 -1.116,0.633 -2.202,1.3 -3.308,1.904 h 21.783 c -2.444,-1.049 -4.848,-2.274 -7.346,-3.074 M 3.419,-8.195 v 5.445 40.657 9.376 c 0,0.548 -0.464,1.013 -1.013,1.013 h -25.488 -30.206 c -0.085,0.01 -0.164,0.009 -0.237,0 h -10.214 -9.376 c -1.304,0 -1.306,-2.026 0,-2.026 h 19.827 c 4.691,-0.513 8.075,-4.548 12.617,-5.597 4.785,-1.105 9.352,0.885 13.628,2.82 3.934,1.781 8.031,3.6 12.404,2.345 3.88,-1.113 6.808,-5.412 4.481,-9.305 -1.394,-2.333 -4.812,-3.484 -7.076,-1.673 -2.356,1.883 -1.806,5.997 1.528,6.177 1.297,0.07 1.305,2.097 0,2.026 -5.645,-0.304 -6.638,-7.587 -2.051,-10.293 1.65,-0.973 3.402,-1.081 4.988,-0.599 -0.223,-0.91 -0.256,-1.902 -0.049,-2.951 0.551,-2.789 3.097,-4.9 5.949,-4.888 2.859,0.012 4.907,2.303 5.055,5.055 0.07,1.303 -1.956,1.3 -2.026,0 -0.157,-2.909 -3.453,-3.84 -5.568,-2.137 -1.95,1.569 -1.85,4.442 -0.435,6.325 2.868,3.818 8.493,2.088 10.303,-1.763 0.515,-1.095 0.809,-2.179 0.933,-3.255 V 26.064 C 0.7,19.479 -5.075,13.107 -4.487,6.282 -4.018,0.834 0.811,-2.875 1.393,-8.195 v -10.667 -9.376 c 0,-1.304 2.026,-1.306 2.026,0 v 19.806 c 0.008,0.074 0.01,0.152 0,0.237"
             style="fill:#f68f1e;fill-opacity:1;fill-rule:nonzero;stroke:none"
             id="path4840" />
        </g>
        <g
           id="g4842"
           transform="translate(1785.9749,810.582)"
           clip-path="url(#clipPath45957)">
          <path
             d="m 0,0 c -0.739,-0.739 -0.739,-1.938 0,-2.677 0.739,-0.739 1.938,-0.739 2.677,0 0.739,0.739 0.739,1.938 0,2.677 C 1.938,0.739 0.739,0.739 0,0"
             style="fill:#f68f1e;fill-opacity:1;fill-rule:nonzero;stroke:none"
             id="path4844" />
        </g>
      </g>
      <g
         id="g50490">
        <g
           id="g4830"
           transform="translate(1017.9186,779.0964)"
           clip-path="url(#clipPath45975)">
          <path
             d="M 0,0 V 21.693 C 1.408,18.469 3.132,15.327 3.722,11.858 4.322,8.33 3.154,5.403 1.393,2.419 0.915,1.611 0.442,0.81 0,0 m 0,36.582 v 12.107 h 8.363 4.031 C 10.322,47.228 8.905,45.011 8.77,42.145 8.731,41.311 8.849,40.491 9.092,39.714 7.67,40.164 6.107,40.244 4.597,39.849 2.602,39.328 1.081,38.129 0,36.582 M 27.136,48.689 H 48.919 C 47.813,48.085 46.727,47.419 45.61,46.786 41.985,44.73 38.474,44.335 34.482,45.615 31.984,46.416 29.58,47.641 27.136,48.689 M -2.027,-6.013 v -19.805 c 0,-1.306 2.027,-1.304 2.027,0 v 9.376 10.667 C 0.581,-0.455 5.411,3.254 5.88,8.701 6.468,15.526 0.693,21.899 0,28.483 v 2.494 c 0.124,1.076 0.418,2.16 0.933,3.254 1.81,3.851 7.434,5.582 10.303,1.764 1.415,-1.884 1.515,-4.756 -0.435,-6.326 -2.116,-1.702 -5.411,-0.771 -5.568,2.138 -0.07,1.299 -2.097,1.303 -2.026,0 0.148,-2.752 2.196,-5.044 5.055,-5.056 2.852,-0.012 5.397,2.1 5.948,4.889 0.208,1.049 0.175,2.041 -0.048,2.951 1.586,-0.483 3.338,-0.375 4.988,0.599 4.587,2.706 3.594,9.989 -2.051,10.293 -1.305,0.07 -1.297,-1.957 0,-2.027 3.334,-0.179 3.883,-4.293 1.528,-6.177 -2.265,-1.811 -5.682,-0.659 -7.076,1.674 -2.327,3.893 0.601,8.191 4.481,9.305 4.373,1.254 8.469,-0.564 12.404,-2.345 4.276,-1.935 8.842,-3.925 13.628,-2.82 4.542,1.048 7.926,5.084 12.617,5.596 h 19.827 c 1.306,0 1.304,2.027 0,2.027 H 65.132 54.918 c -0.074,0.008 -0.152,0.009 -0.237,0 H 24.474 -1.013 c -0.549,0 -1.014,-0.466 -1.014,-1.013 V 40.327 -0.331 -5.775 c -0.009,-0.085 -0.008,-0.164 0,-0.238"
             style="fill:#f68f1e;fill-opacity:1;fill-rule:nonzero;stroke:none"
             id="path4832" />
        </g>
        <g
           id="g4834"
           transform="translate(1037.7994,810.582)"
           clip-path="url(#clipPath45969)">
          <path
             d="m 0,0 c 0.739,-0.739 0.739,-1.938 0,-2.677 -0.739,-0.739 -1.938,-0.739 -2.677,0 -0.739,0.739 -0.739,1.938 0,2.677 0.739,0.739 1.938,0.739 2.677,0"
             style="fill:#f68f1e;fill-opacity:1;fill-rule:nonzero;stroke:none"
             id="path4836" />
        </g>
      </g>
      <g
         id="g50496">
        <g
           id="g4846"
           transform="translate(1019.2568,276.6047)"
           clip-path="url(#clipPath45951)">
          <path
             d="m 0,0 c 1.761,-2.983 2.929,-5.91 2.329,-9.439 -0.59,-3.469 -2.314,-6.61 -3.722,-9.835 V 2.419 C -0.951,1.61 -0.477,0.809 0,0 m 3.204,-37.43 c 1.51,-0.394 3.074,-0.315 4.495,0.135 -0.243,-0.777 -0.361,-1.596 -0.322,-2.43 0.135,-2.867 1.552,-5.084 3.624,-6.545 H 6.97 -1.393 v 12.108 c 1.081,-1.548 2.602,-2.747 4.597,-3.268 m 29.885,-5.766 c 3.992,1.28 7.503,0.885 11.129,-1.17 1.116,-0.633 2.202,-1.3 3.308,-1.904 H 25.743 c 2.444,1.049 4.848,2.274 7.346,3.074 M -3.419,8.195 V 2.75 -37.907 -47.283 c 0,-0.548 0.464,-1.013 1.013,-1.013 h 25.488 30.206 c 0.085,-0.01 0.163,-0.009 0.237,0 h 10.214 9.376 c 1.304,0 1.306,2.026 0,2.026 H 53.288 c -4.691,0.513 -8.075,4.548 -12.617,5.597 -4.786,1.105 -9.352,-0.885 -13.628,-2.82 -3.934,-1.781 -8.031,-3.6 -12.404,-2.345 -3.88,1.113 -6.808,5.412 -4.481,9.305 1.394,2.333 4.812,3.484 7.076,1.673 2.356,-1.883 1.806,-5.997 -1.528,-6.177 -1.297,-0.07 -1.305,-2.097 0,-2.026 5.645,0.304 6.638,7.587 2.051,10.293 -1.65,0.973 -3.402,1.081 -4.988,0.599 0.223,0.91 0.256,1.902 0.049,2.951 -0.551,2.789 -3.097,4.9 -5.949,4.888 -2.859,-0.012 -4.907,-2.303 -5.055,-5.055 -0.07,-1.303 1.956,-1.3 2.026,0 0.157,2.909 3.453,3.84 5.568,2.137 1.95,-1.569 1.85,-4.442 0.435,-6.325 -2.868,-3.818 -8.493,-2.088 -10.303,1.763 -0.515,1.095 -0.809,2.179 -0.933,3.255 v 2.493 c 0.693,6.585 6.468,12.957 5.88,19.782 -0.469,5.448 -5.298,9.157 -5.88,14.477 v 10.667 9.376 c 0,1.304 -2.026,1.306 -2.026,0 V 8.432 c -0.009,-0.074 -0.01,-0.152 0,-0.237"
             style="fill:#f68f1e;fill-opacity:1;fill-rule:nonzero;stroke:none"
             id="path4848" />
        </g>
        <g
           id="g4850"
           transform="translate(1037.7448,247.5386)"
           clip-path="url(#clipPath45945)">
          <path
             d="m 0,0 c 0.739,0.739 0.739,1.938 0,2.677 -0.739,0.739 -1.938,0.739 -2.677,0 C -3.416,1.938 -3.416,0.739 -2.677,0 -1.938,-0.739 -0.739,-0.739 0,0"
             style="fill:#f68f1e;fill-opacity:1;fill-rule:nonzero;stroke:none"
             id="path4852" />
        </g>
      </g>
      <g
         id="g50502">
        <g
           id="g4854"
           transform="translate(1805.801,279.0242)"
           clip-path="url(#clipPath45939)">
          <path
             d="m 0,0 v -21.693 c -1.408,3.224 -3.132,6.366 -3.722,9.835 -0.6,3.528 0.568,6.455 2.329,9.439 C -0.915,-1.611 -0.442,-0.81 0,0 m 0,-36.582 v -12.107 h -8.363 -4.031 c 2.072,1.461 3.489,3.678 3.624,6.544 0.039,0.834 -0.079,1.654 -0.322,2.431 1.422,-0.45 2.985,-0.53 4.495,-0.135 1.995,0.521 3.516,1.72 4.597,3.267 m -27.136,-12.107 h -21.783 c 1.106,0.604 2.192,1.27 3.309,1.903 3.625,2.056 7.136,2.451 11.128,1.171 2.498,-0.801 4.902,-2.026 7.346,-3.074 M 2.026,6.013 v 19.805 c 0,1.306 -2.026,1.304 -2.026,0 V 16.442 5.775 C -0.581,0.456 -5.411,-3.254 -5.88,-8.701 -6.468,-15.526 -0.693,-21.899 0,-28.483 v -2.494 c -0.124,-1.076 -0.418,-2.16 -0.933,-3.254 -1.81,-3.851 -7.434,-5.582 -10.303,-1.764 -1.415,1.884 -1.515,4.756 0.435,6.326 2.115,1.702 5.411,0.771 5.568,-2.138 0.07,-1.299 2.096,-1.303 2.026,0 -0.148,2.752 -2.196,5.044 -5.055,5.056 -2.852,0.012 -5.398,-2.1 -5.948,-4.889 -0.208,-1.049 -0.175,-2.041 0.048,-2.951 -1.586,0.483 -3.338,0.375 -4.988,-0.599 -4.587,-2.706 -3.594,-9.989 2.051,-10.293 1.305,-0.07 1.297,1.957 0,2.027 -3.334,0.179 -3.884,4.293 -1.528,6.177 2.264,1.811 5.682,0.659 7.076,-1.674 2.327,-3.893 -0.601,-8.191 -4.481,-9.304 -4.373,-1.255 -8.469,0.563 -12.404,2.344 -4.276,1.935 -8.842,3.925 -13.628,2.82 -4.542,-1.048 -7.926,-5.084 -12.617,-5.596 h -19.827 c -1.306,0 -1.304,-2.027 0,-2.027 h 9.376 10.214 c 0.074,-0.008 0.152,-0.009 0.237,0 h 30.206 25.488 c 0.549,0 1.013,0.466 1.013,1.013 v 9.376 40.658 5.444 c 0.01,0.085 0.009,0.164 0,0.238"
             style="fill:#f68f1e;fill-opacity:1;fill-rule:nonzero;stroke:none"
             id="path4856" />
        </g>
        <g
           id="g4858"
           transform="translate(1785.9202,247.5386)"
           clip-path="url(#clipPath45933)">
          <path
             d="m 0,0 c -0.739,0.739 -0.739,1.938 0,2.677 0.739,0.739 1.938,0.739 2.677,0 C 3.416,1.938 3.416,0.739 2.677,0 1.938,-0.739 0.739,-0.739 0,0"
             style="fill:#f68f1e;fill-opacity:1;fill-rule:nonzero;stroke:none"
             id="path4860" />
        </g>
      </g>
    </g>
  </g>
</svg>
