<?xml version="1.0" encoding="UTF-8" standalone="no"?>
<!-- Created with Inkscape (http://www.inkscape.org/) -->

<svg
   version="1.1"
   id="svg1754"
   width="103.35936"
   height="103.35984"
   viewBox="0 0 103.35936 103.35984"
   xmlns="http://www.w3.org/2000/svg"
   xmlns:svg="http://www.w3.org/2000/svg">
  
  <g
     id="g4362"
     transform="matrix(1.3333333,0,0,-1.3333333,-2307.1587,1106.4253)">
    <g
       id="g4838"
       transform="translate(1804.4628,781.5159)"
       clip-path="url(#clipPath45963)">
      <path
         d="m 0,0 c -1.761,2.983 -2.929,5.91 -2.329,9.439 0.59,3.469 2.314,6.61 3.722,9.835 V -2.419 C 0.951,-1.61 0.477,-0.809 0,0 m -3.204,37.43 c -1.51,0.394 -3.074,0.315 -4.495,-0.135 0.243,0.777 0.361,1.596 0.322,2.43 -0.135,2.867 -1.552,5.084 -3.624,6.545 H -6.97 1.393 V 34.162 c -1.081,1.548 -2.602,2.747 -4.597,3.268 m -29.885,5.766 c -3.992,-1.28 -7.503,-0.885 -11.129,1.17 -1.116,0.633 -2.202,1.3 -3.308,1.904 h 21.783 c -2.444,-1.049 -4.848,-2.274 -7.346,-3.074 M 3.419,-8.195 v 5.445 40.657 9.376 c 0,0.548 -0.464,1.013 -1.013,1.013 h -25.488 -30.206 c -0.085,0.01 -0.164,0.009 -0.237,0 h -10.214 -9.376 c -1.304,0 -1.306,-2.026 0,-2.026 h 19.827 c 4.691,-0.513 8.075,-4.548 12.617,-5.597 4.785,-1.105 9.352,0.885 13.628,2.82 3.934,1.781 8.031,3.6 12.404,2.345 3.88,-1.113 6.808,-5.412 4.481,-9.305 -1.394,-2.333 -4.812,-3.484 -7.076,-1.673 -2.356,1.883 -1.806,5.997 1.528,6.177 1.297,0.07 1.305,2.097 0,2.026 -5.645,-0.304 -6.638,-7.587 -2.051,-10.293 1.65,-0.973 3.402,-1.081 4.988,-0.599 -0.223,-0.91 -0.256,-1.902 -0.049,-2.951 0.551,-2.789 3.097,-4.9 5.949,-4.888 2.859,0.012 4.907,2.303 5.055,5.055 0.07,1.303 -1.956,1.3 -2.026,0 -0.157,-2.909 -3.453,-3.84 -5.568,-2.137 -1.95,1.569 -1.85,4.442 -0.435,6.325 2.868,3.818 8.493,2.088 10.303,-1.763 0.515,-1.095 0.809,-2.179 0.933,-3.255 V 26.064 C 0.7,19.479 -5.075,13.107 -4.487,6.282 -4.018,0.834 0.811,-2.875 1.393,-8.195 v -10.667 -9.376 c 0,-1.304 2.026,-1.306 2.026,0 v 19.806 c 0.008,0.074 0.01,0.152 0,0.237"
         style="fill:#f68f1e;fill-opacity:1;fill-rule:nonzero;stroke:none"
         id="path4840" />
    </g>
  </g>
</svg>
