<?xml version="1.0" encoding="UTF-8" standalone="no"?>
<!-- Created with Inkscape (http://www.inkscape.org/) -->

<svg
   version="1.1"
   id="svg1754"
   width="1879.9421"
   height="51.494667"
   viewBox="0 0 1879.9421 51.494667"
   xmlns="http://www.w3.org/2000/svg"
   xmlns:svg="http://www.w3.org/2000/svg">
  
  <g
     id="g1762"
     transform="matrix(1.3333333,0,0,-1.3333333,-340.76172,2571.5826)">
    <g
       id="g40226">
      <g
         id="g40186">
        <g
           id="g2972"
           transform="translate(982.2629,1909.3765)"
           clip-path="url(#clipPath7502)">
          <path
             d="M 0,0 14.208,-11.143 28.418,0 14.208,11.143 Z M 14.208,-14.415 -4.173,0 14.208,14.414 32.59,0 Z"
             style="fill:#f68e1e;fill-opacity:1;fill-rule:nonzero;stroke:none"
             id="path2974" />
        </g>
        <g
           id="g2976"
           transform="translate(1016.0573,1909.3765)"
           clip-path="url(#clipPath7496)">
          <path
             d="M 0,0 14.208,-11.143 28.418,0 14.208,11.143 Z M 14.208,-14.415 -4.172,0 14.208,14.414 32.591,0 Z"
             style="fill:#f68e1e;fill-opacity:1;fill-rule:nonzero;stroke:none"
             id="path2978" />
        </g>
        <g
           id="g2980"
           transform="translate(875.5255,1909.3765)"
           clip-path="url(#clipPath7490)">
          <path
             d="M 0,0 14.211,-11.143 28.418,0 14.211,11.143 Z M 14.211,-14.415 -4.173,0 14.211,14.414 32.59,0 Z"
             style="fill:#f68e1e;fill-opacity:1;fill-rule:nonzero;stroke:none"
             id="path2982" />
        </g>
        <g
           id="g2984"
           transform="translate(909.32,1909.3765)"
           clip-path="url(#clipPath7484)">
          <path
             d="M 0,0 14.21,-11.143 28.418,0 14.21,11.143 Z M 14.21,-14.415 -4.172,0 14.21,14.414 32.591,0 Z"
             style="fill:#f68e1e;fill-opacity:1;fill-rule:nonzero;stroke:none"
             id="path2986" />
        </g>
        <g
           id="g40169">
          <g
             id="g2988"
             transform="translate(960.1012,1927.4)"
             clip-path="url(#clipPath7478)">
            <path
               d="m 0,0 c -9.939,0 -18.025,-8.085 -18.025,-18.024 0,-9.938 8.086,-18.023 18.025,-18.023 9.938,0 18.023,8.085 18.023,18.023 C 18.023,-8.085 9.938,0 0,0 m 0,-37.334 c -10.649,0 -19.311,8.662 -19.311,19.31 0,10.648 8.662,19.311 19.311,19.311 10.648,0 19.311,-8.663 19.311,-19.311 0,-10.648 -8.663,-19.31 -19.311,-19.31"
               style="fill:#f68e1e;fill-opacity:1;fill-rule:nonzero;stroke:none"
               id="path2990" />
          </g>
          <g
             id="g2992"
             transform="translate(960.1012,1923.0475)"
             clip-path="url(#clipPath7472)">
            <path
               d="m 0,0 c -7.538,0 -13.671,-6.133 -13.671,-13.671 0,-7.538 6.133,-13.671 13.671,-13.671 7.538,0 13.671,6.133 13.671,13.671 C 13.671,-6.133 7.538,0 0,0 m 0,-29.995 c -9.001,0 -16.324,7.323 -16.324,16.324 0,9.001 7.323,16.324 16.324,16.324 9.001,0 16.323,-7.323 16.323,-16.324 0,-9.001 -7.322,-16.324 -16.323,-16.324"
               style="fill:#f68e1e;fill-opacity:1;fill-rule:nonzero;stroke:none"
               id="path2994" />
          </g>
          <g
             id="g2996"
             transform="translate(969.933,1909.3765)"
             clip-path="url(#clipPath7466)">
            <path
               d="m 0,0 c 0,-5.429 -4.4,-9.832 -9.832,-9.832 -5.428,0 -9.831,4.403 -9.831,9.832 0,5.43 4.403,9.831 9.831,9.831 C -4.4,9.831 0,5.43 0,0"
               style="fill:#f68e1e;fill-opacity:1;fill-rule:nonzero;stroke:none"
               id="path2998" />
          </g>
        </g>
      </g>
      <g
         id="g40192">
        <g
           id="g2964"
           transform="translate(256.5713,1909.3765)"
           clip-path="url(#clipPath7514)">
          <path
             d="M 0,0 H 605.966"
             style="fill:none;stroke:#f79421;stroke-width:2;stroke-linecap:round;stroke-linejoin:miter;stroke-miterlimit:4;stroke-dasharray:none;stroke-opacity:1"
             id="path2966" />
        </g>
        <g
           id="g3000"
           transform="translate(850.8784,1909.5309)"
           clip-path="url(#clipPath7460)">
          <path
             d="m 0,0 c 0,0 7.964,-5.401 6.506,-11.228 0,0 3.759,3.384 0.964,6.896 C 5.008,-1.239 9.408,-7.775 14.446,0 9.408,7.774 5.463,0.929 7.47,4.335 9.982,8.597 6.506,11.229 6.506,11.229 6.976,4.37 0,0 0,0"
             style="fill:#f68e1e;fill-opacity:1;fill-rule:nonzero;stroke:none"
             id="path3002" />
        </g>
      </g>
      <g
         id="g40198">
        <g
           id="g2968"
           transform="translate(1065.6569,1909.3765)"
           clip-path="url(#clipPath7508)">
          <path
             d="M 0,0 H 598.871"
             style="fill:none;stroke:#f79421;stroke-width:2;stroke-linecap:round;stroke-linejoin:miter;stroke-miterlimit:4;stroke-dasharray:none;stroke-opacity:1"
             id="path2970" />
        </g>
        <g
           id="g3004"
           transform="translate(1069.1217,1909.532)"
           clip-path="url(#clipPath7454)">
          <path
             d="m 0,0 c 0,0 -7.965,5.401 -6.506,11.228 0,0 -3.76,-3.384 -0.964,-6.896 C -5.008,1.24 -9.408,7.775 -14.446,0 c 5.038,-7.775 8.983,-0.929 6.976,-4.335 -2.513,-4.261 0.964,-6.894 0.964,-6.894 C -6.977,-4.37 0,0 0,0"
             style="fill:#f68e1e;fill-opacity:1;fill-rule:nonzero;stroke:none"
             id="path3006" />
        </g>
      </g>
    </g>
  </g>
</svg>
