<svg xmlns="http://www.w3.org/2000/svg" viewBox="0 0 279.96 111.06"><defs><style>.cls-1{fill:#f79521;}.cls-2{fill:#fff;}</style></defs><g id="Layer_2" data-name="Layer 2"><g id="BG"><path class="cls-1" d="M76.85,23.18A40.58,40.58,0,0,0,75,26.91a.45.45,0,0,0,.28.6l3.67,1.08a.42.42,0,0,0,.51-.24c.41-.87.84-1.72,1.29-2.56a.43.43,0,0,0-.13-.56L77.48,23a.43.43,0,0,0-.63.14M87.27,10.54c-1,.81-1.89,1.65-2.78,2.54a.44.44,0,0,0,0,.63l2.78,2.59a.44.44,0,0,0,.6,0c.68-.68,1.39-1.33,2.12-2a.43.43,0,0,0,.08-.57l-2.17-3.13a.44.44,0,0,0-.64-.09m14.23-8.1c-1.11.38-2.2.81-3.28,1.28a.44.44,0,0,0-.21.61L99.75,7.7a.43.43,0,0,0,.56.2c.81-.35,1.63-.67,2.47-1a.43.43,0,0,0,.27-.52l-1-3.67a.44.44,0,0,0-.57-.3M116,0c-.64,0-1.28,0-1.91,0a.45.45,0,0,0-.42.48l.34,3.78a.43.43,0,0,0,.45.39l1.54,0c.41,0,.83,0,1.25,0a.44.44,0,0,0,.45-.39l.41-3.78a.44.44,0,0,0-.42-.49c-.56,0-1.13,0-1.69,0m12.88,2.39L128,6.06a.43.43,0,0,0,.28.52c.82.26,1.62.55,2.4.86a.43.43,0,0,0,.56-.22l1.6-3.44a.43.43,0,0,0-.23-.59c-1-.41-2.08-.79-3.14-1.12a.45.45,0,0,0-.56.32m13.44,6.75-2.18,3.1a.43.43,0,0,0,.09.59c.72.54,1.41,1.1,2.09,1.69a.42.42,0,0,0,.6,0l2.56-2.79a.44.44,0,0,0,0-.63c-.8-.71-1.64-1.39-2.5-2a.43.43,0,0,0-.62.1m10.32,10.69-3,2.31a.42.42,0,0,0-.09.58c.44.67.87,1.35,1.27,2a.43.43,0,0,0,.55.18l3.49-1.54a.45.45,0,0,0,.2-.63c-.56-1-1.15-1.91-1.77-2.84a.45.45,0,0,0-.64-.1m6.38,13.72-3.63,1.13a.43.43,0,0,0-.29.52c.22.87.42,1.76.58,2.65a.44.44,0,0,0,.47.36l3.79-.36a.44.44,0,0,0,.4-.51c-.21-1.18-.46-2.34-.76-3.49a.44.44,0,0,0-.56-.3m1.4,7.73-3.78.36a.42.42,0,0,0-.39.46c.06.74.1,2.09.12,2.87a.6.6,0,0,0,.6.59h3.46a.6.6,0,0,0,.6-.62c0-.86-.06-2.41-.13-3.26a.45.45,0,0,0-.48-.4m-4-14.81L153,28a.43.43,0,0,0-.22.57c.38.83.72,1.67,1,2.52a.43.43,0,0,0,.53.27L158,30.25a.45.45,0,0,0,.29-.57c-.37-1-.78-2-1.22-3a.44.44,0,0,0-.58-.22M148,14.11l-2.56,2.8a.43.43,0,0,0,0,.59c.53.58,1.05,1.17,1.56,1.78a.44.44,0,0,0,.6.07l3-2.31a.43.43,0,0,0,.07-.62c-.65-.8-1.33-1.57-2-2.32a.45.45,0,0,0-.65,0M136,5.22l-1.6,3.44a.42.42,0,0,0,.19.56c.72.38,1.44.78,2.13,1.21a.44.44,0,0,0,.58-.12l2.19-3.11a.44.44,0,0,0-.13-.63Q138,5.74,136.6,5a.44.44,0,0,0-.6.21M121.61.8l-.41,3.77a.43.43,0,0,0,.37.48c.87.12,1.73.26,2.58.44a.44.44,0,0,0,.51-.32l.91-3.68a.43.43,0,0,0-.34-.53c-1-.22-2.07-.41-3.12-.55a.44.44,0,0,0-.5.39M109.76.44c-1.37.19-2.72.45-4.05.77a.44.44,0,0,0-.32.55l1,3.66a.43.43,0,0,0,.52.31c1.09-.26,2.21-.48,3.34-.64a.43.43,0,0,0,.37-.47L110.26.84a.45.45,0,0,0-.5-.4M94.3,5.67c-1.22.68-2.4,1.42-3.55,2.21a.44.44,0,0,0-.11.61l2.17,3.12a.43.43,0,0,0,.6.1c1-.68,2-1.32,3.06-1.91a.43.43,0,0,0,.18-.58L94.91,5.85a.45.45,0,0,0-.61-.18M81.54,16.32c-.84,1-1.63,2.05-2.38,3.14a.44.44,0,0,0,.11.61l3.11,2.17a.42.42,0,0,0,.6-.11c.63-.91,1.3-1.81,2-2.67a.42.42,0,0,0,0-.59l-2.78-2.59a.43.43,0,0,0-.63,0M73.4,31c-.43,1.31-.81,2.64-1.12,4a.44.44,0,0,0,.43.54h3.9a.44.44,0,0,0,.42-.33q.36-1.44.84-2.85a.44.44,0,0,0-.29-.56l-3.64-1.07a.43.43,0,0,0-.54.28"/><path class="cls-2" d="M5.52,81.91,2.05,83.08a.61.61,0,0,1-.79-.42,38.73,38.73,0,0,1-.83-4A.63.63,0,0,1,1,77.9h3.7a.59.59,0,0,1,.59.51c.16.94.35,1.86.58,2.77a.61.61,0,0,1-.39.73"/><path class="cls-2" d="M8.43,89.11l-3.1,2a.62.62,0,0,1-.87-.22,38.05,38.05,0,0,1-1.68-3.6.61.61,0,0,1,.38-.81l3.46-1.17a.61.61,0,0,1,.76.35Q8,87,8.64,88.31a.61.61,0,0,1-.21.8"/><path class="cls-2" d="M12.83,95.38,10.24,98a.62.62,0,0,1-.9,0A35.83,35.83,0,0,1,7,95a.62.62,0,0,1,.17-.88l3.09-1.95a.62.62,0,0,1,.83.17c.55.78,1.14,1.53,1.77,2.26a.6.6,0,0,1,0,.83"/><path class="cls-2" d="M16.13,97.88c.69.61,1.41,1.18,2.14,1.73a.61.61,0,0,1,.17.8l-1.83,3.18a.63.63,0,0,1-.9.19,38,38,0,0,1-3-2.4.62.62,0,0,1,0-.9L15.3,97.9a.59.59,0,0,1,.83,0"/><path class="cls-2" d="M22.2,102.14q1.29.7,2.64,1.29a.6.6,0,0,1,.34.76L24,107.65a.63.63,0,0,1-.83.36,37.17,37.17,0,0,1-3.36-1.63.62.62,0,0,1-.23-.85l1.82-3.16a.6.6,0,0,1,.82-.23"/><path class="cls-2" d="M29.24,105c1,.29,2.07.52,3.13.71a.6.6,0,0,1,.5.67L32.43,110a.62.62,0,0,1-.71.54,35.85,35.85,0,0,1-4-.91.62.62,0,0,1-.41-.79l1.2-3.45a.61.61,0,0,1,.74-.39"/><path class="cls-2" d="M40.72,106.65l.52,3.62a.61.61,0,0,1-.56.7c-.87.06-1.74.09-2.62.09-.52,0-1,0-1.54,0a.62.62,0,0,1-.58-.69l.44-3.62a.61.61,0,0,1,.63-.54h1.05c.68,0,1.35,0,2-.06a.61.61,0,0,1,.64.53"/><path class="cls-2" d="M48.53,105.09l1.27,3.44a.61.61,0,0,1-.39.8,37.24,37.24,0,0,1-3.94,1,.62.62,0,0,1-.73-.52l-.52-3.61a.62.62,0,0,1,.49-.69,31.34,31.34,0,0,0,3.07-.78.6.6,0,0,1,.75.36"/><path class="cls-2" d="M55.71,101.75l2.09,3a.62.62,0,0,1-.19.88,36.06,36.06,0,0,1-3.69,2,.62.62,0,0,1-.84-.35l-1.26-3.43a.62.62,0,0,1,.32-.77c.94-.44,1.86-.93,2.75-1.46a.62.62,0,0,1,.82.17"/><path class="cls-2" d="M61.91,96.84l2.74,2.43a.61.61,0,0,1,0,.9,39.8,39.8,0,0,1-3.09,2.72.62.62,0,0,1-.89-.14l-2.09-3a.61.61,0,0,1,.13-.83c.81-.65,1.59-1.33,2.34-2a.6.6,0,0,1,.83,0"/><path class="cls-2" d="M66.5,91.06l3.33,1.59a.62.62,0,0,1,.26.89c-.68,1-1.4,2.06-2.18,3a.61.61,0,0,1-.89.07l-2.75-2.42a.61.61,0,0,1-.07-.83q.81-1,1.53-2.13a.6.6,0,0,1,.77-.21"/><path class="cls-2" d="M69.7,84.6l3.59.85a.62.62,0,0,1,.43.81c-.38,1-.81,2.06-1.28,3a.62.62,0,0,1-.82.29L68.31,88A.62.62,0,0,1,68,87.2c.35-.73.67-1.47,1-2.22a.6.6,0,0,1,.7-.38"/><path class="cls-2" d="M71.4,77.84h3.69a.62.62,0,0,1,.62.7c-.16,1-.35,2.08-.59,3.1a.62.62,0,0,1-.75.45l-3.55-.84a.61.61,0,0,1-.45-.74c.17-.71.31-1.43.43-2.15a.6.6,0,0,1,.6-.52"/><path class="cls-2" d="M0,40.66A1.46,1.46,0,0,1,1.65,39H12.93a12.7,12.7,0,0,1,4.46.77A10,10,0,0,1,20.89,42a10.35,10.35,0,0,1,2.28,3.51A12.14,12.14,0,0,1,24,50.08a12.28,12.28,0,0,1-.83,4.58,10.47,10.47,0,0,1-2.28,3.56,9.83,9.83,0,0,1-3.5,2.28,12.27,12.27,0,0,1-4.46.8h-8V72.72a1.46,1.46,0,0,1-1.65,1.66H1.65A1.46,1.46,0,0,1,0,72.72ZM12.12,57a6.74,6.74,0,0,0,5-1.85A6.89,6.89,0,0,0,19,50.08a6.64,6.64,0,0,0-1.83-5,6.87,6.87,0,0,0-5-1.77H4.91V57Z"/><path class="cls-2" d="M26.4,67.46a6.88,6.88,0,0,1,2.76-5.76A11.34,11.34,0,0,1,32,60.15a17.84,17.84,0,0,1,3.28-.9,28.46,28.46,0,0,1,3.33-.4c1.09-.07,2.06-.1,2.93-.1h1.31V58.1a7.3,7.3,0,0,0-.43-2.64,4.27,4.27,0,0,0-2.93-2.65,8.29,8.29,0,0,0-2.16-.28,9.62,9.62,0,0,0-3.38.56,14.34,14.34,0,0,0-2.33,1,1.55,1.55,0,0,1-2.25-.6l-.4-.7a1.47,1.47,0,0,1,.55-2.26,22.83,22.83,0,0,1,3.23-1.4,14.77,14.77,0,0,1,5-.75q4.76,0,7.36,2.53c1.74,1.68,2.6,4.15,2.6,7.39V72.72A1.46,1.46,0,0,1,46,74.38H44.79a1.46,1.46,0,0,1-1.65-1.66V70.57a1.79,1.79,0,0,1,0-.5c0-.13.06-.27.1-.4h-.1a10,10,0,0,1-1.91,2.65,10.71,10.71,0,0,1-2.55,1.83,8.07,8.07,0,0,1-3.81.83,10.55,10.55,0,0,1-3.21-.5A8.38,8.38,0,0,1,29,73a7.37,7.37,0,0,1-1.87-2.35,6.91,6.91,0,0,1-.71-3.19m4.91-.4a4,4,0,0,0,1.18,2.78A4.53,4.53,0,0,0,36,71.12a5.66,5.66,0,0,0,2.88-.73,6.9,6.9,0,0,0,2.16-1.9,9.31,9.31,0,0,0,1.35-2.6,8.9,8.9,0,0,0,.48-2.83V62H41.58c-.9,0-1.93,0-3.1.13a14.27,14.27,0,0,0-3.36.63,7,7,0,0,0-2.71,1.52,3.71,3.71,0,0,0-1.1,2.83"/><path class="cls-2" d="M55.26,53.24H53.51a1.45,1.45,0,0,1-1.61-1.66v-.65a1.46,1.46,0,0,1,1.66-1.65h1.8V43.72A1.46,1.46,0,0,1,57,42.06h1.46a1.46,1.46,0,0,1,1.65,1.66v5.56h4.41a1.46,1.46,0,0,1,1.65,1.65v.65c0,1.1-.53,1.66-1.6,1.66H60.12V64.51a7.13,7.13,0,0,0,.5,2.9,4.66,4.66,0,0,0,1.23,1.71,4.09,4.09,0,0,0,1.55.82,7.78,7.78,0,0,0,1.53.28,2.46,2.46,0,0,1,1.38.45,1.6,1.6,0,0,1,.37,1.2v1.06c0,1.1-.67,1.65-2,1.65A11.6,11.6,0,0,1,61.07,74a8.1,8.1,0,0,1-5-4.61,10.19,10.19,0,0,1-.78-4.16Z"/><path class="cls-2" d="M71.24,40.66A1.46,1.46,0,0,1,72.9,39h1.55a1.44,1.44,0,0,1,1.6,1.65V52.13c0,.3,0,.59,0,.86s0,.48-.08.65a4.83,4.83,0,0,0,0,.6H76a9,9,0,0,1,1.23-1.93A10.6,10.6,0,0,1,82,49a10.25,10.25,0,0,1,3.46-.55q4.52,0,6.61,2.43t2.11,7.29V72.72a1.46,1.46,0,0,1-1.66,1.66H91a1.46,1.46,0,0,1-1.65-1.66V59.25a16.37,16.37,0,0,0-.18-2.51,5.16,5.16,0,0,0-.7-2A3.66,3.66,0,0,0,87,53.39a5.15,5.15,0,0,0-2.45-.51,8.07,8.07,0,0,0-3.36.71,7.67,7.67,0,0,0-2.68,2,9.74,9.74,0,0,0-1.78,3,10.71,10.71,0,0,0-.65,3.78V72.72c0,1.11-.53,1.66-1.6,1.66H72.9a1.46,1.46,0,0,1-1.66-1.66Z"/><path class="cls-1" d="M101.55,40.66A1.47,1.47,0,0,1,103.21,39h16.18A1.46,1.46,0,0,1,121,40.66v1a1.47,1.47,0,0,1-1.65,1.66H106.46V54.94h10.73a1.46,1.46,0,0,1,1.65,1.65v1a1.46,1.46,0,0,1-1.65,1.66H106.46V72.72a1.46,1.46,0,0,1-1.65,1.66h-1.6a1.47,1.47,0,0,1-1.66-1.66Z"/><path class="cls-1" d="M123.6,61.65a12.85,12.85,0,0,1,1.08-5.28,13.13,13.13,0,0,1,2.9-4.21,12.84,12.84,0,0,1,4.31-2.76,15.16,15.16,0,0,1,10.67,0,13.07,13.07,0,0,1,7.26,7,12.85,12.85,0,0,1,1.08,5.28,13,13,0,0,1-4,9.55A13.57,13.57,0,0,1,142.56,74a14.73,14.73,0,0,1-10.67,0,13.06,13.06,0,0,1-7.21-7,13,13,0,0,1-1.08-5.34m4.91,0a9.44,9.44,0,0,0,.7,3.69,9.21,9.21,0,0,0,1.88,2.88,8.44,8.44,0,0,0,2.75,1.87,8.77,8.77,0,0,0,6.77,0,8.78,8.78,0,0,0,2.78-1.87,8.53,8.53,0,0,0,1.87-2.88,9.62,9.62,0,0,0,.68-3.69,9.23,9.23,0,0,0-.68-3.6,8.35,8.35,0,0,0-1.87-2.86,8.81,8.81,0,0,0-2.78-1.88,8.6,8.6,0,0,0-9.52,1.88,9.16,9.16,0,0,0-2.58,6.46"/><path class="cls-1" d="M156.26,50.68A1.46,1.46,0,0,1,157.92,49h1.4A1.46,1.46,0,0,1,161,50.68v2.91c0,.26,0,.51,0,.75s0,.43-.08.6a3.74,3.74,0,0,0-.05.55h.1A11.46,11.46,0,0,1,162.05,53a9.23,9.23,0,0,1,1.73-2.13A8.86,8.86,0,0,1,166,49.4a6.28,6.28,0,0,1,2.68-.57,1.44,1.44,0,0,1,1.6,1.65v1.4c0,1.11-.6,1.66-1.8,1.66a5.67,5.67,0,0,0-3.23.92A8.07,8.07,0,0,0,163,56.84a10.82,10.82,0,0,0-1.38,3.33,16.06,16.06,0,0,0-.45,3.74v8.81a1.46,1.46,0,0,1-1.65,1.66h-1.55a1.46,1.46,0,0,1-1.66-1.66Z"/><path class="cls-1" d="M171.74,50.88A1.3,1.3,0,0,1,173.15,49h1.65a1.71,1.71,0,0,1,1.85,1.4l5,16.38c.07.34.15.66.23,1s.16.61.22.88a7.27,7.27,0,0,1,.15.85h.11a3.59,3.59,0,0,1,.2-.85c.06-.27.14-.56.22-.88s.18-.64.28-1l5.11-16.33a1.64,1.64,0,0,1,1.8-1.4h1.55a1.73,1.73,0,0,1,1.86,1.4l5.11,16.33c.06.34.14.66.22,1s.16.61.23.88.13.58.2.85h.1a7.27,7.27,0,0,1,.15-.85c.06-.27.14-.56.22-.88l.28-1,5-16.38a1.64,1.64,0,0,1,1.8-1.4h1.66a1.3,1.3,0,0,1,1.4,1.85L202.5,73a1.71,1.71,0,0,1-1.85,1.4H198.2a1.73,1.73,0,0,1-1.86-1.4L191.48,58.1a6.8,6.8,0,0,1-.3-1c-.07-.32-.13-.61-.2-.88s-.13-.6-.2-.9h-.1a4.16,4.16,0,0,1-.2.9c-.07.27-.15.56-.25.88s-.2.64-.3,1L185.12,73a1.71,1.71,0,0,1-1.85,1.4h-2.51a1.71,1.71,0,0,1-1.85-1.4Z"/><path class="cls-1" d="M212.27,67.46A6.88,6.88,0,0,1,215,61.7a11.52,11.52,0,0,1,2.83-1.55,18.06,18.06,0,0,1,3.28-.9,28.46,28.46,0,0,1,3.33-.4c1.09-.07,2.07-.1,2.93-.1h1.31V58.1a7.3,7.3,0,0,0-.43-2.64,4.27,4.27,0,0,0-2.93-2.65,8.27,8.27,0,0,0-2.15-.28,9.64,9.64,0,0,0-3.39.56,14.34,14.34,0,0,0-2.33,1,1.55,1.55,0,0,1-2.25-.6l-.4-.7a1.47,1.47,0,0,1,.55-2.26,22.83,22.83,0,0,1,3.23-1.4,14.77,14.77,0,0,1,5-.75q4.76,0,7.36,2.53c1.74,1.68,2.61,4.15,2.61,7.39V72.72a1.46,1.46,0,0,1-1.66,1.66h-1.25A1.46,1.46,0,0,1,229,72.72V70.57a1.79,1.79,0,0,1,.05-.5c0-.13.06-.27.1-.4h-.1a10,10,0,0,1-1.91,2.65,10.71,10.71,0,0,1-2.55,1.83,8.07,8.07,0,0,1-3.81.83,10.55,10.55,0,0,1-3.21-.5A8.38,8.38,0,0,1,214.85,73,7.54,7.54,0,0,1,213,70.65a7,7,0,0,1-.7-3.19m4.91-.4a4,4,0,0,0,1.18,2.78,4.53,4.53,0,0,0,3.53,1.28,5.66,5.66,0,0,0,2.88-.73,6.79,6.79,0,0,0,2.16-1.9,9.31,9.31,0,0,0,1.35-2.6,8.9,8.9,0,0,0,.48-2.83V62h-1.31c-.9,0-1.93,0-3.1.13a14.27,14.27,0,0,0-3.36.63,7,7,0,0,0-2.71,1.52,3.71,3.71,0,0,0-1.1,2.83"/><path class="cls-1" d="M240.23,50.68A1.46,1.46,0,0,1,241.88,49h1.41a1.46,1.46,0,0,1,1.65,1.65v2.91q0,.39,0,.75a4.52,4.52,0,0,1-.07.6,3.74,3.74,0,0,0-.05.55h.1A11.46,11.46,0,0,1,246,53a9.23,9.23,0,0,1,1.73-2.13A8.68,8.68,0,0,1,250,49.4a6.24,6.24,0,0,1,2.67-.57,1.44,1.44,0,0,1,1.61,1.65v1.4c0,1.11-.6,1.66-1.81,1.66a5.72,5.72,0,0,0-3.23.92,8,8,0,0,0-2.3,2.38,10.82,10.82,0,0,0-1.38,3.33,16.06,16.06,0,0,0-.45,3.74v8.81a1.46,1.46,0,0,1-1.65,1.66h-1.56a1.46,1.46,0,0,1-1.65-1.66Z"/><path class="cls-1" d="M255.81,61.7a16.81,16.81,0,0,1,.85-5.46A12.38,12.38,0,0,1,259,52.06a10.6,10.6,0,0,1,3.64-2.68,10.92,10.92,0,0,1,4.6-1,8.92,8.92,0,0,1,3.69.67,9.74,9.74,0,0,1,2.43,1.53,7.74,7.74,0,0,1,1.75,2.15h.1c0-.16-.07-.33-.1-.5a2.87,2.87,0,0,1,0-.52V40.66A1.46,1.46,0,0,1,276.75,39h1.56A1.46,1.46,0,0,1,280,40.66V72.73a1.46,1.46,0,0,1-1.65,1.65H277c-1.1,0-1.65-.52-1.65-1.55V71.37a5.83,5.83,0,0,1,0-.9,1.23,1.23,0,0,1,.05-.35h-.1a8.56,8.56,0,0,1-1.85,2.45,10.54,10.54,0,0,1-2.58,1.66A9.2,9.2,0,0,1,267,75a10.76,10.76,0,0,1-4.63-1,10.06,10.06,0,0,1-3.53-2.73,12.39,12.39,0,0,1-2.23-4.18,17.59,17.59,0,0,1-.78-5.39m5,0a12.43,12.43,0,0,0,.53,3.72,8.37,8.37,0,0,0,1.48,2.85A6.68,6.68,0,0,0,265,70.12a6.35,6.35,0,0,0,2.91.65,7.39,7.39,0,0,0,2.73-.52A6.1,6.1,0,0,0,273,68.62a8.18,8.18,0,0,0,1.63-2.82,12,12,0,0,0,.63-4.12,12.17,12.17,0,0,0-.45-3.3,9,9,0,0,0-1.35-2.85,7.19,7.19,0,0,0-2.26-2,6.18,6.18,0,0,0-3.15-.78,6.78,6.78,0,0,0-2.81.6,6.94,6.94,0,0,0-2.3,1.75,8.33,8.33,0,0,0-1.58,2.83,11.53,11.53,0,0,0-.58,3.82"/></g></g></svg>